<svg width="162" height="163" viewBox="0 0 162 163" fill="none" xmlns="http://www.w3.org/2000/svg">
<g filter="url(#filter0_i)">
<path d="M161.02 79.1332C161.02 122.441 125.194 157.549 81.0001 157.549C36.8062 157.549 0.97998 122.441 0.97998 79.1332C0.97998 35.8255 36.8062 0.717712 81.0001 0.717712C125.194 0.717712 161.02 35.8255 161.02 79.1332Z" fill="url(#paint0_linear)"/>
</g>
<path opacity="0.6" d="M149.863 85.514C149.863 123.695 118.277 154.647 79.3146 154.647C40.352 154.647 8.7666 123.695 8.7666 85.514C8.7666 47.3328 40.352 16.3807 79.3146 16.3807C118.277 16.3807 149.863 47.3328 149.863 85.514Z" fill="white"/>
<g filter="url(#filter1_i)">
<path d="M149.575 85.1206C149.575 123.302 117.99 154.254 79.0275 154.254C40.0649 154.254 8.47949 123.302 8.47949 85.1206C8.47949 46.9394 40.0649 15.9874 79.0275 15.9874C117.99 15.9874 149.575 46.9394 149.575 85.1206Z" fill="#6B73EB"/>
</g>
<path opacity="0.05" d="M140.587 78.3364C140.587 110.003 113.464 135.673 80.0048 135.673C46.5461 135.673 19.4224 110.003 19.4224 78.3364C19.4224 46.67 46.5461 20.9993 80.0048 20.9993C113.464 20.9993 140.587 46.67 140.587 78.3364Z" fill="white"/>
<g filter="url(#filter2_i)">
<path d="M140.587 77.9348C140.587 109.601 113.464 135.272 80.0048 135.272C46.5461 135.272 19.4224 109.601 19.4224 77.9348C19.4224 46.2684 46.5461 20.5977 80.0048 20.5977C113.464 20.5977 140.587 46.2684 140.587 77.9348Z" fill="#2F218B"/>
</g>
<mask id="mask0" mask-type="alpha" maskUnits="userSpaceOnUse" x="19" y="20" width="122" height="116">
<path d="M140.587 77.9348C140.587 109.601 113.464 135.272 80.0048 135.272C46.5461 135.272 19.4224 109.601 19.4224 77.9348C19.4224 46.2684 46.5461 20.5977 80.0048 20.5977C113.464 20.5977 140.587 46.2684 140.587 77.9348Z" fill="#3F2EA9"/>
</mask>
<g mask="url(#mask0)">
<g filter="url(#filter3_d)">
<mask id="mask1" mask-type="alpha" maskUnits="userSpaceOnUse" x="28" y="73" width="61" height="59">
<path d="M88.2277 102.548C88.2277 118.751 74.7517 131.886 58.1283 131.886C41.5048 131.886 28.0288 118.751 28.0288 102.548C28.0288 86.3445 41.5048 73.2094 58.1283 73.2094C74.7517 73.2094 88.2277 86.3445 88.2277 102.548Z" fill="#74A6F2"/>
</mask>
<g mask="url(#mask1)">
<path d="M88.2277 102.548C88.2277 118.751 74.7517 131.886 58.1283 131.886C41.5048 131.886 28.0288 118.751 28.0288 102.548C28.0288 86.3445 41.5048 73.2094 58.1283 73.2094C74.7517 73.2094 88.2277 86.3445 88.2277 102.548Z" fill="url(#paint1_linear)"/>
<path d="M41.6772 120.812C31.3759 121.565 27.2513 134.638 23.9436 138.318L0.169437 99.1648L53.0445 67.8549C56.5371 70.1169 64.4589 74.5725 62.2797 78.232C59.5284 82.8524 53.1742 79.228 42.8022 84.8125C32.1146 90.5668 26.9368 102.979 24.5348 107.882C29.3221 101.27 37.7216 92.5526 48.9045 88.4192C60.0874 84.2858 70.0154 86.1395 76.9445 83.0543C82.4878 80.5862 84.173 68.6502 84.3227 62.9907L93.7542 63.2214C92.3714 75.1722 94.258 98.8781 83.3192 103.217C72.3804 107.556 58.488 100.981 42.9961 102.85C30.6025 104.345 19.3992 112.31 15.3468 116.106L18.3453 121.045C21.5733 118.844 30.2268 112.585 40.0692 111.721C53.5677 110.535 66.8952 118.048 79.7247 115.821C89.7531 114.08 97.2322 100.358 104.413 90.4396C96.497 103.174 87.7979 123.412 69.9487 126.298C57.4801 128.314 50.5738 120.161 41.6772 120.812Z" fill="url(#paint2_radial)"/>
</g>
</g>
<path d="M27.2092 72.9082C27.2092 73.1855 26.9798 73.4102 26.6969 73.4102C26.4139 73.4102 26.1846 73.1855 26.1846 72.9082C26.1846 72.631 26.4139 72.4062 26.6969 72.4062C26.9798 72.4062 27.2092 72.631 27.2092 72.9082Z" fill="#F9CF77"/>
<path fill-rule="evenodd" clip-rule="evenodd" d="M40.7321 54.9375C40.7332 54.9037 40.7338 54.8696 40.7338 54.8355C40.7338 54.8013 40.7332 54.7673 40.7321 54.7334L40.5273 54.7399C40.5283 54.7716 40.5289 54.8035 40.5289 54.8355C40.5289 54.8675 40.5283 54.8994 40.5273 54.9311L40.7321 54.9375ZM40.6918 55.3427L40.4896 55.3102C40.4791 55.3733 40.4665 55.4356 40.4519 55.4972L40.6515 55.5426C40.6671 55.4767 40.6805 55.4101 40.6918 55.3427ZM40.531 55.9322L40.3392 55.8614C40.3163 55.921 40.2915 55.9797 40.2648 56.0374L40.4514 56.1204C40.4799 56.0587 40.5065 55.996 40.531 55.9322ZM40.2552 56.4793L40.0813 56.3731C40.0469 56.4271 40.0109 56.4799 39.9731 56.5315L40.1396 56.6486C40.1799 56.5935 40.2185 56.537 40.2552 56.4793ZM39.8758 56.9632L39.7263 56.8259C39.6819 56.8723 39.636 56.9172 39.5887 56.9607L39.7288 57.1072C39.7794 57.0608 39.8284 57.0127 39.8758 56.9632ZM39.4078 57.3657L39.2883 57.2026C39.2356 57.2396 39.1817 57.275 39.1266 57.3086L39.235 57.479C39.2939 57.4431 39.3515 57.4053 39.4078 57.3657ZM38.8688 57.6713L38.7841 57.4884C38.7252 57.5146 38.6653 57.5389 38.6045 57.5614L38.6767 57.7493C38.7418 57.7253 38.8058 57.6992 38.8688 57.6713ZM38.2791 57.8673L38.2328 57.6717C38.1699 57.686 38.1063 57.6984 38.042 57.7087L38.0752 57.9069C38.1439 57.8958 38.2119 57.8826 38.2791 57.8673ZM37.6617 57.9464L37.6551 57.7457C37.6227 57.7467 37.5902 57.7472 37.5576 57.7472C37.5249 57.7472 37.4924 57.7467 37.46 57.7457L37.4534 57.9464C37.488 57.9475 37.5227 57.948 37.5576 57.948C37.5924 57.948 37.6271 57.9475 37.6617 57.9464ZM37.0399 57.9069L37.0731 57.7087C37.0088 57.6984 36.9452 57.686 36.8824 57.6717L36.836 57.8673C36.9032 57.8826 36.9712 57.8958 37.0399 57.9069ZM36.4384 57.7493L36.5106 57.5614C36.4498 57.5389 36.3899 57.5146 36.331 57.4884L36.2464 57.6713C36.3093 57.6992 36.3733 57.7253 36.4384 57.7493ZM35.8801 57.479L35.9885 57.3086C35.9334 57.275 35.8795 57.2396 35.8269 57.2026L35.7074 57.3657C35.7636 57.4053 35.8212 57.4431 35.8801 57.479ZM35.3863 57.1072L35.5264 56.9607C35.4791 56.9172 35.4332 56.8723 35.3889 56.8259L35.2393 56.9632C35.2867 57.0127 35.3358 57.0608 35.3863 57.1072ZM34.9756 56.6486L35.142 56.5315C35.1043 56.4799 35.0682 56.4271 35.0338 56.3731L34.8599 56.4793C34.8966 56.537 34.9352 56.5935 34.9756 56.6486ZM34.6638 56.1204L34.8504 56.0374C34.8237 55.9797 34.7988 55.921 34.7759 55.8614L34.5841 55.9322C34.6086 55.996 34.6352 56.0587 34.6638 56.1204ZM34.4637 55.5426L34.6633 55.4972C34.6487 55.4356 34.6361 55.3733 34.6255 55.3102L34.4233 55.3427C34.4346 55.4101 34.4481 55.4767 34.4637 55.5426ZM34.383 54.9375C34.3819 54.9037 34.3813 54.8696 34.3813 54.8355C34.3813 54.8013 34.3819 54.7673 34.383 54.7334L34.5878 54.7399C34.5868 54.7716 34.5863 54.8035 34.5863 54.8355C34.5863 54.8675 34.5868 54.8994 34.5878 54.9311L34.383 54.9375ZM34.4233 54.3282L34.6255 54.3607C34.6361 54.2977 34.6487 54.2354 34.6633 54.1738L34.4637 54.1284C34.4481 54.1942 34.4346 54.2609 34.4233 54.3282ZM34.5841 53.7388L34.7759 53.8095C34.7988 53.7499 34.8237 53.6912 34.8504 53.6336L34.6638 53.5506C34.6352 53.6123 34.6086 53.675 34.5841 53.7388ZM34.8599 53.1917L35.0338 53.2979C35.0682 53.2439 35.1043 53.1911 35.142 53.1395L34.9756 53.0224C34.9352 53.0775 34.8966 53.134 34.8599 53.1917ZM35.2393 52.7078L35.3889 52.8451C35.4332 52.7987 35.4791 52.7537 35.5264 52.7103L35.3863 52.5638C35.3358 52.6102 35.2867 52.6582 35.2393 52.7078ZM35.7074 52.3053L35.8269 52.4684C35.8795 52.4314 35.9334 52.396 35.9885 52.3624L35.8801 52.1919C35.8212 52.2279 35.7636 52.2657 35.7074 52.3053ZM36.2464 51.9997L36.331 52.1826C36.3899 52.1564 36.4498 52.1321 36.5106 52.1096L36.4384 51.9217C36.3733 51.9457 36.3093 51.9717 36.2464 51.9997ZM36.836 51.8036L36.8824 51.9992C36.9452 51.9849 37.0088 51.9726 37.0731 51.9623L37.0399 51.7641C36.9712 51.7751 36.9032 51.7883 36.836 51.8036ZM37.4534 51.7246L37.46 51.9253C37.4924 51.9243 37.5249 51.9238 37.5576 51.9238C37.5902 51.9238 37.6227 51.9243 37.6551 51.9253L37.6617 51.7246C37.6271 51.7235 37.5924 51.723 37.5576 51.723C37.5227 51.723 37.488 51.7235 37.4534 51.7246ZM38.0752 51.7641L38.042 51.9623C38.1063 51.9726 38.1699 51.9849 38.2328 51.9992L38.2791 51.8036C38.2119 51.7883 38.1439 51.7751 38.0752 51.7641ZM38.6767 51.9217L38.6045 52.1096C38.6653 52.1321 38.7252 52.1564 38.7841 52.1826L38.8688 51.9997C38.8058 51.9717 38.7418 51.9457 38.6767 51.9217ZM39.235 52.1919L39.1266 52.3624C39.1817 52.396 39.2356 52.4314 39.2883 52.4684L39.4078 52.3053C39.3515 52.2657 39.2939 52.2279 39.235 52.1919ZM39.7288 52.5638L39.5887 52.7103C39.636 52.7537 39.6819 52.7987 39.7263 52.8451L39.8758 52.7078C39.8284 52.6582 39.7794 52.6102 39.7288 52.5638ZM40.1396 53.0224L39.9731 53.1395C40.0109 53.1911 40.0469 53.2439 40.0813 53.2979L40.2552 53.1917C40.2185 53.134 40.1799 53.0775 40.1396 53.0224ZM40.4514 53.5506L40.2648 53.6336C40.2915 53.6912 40.3163 53.7499 40.3392 53.8095L40.531 53.7388C40.5065 53.675 40.4799 53.6123 40.4514 53.5506ZM40.6515 54.1284L40.4519 54.1738C40.4665 54.2354 40.4791 54.2977 40.4896 54.3607L40.6918 54.3282C40.6805 54.2609 40.6671 54.1942 40.6515 54.1284Z" fill="url(#paint3_angular)"/>
<path d="M57.1271 37.9676C57.1271 38.2449 56.8978 38.4696 56.6148 38.4696C56.3319 38.4696 56.1025 38.2449 56.1025 37.9676C56.1025 37.6903 56.3319 37.4656 56.6148 37.4656C56.8978 37.4656 57.1271 37.6903 57.1271 37.9676Z" fill="#F9CF77"/>
<path d="M72.2907 33.0479C72.2907 33.1588 72.199 33.2487 72.0858 33.2487C71.9726 33.2487 71.8809 33.1588 71.8809 33.0479C71.8809 32.937 71.9726 32.847 72.0858 32.847C72.199 32.847 72.2907 32.937 72.2907 33.0479Z" fill="#F9CF77"/>
<path d="M97.4956 64.4743C97.4956 64.6407 97.358 64.7755 97.1882 64.7755C97.0185 64.7755 96.8809 64.6407 96.8809 64.4743C96.8809 64.308 97.0185 64.1731 97.1882 64.1731C97.358 64.1731 97.4956 64.308 97.4956 64.4743Z" fill="#F9CF77"/>
<path d="M64.5042 29.8349C64.5042 30.0567 64.3207 30.2365 64.0944 30.2365C63.8681 30.2365 63.6846 30.0567 63.6846 29.8349C63.6846 29.6131 63.8681 29.4333 64.0944 29.4333C64.3207 29.4333 64.5042 29.6131 64.5042 29.8349Z" fill="#F9CF77"/>
<path d="M88.6842 74.5147C88.6842 74.792 88.4549 75.0167 88.172 75.0167C87.889 75.0167 87.6597 74.792 87.6597 74.5147C87.6597 74.2375 87.889 74.0127 88.172 74.0127C88.4549 74.0127 88.6842 74.2375 88.6842 74.5147Z" fill="#F9CF77"/>
<path d="M72.2908 69.5949C72.2908 69.8167 72.1074 69.9965 71.881 69.9965C71.6547 69.9965 71.4712 69.8167 71.4712 69.5949C71.4712 69.3731 71.6547 69.1933 71.881 69.1933C72.1074 69.1933 72.2908 69.3731 72.2908 69.5949Z" fill="#F9CF77"/>
<path d="M79.4627 64.5747C79.4627 64.7965 79.2792 64.9763 79.0529 64.9763C78.8266 64.9763 78.6431 64.7965 78.6431 64.5747C78.6431 64.3529 78.8266 64.1731 79.0529 64.1731C79.2792 64.1731 79.4627 64.3529 79.4627 64.5747Z" fill="#F9CF77"/>
<path d="M93.9876 38.3883C94.0916 38.432 94.1397 38.55 94.095 38.652C94.0504 38.754 93.9299 38.8012 93.826 38.7576C93.722 38.7139 93.6739 38.5959 93.7185 38.4939C93.7631 38.3919 93.8836 38.3447 93.9876 38.3883Z" fill="#F9CF77"/>
<path d="M100.567 36.3454C100.827 36.4545 100.947 36.7497 100.835 37.0046C100.724 37.2595 100.423 37.3777 100.163 37.2685C99.9026 37.1594 99.7823 36.8643 99.8939 36.6093C100.006 36.3544 100.307 36.2362 100.567 36.3454Z" fill="#F9CF77"/>
<path d="M97.9422 40.0498C98.0461 40.0935 98.0943 40.2115 98.0496 40.3135C98.005 40.4155 97.8845 40.4627 97.7805 40.4191C97.6766 40.3754 97.6285 40.2574 97.6731 40.1554C97.7177 40.0534 97.8382 40.0061 97.9422 40.0498Z" fill="#F9CF77"/>
<path d="M106.512 114.777C106.512 115.109 106.237 115.379 105.897 115.379C105.558 115.379 105.283 115.109 105.283 114.777C105.283 114.444 105.558 114.174 105.897 114.174C106.237 114.174 106.512 114.444 106.512 114.777Z" fill="#F9CF77"/>
<path d="M109.996 119.395C109.996 119.617 109.812 119.797 109.586 119.797C109.36 119.797 109.176 119.617 109.176 119.395C109.176 119.173 109.36 118.994 109.586 118.994C109.812 118.994 109.996 119.173 109.996 119.395Z" fill="#F9CF77"/>
<path d="M105.693 118.592C105.693 118.703 105.601 118.793 105.488 118.793C105.374 118.793 105.283 118.703 105.283 118.592C105.283 118.481 105.374 118.391 105.488 118.391C105.601 118.391 105.693 118.481 105.693 118.592Z" fill="#F9CF77"/>
</g>
<path d="M104.463 81.6433C104.463 80.7561 105.197 80.0369 106.103 80.0369H142.168C143.074 80.0369 143.807 80.7561 143.807 81.6433V103.331C143.807 104.218 143.074 104.937 142.168 104.937H106.103C105.197 104.937 104.463 104.218 104.463 103.331V81.6433Z" fill="url(#paint4_linear)"/>
<path fill-rule="evenodd" clip-rule="evenodd" d="M142.168 80.2377H106.103C105.311 80.2377 104.668 80.867 104.668 81.6433V103.331C104.668 104.107 105.311 104.736 106.103 104.736H142.168C142.96 104.736 143.603 104.107 143.603 103.331V81.6433C143.603 80.867 142.96 80.2377 142.168 80.2377ZM106.103 80.0369C105.197 80.0369 104.463 80.7561 104.463 81.6433V103.331C104.463 104.218 105.197 104.937 106.103 104.937H142.168C143.074 104.937 143.807 104.218 143.807 103.331V81.6433C143.807 80.7561 143.074 80.0369 142.168 80.0369H106.103Z" fill="url(#paint5_linear)"/>
<path opacity="0.4" d="M5.89795 119.797C5.89795 118.91 6.63191 118.19 7.53729 118.19H43.6027C44.5081 118.19 45.242 118.91 45.242 119.797V141.484C45.242 142.371 44.5081 143.09 43.6027 143.09H7.53729C6.63191 143.09 5.89795 142.371 5.89795 141.484V119.797Z" fill="url(#paint6_linear)"/>
<path opacity="0.4" fill-rule="evenodd" clip-rule="evenodd" d="M43.6027 118.391H7.53729C6.74508 118.391 6.10287 119.02 6.10287 119.797V141.484C6.10287 142.26 6.74508 142.89 7.53729 142.89H43.6027C44.3949 142.89 45.0371 142.26 45.0371 141.484V119.797C45.0371 119.02 44.3949 118.391 43.6027 118.391ZM7.53729 118.19C6.63191 118.19 5.89795 118.91 5.89795 119.797V141.484C5.89795 142.371 6.63191 143.09 7.53729 143.09H43.6027C44.5081 143.09 45.242 142.371 45.242 141.484V119.797C45.242 118.91 44.5081 118.19 43.6027 118.19H7.53729Z" fill="url(#paint7_linear)"/>
<path d="M38.4419 130.267C38.4419 130.046 38.2584 129.866 38.0321 129.866H14.4511C14.2248 129.866 14.0413 130.046 14.0413 130.267V132.878C14.0413 133.045 13.9353 133.195 13.7754 133.254L13.0482 133.521C12.5683 133.698 12.2504 134.147 12.2504 134.649V136.484C12.2504 136.706 12.4339 136.886 12.6602 136.886L13.5936 136.886C13.5936 135.553 14.696 134.473 16.056 134.473C17.416 134.473 18.5185 135.553 18.5185 136.886V137.361C18.5185 137.583 18.702 137.763 18.9283 137.763H27.6153C27.784 137.763 27.921 137.629 27.9215 137.464L27.9234 136.881C27.9276 135.55 29.0304 134.473 30.3892 134.473C31.7514 134.473 32.8556 135.555 32.8551 136.89L32.8549 137.464C32.8549 137.629 32.9915 137.763 33.1601 137.763H38.4798C38.7062 137.763 38.8896 137.583 38.8896 137.361V137.287C38.8896 137.065 38.7062 136.886 38.4798 136.886H38.4624C38.4511 136.886 38.4419 136.877 38.4419 136.866V130.267Z" fill="#FF505F"/>
<path d="M38.4526 125.62C38.4526 123.846 36.9847 122.407 35.174 122.407H16.511C15.1529 122.407 14.052 123.486 14.052 124.817V128.806C14.052 129.028 14.2355 129.208 14.4618 129.208H38.0428C38.2691 129.208 38.4526 129.028 38.4526 128.806V125.62Z" fill="#FF505F"/>
<path fill-rule="evenodd" clip-rule="evenodd" d="M19.4246 124.125C19.4246 123.903 19.6081 123.723 19.8344 123.723H23.2676C23.494 123.723 23.6775 123.903 23.6775 124.125V125.954C23.6775 126.176 23.494 126.356 23.2676 126.356H19.8344C19.6081 126.356 19.4246 126.176 19.4246 125.954V124.125ZM18.9769 125.954C18.9769 126.176 18.7934 126.356 18.567 126.356H15.4684C15.242 126.356 15.0591 126.176 15.0699 125.954C15.0829 125.687 15.1108 125.332 15.1705 125.04C15.2743 124.531 15.4473 124.065 15.8351 123.785C15.8952 123.742 15.9693 123.723 16.0438 123.723H18.567C18.7934 123.723 18.9769 123.903 18.9769 124.125V125.954ZM28.1547 124.125C28.1547 123.903 27.9712 123.723 27.7448 123.723H24.535C24.3087 123.723 24.1252 123.903 24.1252 124.125V125.954C24.1252 126.176 24.3087 126.356 24.535 126.356H27.7448C27.9712 126.356 28.1547 126.176 28.1547 125.954V124.125ZM28.6024 124.125C28.6024 123.903 28.7859 123.723 29.0122 123.723H32.4454C32.6718 123.723 32.8553 123.903 32.8553 124.125V125.954C32.8553 126.176 32.6718 126.356 32.4454 126.356H29.0122C28.7859 126.356 28.6024 126.176 28.6024 125.954V124.125ZM35.9779 123.762C35.9252 123.736 35.8665 123.723 35.8074 123.723H33.7128C33.4865 123.723 33.303 123.903 33.303 124.125V125.954C33.303 126.176 33.4865 126.356 33.7128 126.356H36.9227C37.149 126.356 37.3325 126.176 37.3325 125.954V125.917C37.3325 124.975 36.7812 124.159 35.9779 123.762Z" fill="#E9E8E7"/>
<path d="M32.8555 131.145C32.8555 130.923 32.672 130.743 32.4456 130.743H29.012C28.7856 130.743 28.6021 130.923 28.6021 131.145V132.974C28.6021 133.196 28.7856 133.376 29.012 133.376H32.4456C32.672 133.376 32.8555 133.196 32.8555 132.974V131.145Z" fill="#E9E8E7"/>
<path d="M28.1553 131.145C28.1553 130.923 27.9718 130.743 27.7454 130.743H24.5356C24.3093 130.743 24.1258 130.923 24.1258 131.145V132.974C24.1258 133.196 24.3093 133.376 24.5356 133.376H27.7454C27.9718 133.376 28.1553 133.196 28.1553 132.974V131.145Z" fill="#E9E8E7"/>
<path d="M23.6777 131.145C23.6777 130.923 23.4942 130.743 23.2679 130.743H19.8342C19.6079 130.743 19.4244 130.923 19.4244 131.145V132.974C19.4244 133.196 19.6079 133.376 19.8342 133.376H23.2679C23.4942 133.376 23.6777 133.196 23.6777 132.974V131.145Z" fill="#E9E8E7"/>
<path d="M18.7529 130.926C18.7529 130.704 18.5694 130.524 18.3431 130.524H15.1333C14.907 130.524 14.7235 130.704 14.7235 130.926V132.535C14.7235 132.757 14.907 132.937 15.1333 132.937H18.3431C18.5694 132.937 18.7529 132.757 18.7529 132.535V130.926Z" fill="#E9E8E7"/>
<path fill-rule="evenodd" clip-rule="evenodd" d="M30.393 138.202C29.6512 138.202 29.0498 137.613 29.0498 136.886C29.0498 136.159 29.6512 135.569 30.393 135.569C31.1348 135.569 31.7361 136.159 31.7361 136.886C31.7361 137.613 31.1348 138.202 30.393 138.202ZM30.393 138.86C29.2803 138.86 28.3782 137.976 28.3782 136.886C28.3782 135.795 29.2803 134.911 30.393 134.911C31.5057 134.911 32.4077 135.795 32.4077 136.886C32.4077 137.976 31.5057 138.86 30.393 138.86Z" fill="#505565"/>
<path fill-rule="evenodd" clip-rule="evenodd" d="M16.0668 138.202C15.325 138.202 14.7237 137.613 14.7237 136.886C14.7237 136.159 15.325 135.569 16.0668 135.569C16.8086 135.569 17.41 136.159 17.41 136.886C17.41 137.613 16.8086 138.202 16.0668 138.202ZM16.0668 138.86C14.9541 138.86 14.0521 137.976 14.0521 136.886C14.0521 135.795 14.9541 134.911 16.0668 134.911C17.1795 134.911 18.0815 135.795 18.0815 136.886C18.0815 137.976 17.1795 138.86 16.0668 138.86Z" fill="#505565"/>
<path d="M15.3951 136.886C15.3951 137.249 15.6958 137.544 16.0667 137.544C16.4376 137.544 16.7383 137.249 16.7383 136.886C16.7383 136.522 16.4376 136.228 16.0667 136.228C15.6958 136.228 15.3951 136.522 15.3951 136.886Z" fill="#505565"/>
<path d="M29.7213 136.886C29.7213 137.249 30.022 137.544 30.3929 137.544C30.7638 137.544 31.0645 137.249 31.0645 136.886C31.0645 136.522 30.7638 136.228 30.3929 136.228C30.022 136.228 29.7213 136.522 29.7213 136.886Z" fill="#505565"/>
<path d="M104.463 44.293C104.463 43.4058 105.197 42.6866 106.103 42.6866H142.168C143.074 42.6866 143.807 43.4058 143.807 44.293V65.9803C143.807 66.8675 143.074 67.5868 142.168 67.5868H106.103C105.197 67.5868 104.463 66.8675 104.463 65.9803V44.293Z" fill="url(#paint8_linear)"/>
<path fill-rule="evenodd" clip-rule="evenodd" d="M142.168 42.8874H106.103C105.311 42.8874 104.668 43.5167 104.668 44.293V65.9803C104.668 66.7566 105.311 67.386 106.103 67.386H142.168C142.96 67.386 143.603 66.7566 143.603 65.9803V44.293C143.603 43.5167 142.96 42.8874 142.168 42.8874ZM106.103 42.6866C105.197 42.6866 104.463 43.4058 104.463 44.293V65.9803C104.463 66.8675 105.197 67.5868 106.103 67.5868H142.168C143.074 67.5868 143.807 66.8675 143.807 65.9803V44.293C143.807 43.4058 143.074 42.6866 142.168 42.6866H106.103Z" fill="url(#paint9_linear)"/>
<path fill-rule="evenodd" clip-rule="evenodd" d="M118.902 52.2631C119.183 52.6797 119.065 53.2402 118.64 53.515L115.24 55.7128L118.65 57.9785C119.071 58.2586 119.181 58.8205 118.896 59.2336C118.61 59.6466 118.036 59.7544 117.615 59.4743L113.064 56.4503C112.809 56.281 112.658 55.9983 112.66 55.6967C112.662 55.395 112.817 55.1143 113.074 54.9481L117.625 52.0064C118.05 51.7316 118.622 51.8466 118.902 52.2631Z" fill="#FAFAFC"/>
<path fill-rule="evenodd" clip-rule="evenodd" d="M129.308 59.224C129.027 58.8074 129.145 58.2469 129.57 57.9721L132.97 55.7743L129.56 53.5086C129.139 53.2285 129.029 52.6666 129.314 52.2535C129.6 51.8405 130.174 51.7327 130.595 52.0128L135.146 55.0368C135.4 55.2061 135.552 55.4888 135.55 55.7904C135.548 56.0921 135.393 56.3729 135.136 56.539L130.585 59.4807C130.16 59.7555 129.588 59.6406 129.308 59.224Z" fill="#FAFAFC"/>
<path fill-rule="evenodd" clip-rule="evenodd" d="M128.027 48.4115C128.478 48.642 128.654 49.1877 128.419 49.6303L122.08 61.5617C121.844 62.0043 121.288 62.1763 120.836 61.9459C120.384 61.7154 120.209 61.1697 120.444 60.7271L126.783 48.7957C127.018 48.3531 127.575 48.181 128.027 48.4115Z" fill="#FAFAFC"/>
<path d="M47.7012 44.293C47.7012 43.4058 48.4351 42.6866 49.3405 42.6866H85.4059C86.3113 42.6866 87.0453 43.4058 87.0453 44.293V65.9803C87.0453 66.8675 86.3113 67.5868 85.4059 67.5868H49.3405C48.4351 67.5868 47.7012 66.8675 47.7012 65.9803V44.293Z" fill="url(#paint10_linear)"/>
<path fill-rule="evenodd" clip-rule="evenodd" d="M85.4059 42.8874H49.3405C48.5483 42.8874 47.9061 43.5167 47.9061 44.293V65.9803C47.9061 66.7566 48.5483 67.386 49.3405 67.386H85.4059C86.1982 67.386 86.8404 66.7566 86.8404 65.9803V44.293C86.8404 43.5167 86.1982 42.8874 85.4059 42.8874ZM49.3405 42.6866C48.4351 42.6866 47.7012 43.4058 47.7012 44.293V65.9803C47.7012 66.8675 48.4351 67.5868 49.3405 67.5868H85.4059C86.3113 67.5868 87.0453 66.8675 87.0453 65.9803V44.293C87.0453 43.4058 86.3113 42.6866 85.4059 42.6866H49.3405Z" fill="url(#paint11_linear)"/>
<path opacity="0.9" d="M53.0288 51.6225C53.0288 51.1234 53.4417 50.7189 53.9509 50.7189H58.664C59.1733 50.7189 59.5862 51.1234 59.5862 51.6225C59.5862 52.1216 59.1733 52.5262 58.664 52.5262H53.9509C53.4417 52.5262 53.0288 52.1216 53.0288 51.6225Z" fill="#F9CF77"/>
<path opacity="0.9" d="M61.2256 51.6225C61.2256 51.1234 61.6384 50.7189 62.1477 50.7189H75.0575C75.5668 50.7189 75.9796 51.1234 75.9796 51.6225C75.9796 52.1216 75.5668 52.5262 75.0575 52.5262H62.1477C61.6384 52.5262 61.2256 52.1216 61.2256 51.6225Z" fill="white"/>
<path opacity="0.9" d="M53.0288 55.2371C53.0288 54.738 53.4417 54.3334 53.9509 54.3334H56.0001C56.5094 54.3334 56.9222 54.738 56.9222 55.2371C56.9222 55.7361 56.5094 56.1407 56.0001 56.1407H53.9509C53.4417 56.1407 53.0288 55.7361 53.0288 55.2371Z" fill="#F9CF77"/>
<path opacity="0.9" d="M58.3564 55.2371C58.3564 54.738 58.7693 54.3334 59.2786 54.3334H61.3278C61.837 54.3334 62.2499 54.738 62.2499 55.2371C62.2499 55.7361 61.837 56.1407 61.3278 56.1407H59.2786C58.7693 56.1407 58.3564 55.7361 58.3564 55.2371Z" fill="#79D3FB"/>
<path opacity="0.9" d="M63.6846 55.2371C63.6846 54.738 64.0974 54.3334 64.6067 54.3334H67.0657C67.575 54.3334 67.9878 54.738 67.9878 55.2371C67.9878 55.7361 67.575 56.1407 67.0657 56.1407H64.6067C64.0974 56.1407 63.6846 55.7361 63.6846 55.2371Z" fill="white"/>
<path opacity="0.9" d="M69.627 55.2371C69.627 54.738 70.0398 54.3334 70.5491 54.3334H78.3359C78.8452 54.3334 79.2581 54.738 79.2581 55.2371C79.2581 55.7361 78.8452 56.1407 78.3359 56.1407H70.5491C70.0398 56.1407 69.627 55.7361 69.627 55.2371Z" fill="white"/>
<path opacity="0.9" d="M53.0288 58.8516C53.0288 58.3526 53.4417 57.948 53.9509 57.948H67.0656C67.5749 57.948 67.9878 58.3526 67.9878 58.8516C67.9878 59.3507 67.5749 59.7553 67.0656 59.7553H53.9509C53.4417 59.7553 53.0288 59.3507 53.0288 58.8516Z" fill="#F9CF77"/>
<path opacity="0.9" d="M69.4224 58.8516C69.4224 58.3526 69.8352 57.948 70.3445 57.948H72.5986C73.1079 57.948 73.5207 58.3526 73.5207 58.8516C73.5207 59.3507 73.1079 59.7553 72.5986 59.7553H70.3445C69.8352 59.7553 69.4224 59.3507 69.4224 58.8516Z" fill="white"/>
<path d="M5.89795 79.0328C5.89795 78.1456 6.63191 77.4263 7.53729 77.4263H43.6027C44.5081 77.4263 45.2421 78.1456 45.2421 79.0328V100.72C45.2421 101.607 44.5081 102.327 43.6027 102.327H7.53729C6.63191 102.327 5.89795 101.607 5.89795 100.72V79.0328Z" fill="url(#paint12_linear)"/>
<path fill-rule="evenodd" clip-rule="evenodd" d="M43.6027 77.6271H7.53729C6.74508 77.6271 6.10287 78.2565 6.10287 79.0328V100.72C6.10287 101.496 6.74508 102.126 7.53729 102.126H43.6027C44.3949 102.126 45.0371 101.496 45.0371 100.72V79.0328C45.0371 78.2565 44.3949 77.6271 43.6027 77.6271ZM7.53729 77.4263C6.63191 77.4263 5.89795 78.1456 5.89795 79.0328V100.72C5.89795 101.607 6.63191 102.327 7.53729 102.327H43.6027C44.5081 102.327 45.2421 101.607 45.2421 100.72V79.0328C45.2421 78.1456 44.5081 77.4263 43.6027 77.4263H7.53729Z" fill="url(#paint13_linear)"/>
<g opacity="0.9">
<path d="M21.062 81.2417C21.062 80.7981 21.429 80.4385 21.8817 80.4385H29.2587C29.7114 80.4385 30.0784 80.7981 30.0784 81.2417V85.2579C30.0784 85.7015 29.7114 86.0611 29.2587 86.0611H21.8817C21.429 86.0611 21.062 85.7015 21.062 85.2579V81.2417Z" fill="#F9CF77"/>
<path d="M13.6851 94.2942C13.6851 93.8506 14.052 93.491 14.5047 93.491H21.8817C22.3344 93.491 22.7014 93.8506 22.7014 94.2942V98.3104C22.7014 98.754 22.3344 99.1136 21.8817 99.1136H14.5047C14.052 99.1136 13.6851 98.754 13.6851 98.3104V94.2942Z" fill="#F9CF77"/>
<path d="M28.439 94.2942C28.439 93.8506 28.8059 93.491 29.2586 93.491H36.6357C37.0883 93.491 37.4553 93.8506 37.4553 94.2942V98.3104C37.4553 98.754 37.0883 99.1136 36.6357 99.1136H29.2586C28.8059 99.1136 28.439 98.754 28.439 98.3104V94.2942Z" fill="#F9CF77"/>
<path fill-rule="evenodd" clip-rule="evenodd" d="M24.648 89.5752V86.061H26.4923V89.5752H32.9472C33.4564 89.5752 33.8693 89.9797 33.8693 90.4788V93.4909H32.025V91.3825H19.1152V93.4909H17.271V90.4788C17.271 89.9797 17.6838 89.5752 18.1931 89.5752H24.648Z" fill="white"/>
<path d="M22.666 91.0716C22.3459 90.7579 22.3459 90.2493 22.666 89.9356L25.0156 87.6331C25.3357 87.3194 25.8547 87.3194 26.1748 87.6331L28.5244 89.9356C28.8445 90.2493 28.8445 90.7579 28.5244 91.0716L26.1748 93.3741C25.8547 93.6878 25.3357 93.6878 25.0156 93.3741L22.666 91.0716Z" fill="#79D3FB"/>
</g>
<g opacity="0.9">
<path opacity="0.9" fill-rule="evenodd" clip-rule="evenodd" d="M109.688 85.1575C109.688 84.6584 110.101 84.2538 110.611 84.2538H137.455C137.964 84.2538 138.377 84.6584 138.377 85.1575V99.1964C138.377 99.6955 137.964 100.1 137.455 100.1H132.823C132.314 100.1 131.901 99.6955 131.901 99.1964V96.523H128.45C127.94 96.523 127.527 96.1184 127.527 95.6193V92.0104H126.091C125.582 92.0104 125.169 91.6058 125.169 91.1068V88.7426C125.169 88.2435 125.582 87.8389 126.091 87.8389C126.6 87.8389 127.013 88.2435 127.013 88.7426V90.2031H128.45C128.959 90.2031 129.372 90.6077 129.372 91.1068V94.7157H132.823C133.333 94.7157 133.746 95.1203 133.746 95.6193V98.2928H136.533V86.0611H131.73V87.1183H133.167C133.676 87.1183 134.089 87.5229 134.089 88.022V90.2805C134.089 90.7795 133.676 91.1841 133.167 91.1841C132.657 91.1841 132.244 90.7795 132.244 90.2805V88.9256H130.808C130.299 88.9256 129.886 88.521 129.886 88.022V86.0611H122.682V92.2761C122.682 92.7751 122.269 93.1797 121.76 93.1797H115.242C114.733 93.1797 114.32 92.7751 114.32 92.2761C114.32 91.777 114.733 91.3724 115.242 91.3724H120.838V86.0611H110.611C110.101 86.0611 109.688 85.6565 109.688 85.1575ZM109.688 88.6715C109.688 88.1724 110.101 87.7678 110.611 87.7678H116.957C117.466 87.7678 117.879 88.1724 117.879 88.6715C117.879 89.1705 117.466 89.5751 116.957 89.5751H111.533V94.8589H123.647C124.156 94.8589 124.569 95.2634 124.569 95.7625V98.3479H127.935C128.444 98.3479 128.857 98.7524 128.857 99.2515C128.857 99.7505 128.444 100.155 127.935 100.155H114.985C114.475 100.155 114.062 99.7505 114.062 99.2515C114.062 98.7524 114.475 98.3479 114.985 98.3479H122.725V96.6661H111.533V99.6156C111.533 100.115 111.12 100.519 110.611 100.519C110.101 100.519 109.688 100.115 109.688 99.6156V88.6715Z" fill="white"/>
<path fill-rule="evenodd" clip-rule="evenodd" d="M108.465 87.2659H108.152V86.6635H108.465V87.2659ZM109.717 87.2659H109.091V86.6635H109.717V87.2659ZM110.969 87.2659H110.343V86.6635H110.969V87.2659ZM112.222 87.2659H111.596V86.6635H112.222V87.2659ZM113.474 87.2659H112.848V86.6635H113.474V87.2659ZM114.726 87.2659H114.1V86.6635H114.726V87.2659ZM115.979 87.2659H115.352V86.6635H115.979V87.2659ZM117.231 87.2659H116.605V86.6635H117.231V87.2659ZM118.483 87.2659H117.857V86.6635H118.483V87.2659ZM119.422 87.2659H119.109V86.6635H119.73V87.2492H119.422V87.2659ZM119.115 88.3871V87.8182H119.73V88.3871H119.115ZM119.115 89.525V88.9561H119.73V89.525H119.115ZM112.64 90.0773H113.271V90.6797H112.947V90.6711H112.64V90.0773ZM113.918 90.0773H114.566V90.6797H113.918V90.0773ZM115.213 90.0773H115.861V90.6797H115.213V90.0773ZM116.508 90.0773H117.156V90.6797H116.508V90.0773ZM117.803 90.0773H118.451V90.6797H117.803V90.0773ZM119.099 90.0773H119.422V90.094H119.73V90.6797H119.099V90.0773ZM112.64 91.8416V91.2564H113.254V91.8416H112.64ZM112.64 93.0122V92.4269H113.254V93.0122H112.64ZM113.246 94.1913H112.64V93.5975H112.947V93.5889H113.246V93.5975H113.254V93.8901H113.246V94.1913ZM114.444 94.1913H113.845V93.5889H114.444V94.1913ZM115.642 94.1913H115.043V93.5889H115.642V94.1913ZM116.84 94.1913H116.241V93.5889H116.84V94.1913ZM118.037 94.1913H117.439V93.5889H118.037V94.1913ZM119.235 94.1913H118.636V93.5889H119.235V94.1913ZM120.433 94.1913H119.834V93.5889H120.433V94.1913ZM121.631 94.1913H121.032V93.5889H121.631V94.1913ZM122.829 94.1913H122.23V93.5889H122.829V94.1913ZM124.026 94.1913H123.428V93.5889H124.026V94.1913ZM125.224 94.1913H124.625V93.5889H125.224V94.1913ZM126.123 94.1913H125.823V94.1837H125.815V93.8901H125.823V93.5889H126.43V94.1837H126.123V94.1913ZM125.815 95.358V94.7708H126.43V95.358H125.815ZM125.815 96.5322V95.9451H126.43V96.5322H125.815ZM126.398 97.7142H125.815V97.1194H126.123V97.1118H126.398V97.1194H126.43V97.413H126.398V97.7142ZM127.5 97.7142H126.949V97.1118H127.5V97.7142ZM128.601 97.7142H128.05V97.1118H128.601V97.7142ZM129.703 97.7142H129.152V97.1118H129.703V97.7142ZM130.529 97.7142H130.253V97.7137H130.221V97.413H130.253V97.1118H130.836V97.7137H130.529V97.7142ZM130.221 98.9164V98.3151H130.836V98.9164H130.221ZM130.221 100.119V99.5178H130.836V100.119H130.221ZM130.829 101.323H130.221V100.721H130.529V100.72H130.829V100.721H130.836V101.021H130.829V101.323Z" fill="#F9CF77"/>
<path d="M109.381 86.9648C109.381 87.4638 108.969 87.8684 108.459 87.8684C107.95 87.8684 107.537 87.4638 107.537 86.9648C107.537 86.4657 107.95 86.0612 108.459 86.0612C108.969 86.0612 109.381 86.4657 109.381 86.9648Z" fill="#FF505F"/>
<path d="M131.512 100.821C131.512 101.32 131.099 101.724 130.59 101.724C130.081 101.724 129.668 101.32 129.668 100.821C129.668 100.321 130.081 99.9169 130.59 99.9169C131.099 99.9169 131.512 100.321 131.512 100.821Z" fill="#FF505F"/>
</g>
<path opacity="0.7" d="M104.463 43.6906L68.0728 92.2598L142.988 67.5868H106.102C105.197 67.5868 104.463 66.8675 104.463 65.9803V43.6906Z" fill="url(#paint14_linear)"/>
<path opacity="0.7" d="M68.0724 92.2598L48.3422 67.5851C47.9754 67.5052 47.7012 67.1845 47.7012 66.801V66.7835L48.3422 67.5851C48.3998 67.5977 48.4597 67.6043 48.5212 67.6043L86.226 67.5871C86.3128 67.5871 86.3965 67.5738 86.475 67.5492L87.0453 66.7835C87.0453 67.1419 86.8058 67.4457 86.475 67.5492L68.0724 92.2598Z" fill="url(#paint15_linear)"/>
<path opacity="0.7" d="M68.0731 92.2598L45.0214 102.072C44.8718 102.228 44.6588 102.326 44.4224 102.326L45.0214 102.072C45.1583 101.928 45.242 101.735 45.242 101.523V78.2296C45.242 78.1095 45.2152 77.9956 45.167 77.8934L44.4224 77.4263C44.7526 77.4263 45.0371 77.6177 45.167 77.8934L68.0731 92.2598Z" fill="url(#paint16_linear)"/>
<path opacity="0.7" d="M45.2419 142.087L68.0732 92.2598L7.12744 118.19H43.6025C44.5079 118.19 45.2419 118.91 45.2419 119.797V142.087Z" fill="url(#paint17_linear)"/>
<path opacity="0.7" d="M68.0728 92.2599L104.789 80.1992C104.926 80.0973 105.097 80.0369 105.283 80.0369L104.789 80.1992C104.591 80.3458 104.463 80.5783 104.463 80.8401V104.134C104.463 104.389 104.585 104.617 104.774 104.764L105.283 104.937C105.091 104.937 104.914 104.872 104.774 104.764L68.0728 92.2599Z" fill="url(#paint18_linear)"/>
<path d="M111.71 140.832C110.072 140.814 110.051 141.79 109.776 142.561C109.501 143.331 108.126 145.408 108.126 145.408C108.126 145.408 110.312 147.437 110.613 147.523C110.914 147.61 111.571 145.37 113.576 144.952C114.367 144.788 115.763 144.789 117.139 144.789C119.253 144.79 121.314 144.791 121.043 144.192C120.595 143.203 113.349 140.85 111.71 140.832Z" fill="#FFCBAF"/>
<path d="M132.837 147.204C131.451 146.348 130.911 147.168 130.265 147.683C129.618 148.199 127.337 149.262 127.337 149.262C127.337 149.262 128.115 152.112 128.325 152.34C128.418 152.441 128.818 152.187 129.402 151.933C130.132 151.615 131.151 151.298 132.223 151.672C134.154 152.346 138.842 155.931 138.989 154.858C139.137 153.786 134.224 148.061 132.837 147.204Z" fill="#FFCBAF"/>
<mask id="mask2" mask-type="alpha" maskUnits="userSpaceOnUse" x="85" y="141" width="28" height="22">
<path d="M108.792 144.908C108.792 144.908 101.87 156.371 101.392 156.141C100.913 155.911 96.366 142.433 95.6407 141.269C94.9155 140.106 85.0728 144.343 85.0728 144.343C85.0728 144.343 90.8324 154.445 95.7862 159.27C100.74 164.095 103.633 161.875 105.053 160.461C106.473 159.047 112.388 146.984 112.388 146.984C112.388 146.984 111.082 144.843 108.792 144.908Z" fill="url(#paint19_linear)"/>
</mask>
<g mask="url(#mask2)">
<path d="M108.792 144.908C108.792 144.908 101.87 156.371 101.392 156.141C100.913 155.911 96.366 142.433 95.6407 141.269C94.9155 140.106 85.0728 144.343 85.0728 144.343C85.0728 144.343 90.8324 154.445 95.7862 159.27C100.74 164.095 103.633 161.875 105.053 160.461C106.473 159.047 112.388 146.984 112.388 146.984C112.388 146.984 111.082 144.843 108.792 144.908Z" fill="url(#paint20_linear)"/>
<g opacity="0.25" filter="url(#filter4_f)">
<path d="M112.099 154.06C110.628 153.211 107.697 149.515 102.727 143.98C97.7563 138.445 96.3497 138.725 95.56 138.391C95.56 138.391 85.4218 142.493 85.4431 142.869C85.4648 143.245 90.2408 147.455 92.2633 148.622C93.7626 149.486 101.065 155.171 106.337 158.18C106.741 158.41 107.169 158.65 107.591 158.885C109.478 159.941 111.71 160.236 113.816 159.71C114.545 159.531 115.292 159.343 115.938 159.17C120.822 157.862 127.032 155.496 128.361 154.991C128.513 154.936 128.621 154.802 128.641 154.644C128.744 153.359 128.021 151.863 127.649 151.188C127.531 150.978 127.282 150.872 127.045 150.932C121.329 152.388 119.395 152.46 115.869 153.193C113.641 153.656 112.661 154.383 112.099 154.06Z" fill="#232735"/>
</g>
</g>
<path d="M112.521 153.221C110.988 152.484 107.778 149.018 102.393 143.869C97.0069 138.721 95.6262 139.105 94.8129 138.831C94.8129 138.831 85.0225 143.677 85.0729 144.05C85.1238 144.424 90.2129 148.266 92.32 149.278C93.8821 150.028 101.605 155.152 107.095 157.759C107.516 157.959 107.961 158.166 108.4 158.369C110.364 159.28 112.613 159.409 114.672 158.727C115.384 158.495 116.114 158.252 116.746 158.031C121.514 156.363 127.522 153.54 128.808 152.937C128.955 152.871 129.053 152.729 129.06 152.57C129.062 151.281 128.226 149.844 127.802 149.199C127.668 148.998 127.412 148.911 127.18 148.988C121.593 150.866 119.671 151.083 116.212 152.076C114.026 152.703 113.106 153.502 112.521 153.221Z" fill="#304D67"/>
<path d="M104.209 135.253C102.279 132.696 99.3471 130.007 99.3471 130.007L96.5991 132.413C96.5991 132.413 100.113 136.313 101.943 138.356C103.773 140.399 106.576 144.773 106.394 145.85C106.212 146.927 105.657 148.621 105.675 149.016C105.693 149.394 106.218 148.768 106.503 148.223C106.743 147.765 107.041 147.194 107.305 147.348C109.237 148.473 109.649 151.61 109.649 151.61C109.649 151.61 110.633 150.358 110.505 148.634C110.402 147.235 109.632 145.077 108.665 143.448C107.697 141.819 106.138 137.81 104.209 135.253Z" fill="#F5B998"/>
<path d="M72.2161 103.978C72.0227 102.863 71.7595 99.9135 72.124 99.0865C72.489 98.2596 72.8733 97.688 73.0349 96.7234C73.1979 95.7591 73.5062 94.7019 73.1892 94.464C72.8725 94.2264 72.5133 95.1591 72.3847 95.5697C72.2567 95.9802 72.1782 96.5152 72.0008 96.4402C71.823 96.3647 70.8879 94.9758 70.3541 94.2359C69.573 93.1541 68.1437 91.918 67.9531 92.0818C67.7711 92.2383 67.6085 93.4293 68.2596 95.8842C68.5973 97.1571 69.0096 98.3455 69.2017 99.0123C69.4442 99.8536 69.7909 100.657 69.5083 103.327C69.226 105.997 69.2408 110.859 69.5024 112.417C69.7637 113.974 71.9781 116.72 74.2127 119.063L76.5941 115.577C76.5941 115.577 74.2708 113.198 73.6324 112.256C72.9941 111.313 72.409 105.094 72.2161 103.978Z" fill="#F5B998"/>
<path d="M88.9581 120.041C86.709 119.08 83.4577 118.447 80.6325 117.207C77.8074 115.966 76.891 114.711 76.891 114.711C75.2283 115.659 72.5854 119.279 72.5854 119.279C73.4453 120.075 74.2787 120.734 74.9904 121.25C76.7994 122.561 76.9227 122.961 76.675 125.047C76.4272 127.132 76.2248 130.217 76.7994 132.948C77.9604 138.467 81.4097 143.492 81.4097 143.492C81.4097 143.492 84.9665 146.225 89.8833 145.986C94.7989 145.746 97.5171 140.575 97.7952 138.957C94.2864 137.005 92.405 134.097 92.1897 130.209L96.0189 133.383C97.3786 132.36 98.9645 130.829 100.262 129.636C100.262 129.636 94.1126 122.244 88.9581 120.041Z" fill="#FF505F"/>
<mask id="mask3" mask-type="alpha" maskUnits="userSpaceOnUse" x="82" y="114" width="8" height="8">
<path d="M88.3235 118.118C88.9243 117.277 89.9155 116.14 89.9155 116.14L85.2438 114.777C85.2438 114.777 85.3903 117.786 83.7717 118.609C83.3356 118.831 82.0229 118.553 82.1335 119.71C82.1878 120.277 82.8565 120.84 83.6684 121.24C84.5147 121.657 85.5167 121.898 86.1411 121.782C87.3636 121.554 87.1009 119.83 88.3235 118.118Z" fill="#E0AA8E"/>
</mask>
<g mask="url(#mask3)">
<path d="M88.3235 118.118C88.9243 117.277 89.9155 116.14 89.9155 116.14L85.2438 114.777C85.2438 114.777 85.3903 117.786 83.7717 118.609C83.3356 118.831 82.0229 118.553 82.1335 119.71C82.1878 120.277 82.8565 120.84 83.6684 121.24C84.5147 121.657 85.5167 121.898 86.1411 121.782C87.3636 121.554 87.1009 119.83 88.3235 118.118Z" fill="#E0AA8E"/>
<g opacity="0.3" filter="url(#filter5_f)">
<path d="M87.3859 106.382C87.3859 106.382 85.3132 108.131 83.7682 109.826C82.2231 111.521 81.5018 114.528 81.9761 115.74C82.4503 116.952 84.5397 117.204 85.1577 117.278C86.943 117.493 91.9151 116.919 93.4823 115.788C95.0495 114.655 96.5647 111.912 95.7546 109.787C94.9451 107.663 91.1165 103.769 87.3859 106.382Z" fill="#232735"/>
</g>
</g>
<path d="M89.3376 106.329C89.3376 106.329 86.9645 107.663 85.12 109.04C83.2754 110.418 81.9862 113.237 82.2178 114.515C82.4494 115.793 84.4524 116.427 85.0448 116.615C86.7563 117.157 91.7493 117.517 93.5069 116.696C95.2645 115.875 97.2823 113.462 96.8972 111.226C96.5128 108.989 93.5057 104.456 89.3376 106.329Z" fill="#F5B998"/>
<path d="M94.8191 106.497C94.5888 106.064 94.454 105.596 94.422 105.09C94.3482 103.919 94.9542 103.5 94.9542 103.5C94.9542 103.5 92.9405 102.226 90.9868 102.367C89.664 102.463 87.6495 103.602 87.1409 105.123C86.7505 106.291 87.1632 107.26 88.0612 108.037C89.2196 109.04 92.8435 110.416 92.6888 111.072C92.5339 111.728 91.2276 111.271 90.9456 112.141C90.8245 112.515 92.0667 114.053 91.753 115.068C91.3364 116.417 89.4421 117.526 89.4421 117.526C89.4421 117.526 91.188 117.898 92.4519 117.463C93.9708 116.94 97.6388 114.31 97.7792 111.469C97.8702 109.625 96.348 108.535 95.3003 107.223C95.1163 106.992 94.9532 106.75 94.8191 106.497Z" fill="#DE7800"/>
<path d="M91.8123 111.965L90.7334 112.954C93.9096 115.925 93.6237 117.039 93.6237 117.039L94.943 116.21C94.943 116.21 94.9301 115.744 94.4549 114.913C93.5744 113.373 91.8123 111.965 91.8123 111.965Z" fill="#505565"/>
<path d="M86.6187 106.963C85.738 106.807 84.1308 107.679 83.1843 109.004C83.1843 109.004 83.1015 109.581 83.2003 109.862C83.3007 110.147 83.5378 110.275 83.8392 110.442C84.254 110.673 88.1136 113.023 88.7144 113.299C89.4671 113.644 89.9607 113.976 90.5523 113.511C91.1279 113.057 92.1663 111.803 92.4995 111.373C92.8773 110.886 92.681 110.18 92.3146 109.889C91.9511 109.599 87.4931 107.118 86.6187 106.963Z" fill="#505565"/>
<path d="M86.4543 107.089C85.6741 106.893 84.6451 107.859 84.6451 107.859C84.1463 108.286 84.0082 108.553 84.1871 108.617C84.4563 108.713 85.5866 107.518 86.377 107.616C87.1614 107.713 88.6749 108.47 88.6149 108.211C88.5551 107.954 87.2321 107.284 86.4543 107.089Z" fill="#9797CA"/>
<path d="M90.2206 108.347C88.1958 107.145 86.1229 106.443 86.1229 106.443C85.2672 106.315 82.5659 108.661 83.2583 109.206C83.9595 109.759 88.7298 112.511 89.6999 112.724C90.0333 112.797 90.3925 112.589 90.7585 112.219C91.4591 111.51 92.2944 110.543 92.3167 110.305C92.3503 109.947 92.2895 109.576 90.2206 108.347Z" fill="#232735"/>
<path fill-rule="evenodd" clip-rule="evenodd" d="M139.149 157.082C138.992 157.074 138.846 157.076 138.648 156.963C138.495 156.876 138.359 156.761 138.248 156.626C138.003 156.341 136.965 155.202 135.259 154.197C134.072 153.499 132.799 152.91 131.977 152.554C131.784 152.472 131.639 152.307 131.586 152.108C131.532 151.908 131.574 151.695 131.7 151.53C132.069 151.046 132.433 150.345 132.259 149.608C131.911 148.133 131.014 147.908 130.383 147.949C130.249 147.96 130.12 147.896 130.05 147.782C129.981 147.669 129.983 147.527 130.056 147.416C130.177 147.225 130.324 147.022 130.495 146.853C130.992 146.359 132.62 145.326 133.805 144.713C133.805 144.713 134.474 145.369 135.186 146.569C135.885 147.747 136.109 148.321 137.053 149.57C137.997 150.819 138.936 152.187 139.491 153.254C140.503 155.201 140.379 156.38 140.379 156.38L139.149 157.082Z" fill="#FF505F"/>
<path fill-rule="evenodd" clip-rule="evenodd" d="M139.521 156.833C139.454 156.83 139.447 155.579 138.783 154.222C137.631 151.87 136.427 150.48 135.297 148.985C134.472 147.895 133.538 146.659 132.661 145.347C132.661 145.347 133.867 144.624 134.176 144.465C134.176 144.465 134.845 145.12 135.557 146.32C136.256 147.498 136.48 148.072 137.424 149.321C138.368 150.57 139.307 151.938 139.862 153.005C140.874 154.952 140.75 156.132 140.75 156.132L139.521 156.833Z" fill="#F9CF77"/>
<path fill-rule="evenodd" clip-rule="evenodd" d="M121.67 144.709C121.527 144.817 121.404 144.925 121.096 144.947C120.976 144.957 120.856 144.952 120.738 144.93C120.425 144.881 118.896 144.662 116.938 144.982C115.623 145.197 114.316 145.545 113.478 145.789C113.277 145.849 113.06 145.816 112.887 145.7C112.714 145.583 112.605 145.395 112.59 145.19C112.548 144.608 112.363 143.876 111.766 143.444C110.57 142.577 109.766 142.95 109.324 143.366C109.229 143.459 109.088 143.491 108.96 143.448C108.833 143.406 108.741 143.296 108.724 143.165C108.692 142.955 108.672 142.722 108.688 142.498C108.737 141.825 109.274 140.055 109.755 138.87C109.755 138.87 110.671 138.941 111.97 139.388C113.245 139.827 113.781 140.112 115.282 140.452C116.784 140.792 118.359 141.223 119.456 141.669C121.457 142.482 122.126 143.431 122.126 143.431L121.67 144.709Z" fill="#FF505F"/>
<path fill-rule="evenodd" clip-rule="evenodd" d="M121.754 144.563C121.704 144.601 120.892 143.681 119.528 143.089C117.162 142.063 115.377 141.779 113.579 141.373C112.268 141.077 110.782 140.741 109.289 140.313C109.289 140.313 109.715 139.033 109.84 138.724C109.84 138.724 110.756 138.795 112.055 139.242C113.33 139.681 113.865 139.966 115.367 140.306C116.869 140.646 118.444 141.076 119.541 141.522C121.542 142.336 122.211 143.284 122.211 143.284L121.754 144.563Z" fill="#F9CF77"/>
<defs>
<filter id="filter0_i" x="0.97998" y="0.717712" width="166.04" height="160.831" filterUnits="userSpaceOnUse" color-interpolation-filters="sRGB">
<feFlood flood-opacity="0" result="BackgroundImageFix"/>
<feBlend mode="normal" in="SourceGraphic" in2="BackgroundImageFix" result="shape"/>
<feColorMatrix in="SourceAlpha" type="matrix" values="0 0 0 0 0 0 0 0 0 0 0 0 0 0 0 0 0 0 127 0" result="hardAlpha"/>
<feOffset dx="6" dy="4"/>
<feGaussianBlur stdDeviation="10"/>
<feComposite in2="hardAlpha" operator="arithmetic" k2="-1" k3="1"/>
<feColorMatrix type="matrix" values="0 0 0 0 0 0 0 0 0 0 0 0 0 0 0 0 0 0 0.08 0"/>
<feBlend mode="normal" in2="shape" result="effect1_innerShadow"/>
</filter>
<filter id="filter1_i" x="8.47949" y="15.9874" width="151.096" height="148.267" filterUnits="userSpaceOnUse" color-interpolation-filters="sRGB">
<feFlood flood-opacity="0" result="BackgroundImageFix"/>
<feBlend mode="normal" in="SourceGraphic" in2="BackgroundImageFix" result="shape"/>
<feColorMatrix in="SourceAlpha" type="matrix" values="0 0 0 0 0 0 0 0 0 0 0 0 0 0 0 0 0 0 127 0" result="hardAlpha"/>
<feOffset dx="10" dy="10"/>
<feGaussianBlur stdDeviation="17.5"/>
<feComposite in2="hardAlpha" operator="arithmetic" k2="-1" k3="1"/>
<feColorMatrix type="matrix" values="0 0 0 0 0 0 0 0 0 0 0 0 0 0 0 0 0 0 0.4 0"/>
<feBlend mode="normal" in2="shape" result="effect1_innerShadow"/>
</filter>
<filter id="filter2_i" x="19.4224" y="20.5977" width="131.165" height="124.674" filterUnits="userSpaceOnUse" color-interpolation-filters="sRGB">
<feFlood flood-opacity="0" result="BackgroundImageFix"/>
<feBlend mode="normal" in="SourceGraphic" in2="BackgroundImageFix" result="shape"/>
<feColorMatrix in="SourceAlpha" type="matrix" values="0 0 0 0 0 0 0 0 0 0 0 0 0 0 0 0 0 0 127 0" result="hardAlpha"/>
<feOffset dx="10" dy="10"/>
<feGaussianBlur stdDeviation="17.5"/>
<feComposite in2="hardAlpha" operator="arithmetic" k2="-1" k3="1"/>
<feColorMatrix type="matrix" values="0 0 0 0 0 0 0 0 0 0 0 0 0 0 0 0 0 0 0.4 0"/>
<feBlend mode="normal" in2="shape" result="effect1_innerShadow"/>
</filter>
<filter id="filter3_d" x="8.02881" y="53.2094" width="100.199" height="98.6763" filterUnits="userSpaceOnUse" color-interpolation-filters="sRGB">
<feFlood flood-opacity="0" result="BackgroundImageFix"/>
<feColorMatrix in="SourceAlpha" type="matrix" values="0 0 0 0 0 0 0 0 0 0 0 0 0 0 0 0 0 0 127 0"/>
<feOffset/>
<feGaussianBlur stdDeviation="10"/>
<feColorMatrix type="matrix" values="0 0 0 0 0.478431 0 0 0 0 0.831373 0 0 0 0 0.984314 0 0 0 0.2 0"/>
<feBlend mode="normal" in2="BackgroundImageFix" result="effect1_dropShadow"/>
<feBlend mode="normal" in="SourceGraphic" in2="effect1_dropShadow" result="shape"/>
</filter>
<filter id="filter4_f" x="65.4429" y="118.391" width="83.208" height="61.5739" filterUnits="userSpaceOnUse" color-interpolation-filters="sRGB">
<feFlood flood-opacity="0" result="BackgroundImageFix"/>
<feBlend mode="normal" in="SourceGraphic" in2="BackgroundImageFix" result="shape"/>
<feGaussianBlur stdDeviation="10" result="effect1_foregroundBlur"/>
</filter>
<filter id="filter5_f" x="77.832" y="101.51" width="22.1483" height="19.8123" filterUnits="userSpaceOnUse" color-interpolation-filters="sRGB">
<feFlood flood-opacity="0" result="BackgroundImageFix"/>
<feBlend mode="normal" in="SourceGraphic" in2="BackgroundImageFix" result="shape"/>
<feGaussianBlur stdDeviation="2" result="effect1_foregroundBlur"/>
</filter>
<linearGradient id="paint0_linear" x1="81.0001" y1="0.717712" x2="81.0001" y2="157.549" gradientUnits="userSpaceOnUse">
<stop stop-color="white"/>
<stop offset="1" stop-color="#F0F4FD"/>
</linearGradient>
<linearGradient id="paint1_linear" x1="68.295" y1="130.138" x2="45.3806" y2="58.5775" gradientUnits="userSpaceOnUse">
<stop stop-color="#74A6F2"/>
<stop offset="1" stop-color="#7BD5FB"/>
</linearGradient>
<radialGradient id="paint2_radial" cx="0" cy="0" r="1" gradientUnits="userSpaceOnUse" gradientTransform="translate(58.3566 101.222) rotate(-133.463) scale(30.1805 27.7452)">
<stop stop-color="#8BD9FA" stop-opacity="0.42"/>
<stop offset="1" stop-color="#8BD9FA" stop-opacity="0"/>
</radialGradient>
<radialGradient id="paint3_angular" cx="0" cy="0" r="1" gradientUnits="userSpaceOnUse" gradientTransform="translate(37.5576 54.8355) rotate(90) scale(3.11253 3.17622)">
<stop stop-color="#EBC87E"/>
<stop offset="1" stop-color="#EBC87E" stop-opacity="0"/>
</radialGradient>
<linearGradient id="paint4_linear" x1="124.135" y1="80.0369" x2="124.135" y2="104.937" gradientUnits="userSpaceOnUse">
<stop stop-color="white" stop-opacity="0.58"/>
<stop offset="1" stop-color="white" stop-opacity="0.26"/>
</linearGradient>
<linearGradient id="paint5_linear" x1="124.135" y1="80.0369" x2="124.135" y2="104.937" gradientUnits="userSpaceOnUse">
<stop stop-color="white" stop-opacity="0.58"/>
<stop offset="1" stop-color="white" stop-opacity="0.26"/>
</linearGradient>
<linearGradient id="paint6_linear" x1="25.57" y1="118.19" x2="25.57" y2="143.09" gradientUnits="userSpaceOnUse">
<stop stop-color="white" stop-opacity="0.58"/>
<stop offset="1" stop-color="white" stop-opacity="0.26"/>
</linearGradient>
<linearGradient id="paint7_linear" x1="25.57" y1="118.19" x2="25.57" y2="143.09" gradientUnits="userSpaceOnUse">
<stop stop-color="white" stop-opacity="0.58"/>
<stop offset="1" stop-color="white" stop-opacity="0.26"/>
</linearGradient>
<linearGradient id="paint8_linear" x1="124.135" y1="42.6866" x2="124.135" y2="67.5868" gradientUnits="userSpaceOnUse">
<stop stop-color="white" stop-opacity="0.58"/>
<stop offset="1" stop-color="white" stop-opacity="0.26"/>
</linearGradient>
<linearGradient id="paint9_linear" x1="124.135" y1="42.6866" x2="124.135" y2="67.5868" gradientUnits="userSpaceOnUse">
<stop stop-color="white" stop-opacity="0.58"/>
<stop offset="1" stop-color="white" stop-opacity="0.26"/>
</linearGradient>
<linearGradient id="paint10_linear" x1="67.3732" y1="42.6866" x2="67.3732" y2="67.5868" gradientUnits="userSpaceOnUse">
<stop stop-color="white" stop-opacity="0.58"/>
<stop offset="1" stop-color="white" stop-opacity="0.26"/>
</linearGradient>
<linearGradient id="paint11_linear" x1="67.3732" y1="42.6866" x2="67.3732" y2="67.5868" gradientUnits="userSpaceOnUse">
<stop stop-color="white" stop-opacity="0.58"/>
<stop offset="1" stop-color="white" stop-opacity="0.26"/>
</linearGradient>
<linearGradient id="paint12_linear" x1="25.57" y1="77.4263" x2="25.57" y2="102.327" gradientUnits="userSpaceOnUse">
<stop stop-color="white" stop-opacity="0.58"/>
<stop offset="1" stop-color="white" stop-opacity="0.26"/>
</linearGradient>
<linearGradient id="paint13_linear" x1="25.57" y1="77.4263" x2="25.57" y2="102.327" gradientUnits="userSpaceOnUse">
<stop stop-color="white" stop-opacity="0.58"/>
<stop offset="1" stop-color="white" stop-opacity="0.26"/>
</linearGradient>
<linearGradient id="paint14_linear" x1="66.9633" y1="93.6918" x2="116.255" y2="57.1926" gradientUnits="userSpaceOnUse">
<stop offset="0.0149197" stop-color="white"/>
<stop offset="0.996816" stop-color="white" stop-opacity="0"/>
</linearGradient>
<linearGradient id="paint15_linear" x1="70.8568" y1="92.2861" x2="70.4535" y2="67.687" gradientUnits="userSpaceOnUse">
<stop stop-color="white"/>
<stop offset="1" stop-color="white" stop-opacity="0"/>
</linearGradient>
<linearGradient id="paint16_linear" x1="67.9878" y1="90.6796" x2="39.5059" y2="91.7251" gradientUnits="userSpaceOnUse">
<stop stop-color="white"/>
<stop offset="1" stop-color="white" stop-opacity="0"/>
</linearGradient>
<linearGradient id="paint17_linear" x1="67.9878" y1="92.2861" x2="35.8531" y2="129.88" gradientUnits="userSpaceOnUse">
<stop stop-color="white"/>
<stop offset="1" stop-color="white" stop-opacity="0"/>
</linearGradient>
<linearGradient id="paint18_linear" x1="67.9879" y1="89.8765" x2="106.613" y2="91.2356" gradientUnits="userSpaceOnUse">
<stop stop-color="white"/>
<stop offset="1" stop-color="#F9F9F9" stop-opacity="0"/>
</linearGradient>
<linearGradient id="paint19_linear" x1="98.7948" y1="159.048" x2="88.8423" y2="142.76" gradientUnits="userSpaceOnUse">
<stop stop-color="#E04A59"/>
<stop offset="1" stop-color="#FF505F"/>
</linearGradient>
<linearGradient id="paint20_linear" x1="98.7948" y1="159.048" x2="88.8423" y2="142.76" gradientUnits="userSpaceOnUse">
<stop stop-color="#1D3A4E"/>
<stop offset="1" stop-color="#244461"/>
</linearGradient>
</defs>
</svg>
