<svg width="190" height="189" viewBox="0 0 190 189" fill="none" xmlns="http://www.w3.org/2000/svg">
<g filter="url(#filter0_i)">
<path d="M172.331 90.8154C172.331 133.395 137.106 167.913 93.6553 167.913C50.2041 167.913 14.98 133.395 14.98 90.8154C14.98 48.2356 50.2041 13.7178 93.6553 13.7178C137.106 13.7178 172.331 48.2356 172.331 90.8154Z" fill="url(#paint0_linear)"/>
</g>
<path opacity="0.6" d="M161.36 97.089C161.36 134.629 130.306 165.06 91.9981 165.06C53.6903 165.06 22.6357 134.629 22.6357 97.089C22.6357 59.5494 53.6903 29.1176 91.9981 29.1176C130.306 29.1176 161.36 59.5494 161.36 97.089Z" fill="white"/>
<g filter="url(#filter1_i)">
<path d="M161.078 96.7022C161.078 134.242 130.024 164.674 91.7158 164.674C53.4081 164.674 22.3535 134.242 22.3535 96.7022C22.3535 59.1627 53.4081 28.7308 91.7158 28.7308C130.024 28.7308 161.078 59.1627 161.078 96.7022Z" fill="#6B73EB"/>
</g>
<path opacity="0.05" d="M152.241 90.032C152.241 121.166 125.574 146.406 92.6771 146.406C59.7806 146.406 33.1128 121.166 33.1128 90.032C33.1128 58.8978 59.7806 33.6586 92.6771 33.6586C125.574 33.6586 152.241 58.8978 152.241 90.032Z" fill="white"/>
<g filter="url(#filter2_i)">
<path d="M152.241 89.6372C152.241 120.771 125.574 146.011 92.6771 146.011C59.7806 146.011 33.1128 120.771 33.1128 89.6372C33.1128 58.5029 59.7806 33.2637 92.6771 33.2637C125.574 33.2637 152.241 58.5029 152.241 89.6372Z" fill="#2F218B"/>
</g>
<mask id="mask0" mask-type="alpha" maskUnits="userSpaceOnUse" x="33" y="33" width="120" height="114">
<path d="M152.241 89.6372C152.241 120.771 125.574 146.011 92.6771 146.011C59.7806 146.011 33.1128 120.771 33.1128 89.6372C33.1128 58.5029 59.7806 33.2637 92.6771 33.2637C125.574 33.2637 152.241 58.5029 152.241 89.6372Z" fill="#3F2EA9"/>
</mask>
<g mask="url(#mask0)">
<g filter="url(#filter3_d)">
<mask id="mask1" mask-type="alpha" maskUnits="userSpaceOnUse" x="75" y="90" width="60" height="59">
<path d="M134.247 119.808C134.247 135.738 120.997 148.653 104.653 148.653C88.3091 148.653 75.0596 135.738 75.0596 119.808C75.0596 103.877 88.3091 90.9626 104.653 90.9626C120.997 90.9626 134.247 103.877 134.247 119.808Z" fill="#74A6F2"/>
</mask>
<g mask="url(#mask1)">
<path d="M134.247 119.808C134.247 135.738 120.997 148.653 104.653 148.653C88.3091 148.653 75.0596 135.738 75.0596 119.808C75.0596 103.877 88.3091 90.9626 104.653 90.9626C120.997 90.9626 134.247 103.877 134.247 119.808Z" fill="url(#paint1_linear)"/>
<path d="M88.4786 137.765C78.3504 138.506 74.2951 151.359 71.0429 154.977L47.6684 116.482L99.6548 85.6982C103.089 87.9222 110.877 92.3029 108.735 95.9009C106.03 100.444 99.7823 96.8802 89.5847 102.371C79.0766 108.028 73.9859 120.232 71.6242 125.053C76.3311 118.552 84.5895 109.981 95.5844 105.917C106.579 101.853 116.34 103.675 123.153 100.642C128.603 98.2155 130.26 86.4801 130.407 80.9157L139.68 81.1425C138.321 92.8924 140.176 116.2 129.421 120.466C118.666 124.732 105.007 118.267 89.7753 120.105C77.59 121.575 66.575 129.407 62.5906 133.139L65.5388 137.994C68.7125 135.83 77.2206 129.677 86.8976 128.827C100.169 127.661 113.273 135.047 125.887 132.858C135.747 131.146 143.1 117.655 150.16 107.903C142.377 120.424 133.824 140.321 116.275 143.159C104.016 145.141 97.2256 137.126 88.4786 137.765Z" fill="url(#paint2_radial)"/>
</g>
</g>
<path d="M40.7686 84.6951C40.7686 84.9677 40.5431 85.1887 40.2649 85.1887C39.9867 85.1887 39.7612 84.9677 39.7612 84.6951C39.7612 84.4225 39.9867 84.2015 40.2649 84.2015C40.5431 84.2015 40.7686 84.4225 40.7686 84.6951Z" fill="#F9CF77"/>
<path fill-rule="evenodd" clip-rule="evenodd" d="M54.0643 67.0264C54.0654 66.9931 54.066 66.9596 54.066 66.9261C54.066 66.8925 54.0654 66.859 54.0643 66.8257L53.863 66.8321C53.864 66.8633 53.8645 66.8946 53.8645 66.9261C53.8645 66.9575 53.864 66.9888 53.863 67.02L54.0643 67.0264ZM54.0247 67.4248L53.8259 67.3928C53.8155 67.4548 53.8032 67.5161 53.7888 67.5766L53.985 67.6213C54.0004 67.5565 54.0136 67.491 54.0247 67.4248ZM53.8666 68.0043L53.6781 67.9348C53.6555 67.9934 53.6311 68.0511 53.6048 68.1078L53.7883 68.1894C53.8164 68.1287 53.8425 68.067 53.8666 68.0043ZM53.5954 68.5422L53.4245 68.4378C53.3907 68.4909 53.3552 68.5428 53.3181 68.5935L53.4817 68.7087C53.5214 68.6545 53.5594 68.599 53.5954 68.5422ZM53.2224 69.018L53.0754 68.883C53.0318 68.9286 52.9867 68.9728 52.9401 69.0155L53.0779 69.1596C53.1276 69.114 53.1758 69.0667 53.2224 69.018ZM52.7622 69.4137L52.6448 69.2534C52.593 69.2898 52.54 69.3245 52.4859 69.3576L52.5924 69.5252C52.6503 69.4898 52.707 69.4526 52.7622 69.4137ZM52.2323 69.7142L52.1491 69.5344C52.0912 69.5601 52.0323 69.5841 51.9725 69.6061L52.0435 69.7909C52.1075 69.7673 52.1704 69.7417 52.2323 69.7142ZM51.6526 69.907L51.607 69.7146C51.5452 69.7287 51.4827 69.7408 51.4195 69.751L51.4521 69.9458C51.5197 69.935 51.5865 69.922 51.6526 69.907ZM51.0455 69.9847L51.0391 69.7873C51.0072 69.7883 50.9753 69.7888 50.9431 69.7888C50.911 69.7888 50.8791 69.7883 50.8472 69.7873L50.8407 69.9847C50.8747 69.9857 50.9089 69.9863 50.9431 69.9863C50.9774 69.9863 51.0116 69.9857 51.0455 69.9847ZM50.4342 69.9458L50.4668 69.751C50.4036 69.7408 50.3411 69.7287 50.2793 69.7146L50.2337 69.907C50.2998 69.922 50.3666 69.935 50.4342 69.9458ZM49.8428 69.7909L49.9138 69.6061C49.854 69.5841 49.7951 69.5601 49.7372 69.5344L49.654 69.7142C49.7159 69.7417 49.7788 69.7673 49.8428 69.7909ZM49.2939 69.5252L49.4004 69.3576C49.3463 69.3245 49.2933 69.2898 49.2415 69.2534L49.1241 69.4137C49.1793 69.4526 49.236 69.4898 49.2939 69.5252ZM48.8084 69.1596L48.9462 69.0155C48.8996 68.9728 48.8545 68.9286 48.8109 68.883L48.6639 69.018C48.7105 69.0667 48.7587 69.114 48.8084 69.1596ZM48.4046 68.7087L48.5682 68.5935C48.5311 68.5428 48.4956 68.4909 48.4618 68.4378L48.2909 68.5422C48.3269 68.599 48.3649 68.6545 48.4046 68.7087ZM48.098 68.1894L48.2815 68.1078C48.2552 68.0511 48.2308 67.9934 48.2082 67.9348L48.0197 68.0043C48.0438 68.067 48.0699 68.1287 48.098 68.1894ZM47.9012 67.6213L48.0975 67.5766C48.0831 67.5161 48.0708 67.4548 48.0604 67.3928L47.8616 67.4248C47.8727 67.491 47.8859 67.5565 47.9012 67.6213ZM47.822 67.0264C47.8209 66.9931 47.8203 66.9596 47.8203 66.9261C47.8203 66.8925 47.8209 66.859 47.822 66.8257L48.0233 66.8321C48.0223 66.8633 48.0218 66.8946 48.0218 66.9261C48.0218 66.9575 48.0223 66.9888 48.0233 67.02L47.822 67.0264ZM47.8616 66.4273L48.0604 66.4593C48.0708 66.3973 48.0831 66.336 48.0975 66.2755L47.9012 66.2308C47.8859 66.2956 47.8727 66.3611 47.8616 66.4273ZM48.0197 65.8478L48.2082 65.9173C48.2308 65.8587 48.2552 65.801 48.2815 65.7443L48.098 65.6627C48.0699 65.7234 48.0438 65.7851 48.0197 65.8478ZM48.2909 65.3099L48.4618 65.4143C48.4956 65.3612 48.5311 65.3093 48.5682 65.2586L48.4046 65.1434C48.3649 65.1976 48.3269 65.2531 48.2909 65.3099ZM48.6639 64.8341L48.8109 64.9691C48.8545 64.9235 48.8996 64.8793 48.9462 64.8366L48.8084 64.6925C48.7587 64.7382 48.7105 64.7854 48.6639 64.8341ZM49.1241 64.4384L49.2415 64.5988C49.2933 64.5624 49.3463 64.5276 49.4004 64.4945L49.2939 64.3269C49.236 64.3623 49.1793 64.3995 49.1241 64.4384ZM49.654 64.138L49.7372 64.3177C49.7951 64.292 49.854 64.2681 49.9138 64.246L49.8428 64.0612C49.7788 64.0848 49.7159 64.1104 49.654 64.138ZM50.2337 63.9452L50.2793 64.1375C50.3411 64.1234 50.4036 64.1113 50.4668 64.1011L50.4342 63.9063C50.3666 63.9171 50.2998 63.9301 50.2337 63.9452ZM50.8407 63.8675L50.8472 64.0648C50.8791 64.0638 50.911 64.0633 50.9431 64.0633C50.9753 64.0633 51.0072 64.0638 51.0391 64.0648L51.0455 63.8675C51.0116 63.8664 50.9774 63.8658 50.9431 63.8658C50.9089 63.8658 50.8747 63.8664 50.8407 63.8675ZM51.4521 63.9063L51.4195 64.1011C51.4827 64.1113 51.5452 64.1234 51.607 64.1375L51.6526 63.9452C51.5865 63.9301 51.5197 63.9171 51.4521 63.9063ZM52.0435 64.0612L51.9725 64.246C52.0323 64.2681 52.0912 64.292 52.1491 64.3177L52.2323 64.138C52.1704 64.1104 52.1075 64.0848 52.0435 64.0612ZM52.5924 64.3269L52.4859 64.4945C52.54 64.5276 52.593 64.5624 52.6448 64.5988L52.7622 64.4384C52.707 64.3995 52.6503 64.3623 52.5924 64.3269ZM53.0779 64.6925L52.9401 64.8366C52.9867 64.8793 53.0318 64.9235 53.0754 64.9691L53.2224 64.8341C53.1758 64.7854 53.1276 64.7382 53.0779 64.6925ZM53.4817 65.1434L53.3181 65.2586C53.3552 65.3093 53.3907 65.3612 53.4245 65.4143L53.5954 65.3099C53.5594 65.2531 53.5214 65.1976 53.4817 65.1434ZM53.7883 65.6627L53.6048 65.7443C53.6311 65.801 53.6555 65.8587 53.6781 65.9173L53.8666 65.8478C53.8425 65.7851 53.8164 65.7234 53.7883 65.6627ZM53.985 66.2308L53.7888 66.2755C53.8032 66.336 53.8155 66.3973 53.8259 66.4593L54.0247 66.4273C54.0136 66.3611 54.0004 66.2956 53.985 66.2308Z" fill="url(#paint3_angular)"/>
<path d="M70.1836 50.3417C70.1836 50.6143 69.9581 50.8353 69.68 50.8353C69.4018 50.8353 69.1763 50.6143 69.1763 50.3417C69.1763 50.0691 69.4018 49.8481 69.68 49.8481C69.9581 49.8481 70.1836 50.0691 70.1836 50.3417Z" fill="#F9CF77"/>
<path d="M85.0929 45.5046C85.0929 45.6136 85.0027 45.702 84.8914 45.702C84.7801 45.702 84.6899 45.6136 84.6899 45.5046C84.6899 45.3955 84.7801 45.3071 84.8914 45.3071C85.0027 45.3071 85.0929 45.3955 85.0929 45.5046Z" fill="#F9CF77"/>
<path d="M109.874 76.4028C109.874 76.5664 109.739 76.699 109.572 76.699C109.405 76.699 109.27 76.5664 109.27 76.4028C109.27 76.2393 109.405 76.1067 109.572 76.1067C109.739 76.1067 109.874 76.2393 109.874 76.4028Z" fill="#F9CF77"/>
<path d="M77.4367 42.3457C77.4367 42.5637 77.2563 42.7405 77.0338 42.7405C76.8113 42.7405 76.6309 42.5637 76.6309 42.3457C76.6309 42.1276 76.8113 41.9508 77.0338 41.9508C77.2563 41.9508 77.4367 42.1276 77.4367 42.3457Z" fill="#F9CF77"/>
<path d="M101.21 86.2745C101.21 86.5471 100.985 86.7681 100.707 86.7681C100.429 86.7681 100.203 86.5471 100.203 86.2745C100.203 86.0019 100.429 85.7809 100.707 85.7809C100.985 85.7809 101.21 86.0019 101.21 86.2745Z" fill="#F9CF77"/>
<path d="M85.0925 81.4373C85.0925 81.6554 84.9121 81.8322 84.6896 81.8322C84.467 81.8322 84.2866 81.6554 84.2866 81.4373C84.2866 81.2193 84.467 81.0425 84.6896 81.0425C84.9121 81.0425 85.0925 81.2193 85.0925 81.4373Z" fill="#F9CF77"/>
<path d="M92.1443 76.5016C92.1443 76.7196 91.9639 76.8964 91.7413 76.8964C91.5188 76.8964 91.3384 76.7196 91.3384 76.5016C91.3384 76.2835 91.5188 76.1067 91.7413 76.1067C91.9639 76.1067 92.1443 76.2835 92.1443 76.5016Z" fill="#F9CF77"/>
<path d="M106.425 50.7554C106.527 50.7983 106.575 50.9144 106.531 51.0147C106.487 51.1149 106.368 51.1614 106.266 51.1185C106.164 51.0756 106.117 50.9595 106.161 50.8592C106.204 50.759 106.323 50.7125 106.425 50.7554Z" fill="#F9CF77"/>
<path d="M112.894 48.7467C113.149 48.854 113.268 49.1442 113.158 49.3949C113.048 49.6455 112.752 49.7617 112.496 49.6544C112.241 49.5471 112.123 49.2569 112.232 49.0063C112.342 48.7556 112.638 48.6394 112.894 48.7467Z" fill="#F9CF77"/>
<path d="M110.313 52.389C110.415 52.4319 110.463 52.548 110.419 52.6482C110.375 52.7485 110.257 52.795 110.154 52.752C110.052 52.7091 110.005 52.593 110.049 52.4928C110.093 52.3925 110.211 52.3461 110.313 52.389Z" fill="#F9CF77"/>
<path d="M118.739 125.86C118.739 126.187 118.468 126.452 118.134 126.452C117.8 126.452 117.53 126.187 117.53 125.86C117.53 125.533 117.8 125.268 118.134 125.268C118.468 125.268 118.739 125.533 118.739 125.86Z" fill="#F9CF77"/>
<path d="M122.164 130.401C122.164 130.619 121.983 130.796 121.761 130.796C121.538 130.796 121.358 130.619 121.358 130.401C121.358 130.183 121.538 130.006 121.761 130.006C121.983 130.006 122.164 130.183 122.164 130.401Z" fill="#F9CF77"/>
<path d="M117.933 129.611C117.933 129.72 117.843 129.809 117.731 129.809C117.62 129.809 117.53 129.72 117.53 129.611C117.53 129.502 117.62 129.414 117.731 129.414C117.843 129.414 117.933 129.502 117.933 129.611Z" fill="#F9CF77"/>
</g>
<path opacity="0.7" d="M137.143 151.228L101.364 103.475L175.02 127.734H138.755C137.865 127.734 137.143 128.441 137.143 129.313V151.228Z" fill="url(#paint4_linear)"/>
<path opacity="0.7" d="M101.364 103.475L81.9652 127.735C81.6046 127.814 81.335 128.129 81.335 128.506V128.523L81.9652 127.735C82.0218 127.723 82.0808 127.716 82.1412 127.716L119.212 127.733C119.298 127.733 119.38 127.746 119.457 127.77L120.018 128.523C120.018 128.171 119.782 127.872 119.457 127.77L101.364 103.475Z" fill="url(#paint5_linear)"/>
<path opacity="0.7" d="M101.365 103.475L78.7003 93.8284C78.5532 93.6742 78.3438 93.5778 78.1113 93.5778L78.7003 93.8284C78.8349 93.9696 78.9172 94.1591 78.9172 94.3675V117.27C78.9172 117.388 78.8908 117.5 78.8434 117.6L78.1113 118.059C78.436 118.059 78.7158 117.871 78.8434 117.6L101.365 103.475Z" fill="url(#paint6_linear)"/>
<path opacity="0.7" d="M78.9172 54.4859L101.365 103.475L41.4434 77.9805H77.3055C78.1956 77.9805 78.9172 77.2733 78.9172 76.401V54.4859Z" fill="url(#paint7_linear)"/>
<path opacity="0.7" d="M101.364 103.475L137.463 115.333C137.598 115.433 137.767 115.493 137.949 115.493L137.463 115.333C137.269 115.189 137.143 114.96 137.143 114.703V91.8008C137.143 91.5498 137.263 91.3261 137.449 91.1814L137.949 91.0111C137.76 91.0111 137.586 91.0748 137.449 91.1814L101.364 103.475Z" fill="url(#paint8_linear)"/>
<path d="M51.4565 46.7673C51.4565 45.895 52.177 45.1879 53.0658 45.1879H88.4697C89.3585 45.1879 90.079 45.895 90.079 46.7673V68.0901C90.079 68.9624 89.3585 69.6696 88.4697 69.6696H53.0658C52.177 69.6696 51.4565 68.9624 51.4565 68.0901V46.7673Z" fill="url(#paint9_linear)"/>
<path fill-rule="evenodd" clip-rule="evenodd" d="M88.4697 45.3853H53.0658C52.2881 45.3853 51.6577 46.0041 51.6577 46.7673V68.0901C51.6577 68.8534 52.2881 69.4721 53.0658 69.4721H88.4697C89.2474 69.4721 89.8778 68.8534 89.8778 68.0901V46.7673C89.8778 46.0041 89.2474 45.3853 88.4697 45.3853ZM53.0658 45.1879C52.177 45.1879 51.4565 45.895 51.4565 46.7673V68.0901C51.4565 68.9624 52.177 69.6696 53.0658 69.6696H88.4697C89.3585 69.6696 90.079 68.9624 90.079 68.0901V46.7673C90.079 45.895 89.3585 45.1879 88.4697 45.1879H53.0658Z" fill="url(#paint10_linear)"/>
<path fill-rule="evenodd" clip-rule="evenodd" d="M60.435 52.8774C60.796 52.8927 61.1123 53.1237 61.2366 53.463L63.0191 58.3273L64.0859 60.9429C64.2724 61.4001 64.0529 61.9219 63.5957 62.1084C63.1385 62.2948 62.6167 62.0754 62.4302 61.6182L61.5843 59.5441H58.6794L57.6221 61.6775C57.4028 62.12 56.8664 62.3009 56.424 62.0816C55.9816 61.8623 55.8007 61.326 56.0199 60.8835L57.3188 58.2627L59.5867 53.3932C59.7392 53.0656 60.074 52.8621 60.435 52.8774ZM59.5273 57.756H60.9054L60.2986 56.0999L59.5273 57.756Z" fill="white"/>
<path fill-rule="evenodd" clip-rule="evenodd" d="M67.3706 61.5386C67.3706 62.0323 67.7709 62.4326 68.2646 62.4326H71.1093C71.8448 62.4326 72.6098 62.2363 73.1767 61.6284C73.7321 61.0328 73.953 60.195 73.953 59.2278C73.953 58.102 73.4872 57.3221 72.8738 56.826C72.8151 56.7785 72.7555 56.7341 72.6957 56.6925C72.9571 56.2678 73.0924 55.7587 73.0924 55.2011C73.0924 54.3051 72.6586 53.605 72.0567 53.1555C71.4757 52.7217 70.7442 52.519 70.0527 52.519H68.2646C67.7709 52.519 67.3706 52.9193 67.3706 53.413V61.5386ZM71.0227 57.8832H70.0527C69.559 57.8832 69.1587 57.483 69.1587 56.9892V60.6445H71.1093C71.5436 60.6445 71.7535 60.5328 71.869 60.4089C71.996 60.2727 72.165 59.9552 72.165 59.2278C72.165 58.659 71.9565 58.3838 71.7494 58.2163C71.5307 58.0395 71.2556 57.9413 71.0227 57.8832ZM69.1587 54.3071H70.0527C70.4178 54.3071 70.7592 54.4182 70.9868 54.5882C71.1936 54.7427 71.3044 54.9366 71.3044 55.2011C71.3044 55.5712 71.1859 55.7721 71.0696 55.8829C70.9452 56.0013 70.74 56.0952 70.4427 56.0952H70.0527C69.559 56.0952 69.1587 56.4954 69.1587 56.9892V54.3071Z" fill="white"/>
<path fill-rule="evenodd" clip-rule="evenodd" d="M81.1389 53.9495C80.019 53.9495 78.8144 54.8612 78.8144 56.9892C78.8144 58.105 79.1017 59.0868 79.5495 59.7615C79.9906 60.4261 80.5432 60.7441 81.1389 60.7441C81.6891 60.7441 82.1222 60.6046 82.4376 60.3769C82.7459 60.1543 82.9999 59.8063 83.1325 59.2757C83.2523 58.7966 83.7377 58.5054 84.2167 58.6251C84.6957 58.7449 84.987 59.2303 84.8672 59.7093C84.6423 60.6092 84.1666 61.334 83.4843 61.8266C82.8091 62.3141 81.9906 62.5322 81.1389 62.5322C79.8012 62.5322 78.7445 61.782 78.0597 60.7503C77.3816 59.7286 77.0264 58.3859 77.0264 56.9892C77.0264 54.0921 78.8263 52.1614 81.1389 52.1614C81.8672 52.1614 82.5608 52.401 83.1188 52.7358C83.6681 53.0654 84.1672 53.5365 84.4419 54.0861C84.6627 54.5277 84.4837 55.0647 84.0421 55.2855C83.6004 55.5063 83.0634 55.3273 82.8426 54.8857C82.7597 54.72 82.5436 54.4759 82.1988 54.2691C81.8628 54.0674 81.4835 53.9495 81.1389 53.9495Z" fill="white"/>
<path opacity="0.4" d="M19.9863 92.5421C19.9863 91.6698 20.7079 90.9626 21.5981 90.9626H57.0574C57.9476 90.9626 58.6692 91.6698 58.6692 92.5421V113.865C58.6692 114.737 57.9476 115.444 57.0574 115.444H21.5981C20.708 115.444 19.9863 114.737 19.9863 113.865V92.5421Z" fill="url(#paint11_linear)"/>
<path opacity="0.4" fill-rule="evenodd" clip-rule="evenodd" d="M57.0574 91.1601H21.5981C20.8192 91.1601 20.1878 91.7788 20.1878 92.5421V113.865C20.1878 114.628 20.8192 115.247 21.5981 115.247H57.0574C57.8363 115.247 58.4677 114.628 58.4677 113.865V92.5421C58.4677 91.7788 57.8363 91.1601 57.0574 91.1601ZM21.5981 90.9626C20.7079 90.9626 19.9863 91.6698 19.9863 92.5421V113.865C19.9863 114.737 20.708 115.444 21.5981 115.444H57.0574C57.9476 115.444 58.6692 114.737 58.6692 113.865V92.5421C58.6692 91.6698 57.9476 90.9626 57.0574 90.9626H21.5981Z" fill="url(#paint12_linear)"/>
<path d="M51.9831 102.837C51.9831 102.619 51.8027 102.442 51.5802 102.442H28.3955C28.173 102.442 27.9926 102.619 27.9926 102.837V105.404C27.9926 105.568 27.8884 105.715 27.7311 105.773L27.0162 106.036C26.5444 106.209 26.2318 106.651 26.2318 107.145V108.949C26.2318 109.167 26.4122 109.344 26.6348 109.344L27.5524 109.344C27.5524 108.033 28.6363 106.971 29.9735 106.971C31.3106 106.971 32.3945 108.033 32.3945 109.344V109.812C32.3945 110.03 32.5749 110.206 32.7975 110.206H41.3385C41.5044 110.206 41.639 110.075 41.6395 109.912L41.6414 109.34C41.6455 108.03 42.7298 106.971 44.0658 106.971C45.4051 106.971 46.4907 108.035 46.4902 109.348L46.49 109.912C46.49 110.075 46.6243 110.206 46.7901 110.206H52.0204C52.2429 110.206 52.4233 110.03 52.4233 109.812V109.739C52.4233 109.521 52.2429 109.344 52.0204 109.344H52.0033C51.9922 109.344 51.9831 109.335 51.9831 109.324V102.837Z" fill="#FF505F"/>
<path d="M51.9937 98.2677C51.9937 96.5231 50.5504 95.1088 48.7701 95.1088H30.4208C29.0855 95.1088 28.0031 96.1695 28.0031 97.478V101.4C28.0031 101.618 28.1835 101.795 28.406 101.795H51.5907C51.8132 101.795 51.9937 101.618 51.9937 101.4V98.2677Z" fill="#FF505F"/>
<path fill-rule="evenodd" clip-rule="evenodd" d="M33.2856 96.7977C33.2856 96.5796 33.466 96.4028 33.6886 96.4028H37.0641C37.2866 96.4028 37.467 96.5796 37.467 96.7977V98.5961C37.467 98.8142 37.2866 98.991 37.0641 98.991H33.6886C33.466 98.991 33.2856 98.8142 33.2856 98.5961V96.7977ZM32.8454 98.5961C32.8454 98.8142 32.665 98.991 32.4425 98.991H29.3959C29.1733 98.991 28.9935 98.8142 29.0041 98.5964C29.0169 98.3334 29.0443 97.9845 29.103 97.6969C29.2051 97.1968 29.3752 96.7384 29.7565 96.4637C29.8155 96.4212 29.8884 96.4028 29.9617 96.4028H32.4425C32.665 96.4028 32.8454 96.5796 32.8454 96.7977V98.5961ZM41.869 96.7977C41.869 96.5796 41.6886 96.4028 41.466 96.4028H38.3102C38.0876 96.4028 37.9072 96.5796 37.9072 96.7977V98.5961C37.9072 98.8142 38.0876 98.991 38.3102 98.991H41.466C41.6886 98.991 41.869 98.8142 41.869 98.5961V96.7977ZM42.3092 96.7977C42.3092 96.5796 42.4896 96.4028 42.7121 96.4028H46.0876C46.3102 96.4028 46.4906 96.5796 46.4906 96.7977V98.5961C46.4906 98.8142 46.3102 98.991 46.0876 98.991H42.7121C42.4896 98.991 42.3092 98.8142 42.3092 98.5961V96.7977ZM49.5607 96.4404C49.5089 96.4147 49.4512 96.4028 49.3931 96.4028H47.3337C47.1112 96.4028 46.9308 96.5796 46.9308 96.7977V98.5961C46.9308 98.8142 47.1112 98.991 47.3337 98.991H50.4896C50.7122 98.991 50.8926 98.8142 50.8926 98.5961V98.5596C50.8926 97.6334 50.3505 96.8311 49.5607 96.4404Z" fill="#E9E8E7"/>
<path d="M46.4907 103.7C46.4907 103.481 46.3103 103.305 46.0878 103.305H42.7118C42.4893 103.305 42.3089 103.481 42.3089 103.7V105.498C42.3089 105.716 42.4893 105.893 42.7118 105.893H46.0878C46.3103 105.893 46.4907 105.716 46.4907 105.498V103.7Z" fill="#E9E8E7"/>
<path d="M41.8691 103.7C41.8691 103.481 41.6887 103.305 41.4662 103.305H38.3103C38.0878 103.305 37.9074 103.481 37.9074 103.7V105.498C37.9074 105.716 38.0878 105.893 38.3103 105.893H41.4662C41.6887 105.893 41.8691 105.716 41.8691 105.498V103.7Z" fill="#E9E8E7"/>
<path d="M37.4673 103.7C37.4673 103.481 37.2869 103.305 37.0643 103.305H33.6884C33.4658 103.305 33.2854 103.481 33.2854 103.7V105.498C33.2854 105.716 33.4658 105.893 33.6884 105.893H37.0643C37.2869 105.893 37.4673 105.716 37.4673 105.498V103.7Z" fill="#E9E8E7"/>
<path d="M32.625 103.484C32.625 103.266 32.4446 103.089 32.2221 103.089H29.0662C28.8437 103.089 28.6633 103.266 28.6633 103.484V105.067C28.6633 105.285 28.8437 105.461 29.0662 105.461H32.2221C32.4446 105.461 32.625 105.285 32.625 105.067V103.484Z" fill="#E9E8E7"/>
<path fill-rule="evenodd" clip-rule="evenodd" d="M44.0694 110.638C43.3401 110.638 42.7488 110.059 42.7488 109.344C42.7488 108.629 43.3401 108.05 44.0694 108.05C44.7988 108.05 45.39 108.629 45.39 109.344C45.39 110.059 44.7988 110.638 44.0694 110.638ZM44.0694 111.285C42.9754 111.285 42.0885 110.416 42.0885 109.344C42.0885 108.272 42.9754 107.403 44.0694 107.403C45.1634 107.403 46.0503 108.272 46.0503 109.344C46.0503 110.416 45.1634 111.285 44.0694 111.285Z" fill="#505565"/>
<path fill-rule="evenodd" clip-rule="evenodd" d="M29.9845 110.638C29.2551 110.638 28.6639 110.059 28.6639 109.344C28.6639 108.629 29.2551 108.05 29.9845 108.05C30.7138 108.05 31.305 108.629 31.305 109.344C31.305 110.059 30.7138 110.638 29.9845 110.638ZM29.9845 111.285C28.8905 111.285 28.0036 110.416 28.0036 109.344C28.0036 108.272 28.8905 107.403 29.9845 107.403C31.0785 107.403 31.9653 108.272 31.9653 109.344C31.9653 110.416 31.0785 111.285 29.9845 111.285Z" fill="#505565"/>
<path d="M29.324 109.344C29.324 109.701 29.6196 109.991 29.9842 109.991C30.3489 109.991 30.6445 109.701 30.6445 109.344C30.6445 108.986 30.3489 108.697 29.9842 108.697C29.6196 108.697 29.324 108.986 29.324 109.344Z" fill="#505565"/>
<path d="M43.4094 109.344C43.4094 109.701 43.705 109.991 44.0697 109.991C44.4344 109.991 44.73 109.701 44.73 109.344C44.73 108.986 44.4344 108.697 44.0697 108.697C43.705 108.697 43.4094 108.986 43.4094 109.344Z" fill="#505565"/>
<path d="M111.536 58.2111C111.536 57.3387 112.258 56.6316 113.148 56.6316H148.607C149.497 56.6316 150.219 57.3387 150.219 58.2111V79.5338C150.219 80.4062 149.497 81.1133 148.607 81.1133H113.148C112.258 81.1133 111.536 80.4062 111.536 79.5338V58.2111Z" fill="url(#paint13_linear)"/>
<path fill-rule="evenodd" clip-rule="evenodd" d="M148.607 56.829H113.148C112.369 56.829 111.738 57.4478 111.738 58.2111V79.5338C111.738 80.2971 112.369 80.9159 113.148 80.9159H148.607C149.386 80.9159 150.018 80.2971 150.018 79.5338V58.2111C150.018 57.4478 149.386 56.829 148.607 56.829ZM113.148 56.6316C112.258 56.6316 111.536 57.3387 111.536 58.2111V79.5338C111.536 80.4062 112.258 81.1133 113.148 81.1133H148.607C149.497 81.1133 150.219 80.4062 150.219 79.5338V58.2111C150.219 57.3387 149.497 56.6316 148.607 56.6316H113.148Z" fill="url(#paint14_linear)"/>
<g opacity="0.9">
<path opacity="0.9" fill-rule="evenodd" clip-rule="evenodd" d="M116.673 61.6662C116.673 61.1755 117.079 60.7777 117.58 60.7777H143.973C144.474 60.7777 144.88 61.1755 144.88 61.6662V75.4691C144.88 75.9598 144.474 76.3576 143.973 76.3576H139.42C138.919 76.3576 138.513 75.9598 138.513 75.4691V72.8406H135.119C134.618 72.8406 134.212 72.4429 134.212 71.9522V68.4039H132.8C132.299 68.4039 131.894 68.0061 131.894 67.5155V65.191C131.894 64.7003 132.299 64.3025 132.8 64.3025C133.301 64.3025 133.707 64.7003 133.707 65.191V66.627H135.119C135.62 66.627 136.026 67.0248 136.026 67.5155V71.0637H139.42C139.92 71.0637 140.326 71.4615 140.326 71.9522V74.5807H143.066V62.5546H138.345V63.594H139.757C140.258 63.594 140.663 63.9918 140.663 64.4825V66.7031C140.663 67.1937 140.258 67.5915 139.757 67.5915C139.256 67.5915 138.85 67.1937 138.85 66.7031V65.3709H137.438C136.937 65.3709 136.531 64.9732 136.531 64.4825V62.5546H129.449V68.6651C129.449 69.1558 129.043 69.5535 128.542 69.5535H122.133C121.633 69.5535 121.227 69.1558 121.227 68.6651C121.227 68.1744 121.633 67.7767 122.133 67.7767H127.635V62.5546H117.58C117.079 62.5546 116.673 62.1568 116.673 61.6662ZM116.673 65.1211C116.673 64.6304 117.079 64.2326 117.58 64.2326H123.82C124.321 64.2326 124.726 64.6304 124.726 65.1211C124.726 65.6117 124.321 66.0095 123.82 66.0095H118.487V71.2045H130.397C130.898 71.2045 131.304 71.6023 131.304 72.0929V74.6348H134.613C135.114 74.6348 135.52 75.0326 135.52 75.5233C135.52 76.014 135.114 76.4117 134.613 76.4117H121.88C121.38 76.4117 120.974 76.014 120.974 75.5233C120.974 75.0326 121.38 74.6348 121.88 74.6348H129.49V72.9814H118.487V75.8813C118.487 76.372 118.081 76.7698 117.58 76.7698C117.079 76.7698 116.673 76.372 116.673 75.8813V65.1211Z" fill="white"/>
<path fill-rule="evenodd" clip-rule="evenodd" d="M115.47 63.7392H115.163V63.1469H115.47V63.7392ZM116.702 63.7392H116.086V63.1469H116.702V63.7392ZM117.933 63.7392H117.317V63.1469H117.933V63.7392ZM119.164 63.7392H118.548V63.1469H119.164V63.7392ZM120.395 63.7392H119.78V63.1469H120.395V63.7392ZM121.627 63.7392H121.011V63.1469H121.627V63.7392ZM122.858 63.7392H122.242V63.1469H122.858V63.7392ZM124.089 63.7392H123.473V63.1469H124.089V63.7392ZM125.32 63.7392H124.705V63.1469H125.32V63.7392ZM126.244 63.7392H125.936V63.1469H126.546V63.7227H126.244V63.7392ZM125.941 64.8415V64.2821H126.546V64.8415H125.941ZM125.941 65.9603V65.4009H126.546V65.9603H125.941ZM119.575 66.5032H120.195V67.0955H119.877V67.0871H119.575V66.5032ZM120.832 66.5032H121.469V67.0955H120.832V66.5032ZM122.105 66.5032H122.742V67.0955H122.105V66.5032ZM123.379 66.5032H124.015V67.0955H123.379V66.5032ZM124.652 66.5032H125.289V67.0955H124.652V66.5032ZM125.925 66.5032H126.244V66.5197H126.546V67.0955H125.925V66.5032ZM119.575 68.238V67.6625H120.179V68.238H119.575ZM119.575 69.3888V68.8134H120.179V69.3888H119.575ZM120.171 70.5481H119.575V69.9643H119.877V69.9558H120.171V69.9643H120.179V70.252H120.171V70.5481ZM121.349 70.5481H120.76V69.9558H121.349V70.5481ZM122.527 70.5481H121.938V69.9558H122.527V70.5481ZM123.704 70.5481H123.116V69.9558H123.704V70.5481ZM124.882 70.5481H124.293V69.9558H124.882V70.5481ZM126.06 70.5481H125.471V69.9558H126.06V70.5481ZM127.237 70.5481H126.649V69.9558H127.237V70.5481ZM128.415 70.5481H127.826V69.9558H128.415V70.5481ZM129.593 70.5481H129.004V69.9558H129.593V70.5481ZM130.77 70.5481H130.182V69.9558H130.77V70.5481ZM131.948 70.5481H131.359V69.9558H131.948V70.5481ZM132.831 70.5481H132.537V70.5406H132.529V70.252H132.537V69.9558H133.133V70.5406H132.831V70.5481ZM132.529 71.6952V71.1179H133.133V71.6952H132.529ZM132.529 72.8497V72.2724H133.133V72.8497H132.529ZM133.102 74.0118H132.529V73.427H132.831V73.4195H133.102V73.427H133.133V73.7156H133.102V74.0118ZM134.185 74.0118H133.644V73.4195H134.185V74.0118ZM135.268 74.0118H134.727V73.4195H135.268V74.0118ZM136.351 74.0118H135.81V73.4195H136.351V74.0118ZM137.163 74.0118H136.893V74.0113H136.861V73.7156H136.893V73.4195H137.466V74.0113H137.163V74.0118ZM136.861 75.1939V74.6026H137.466V75.1939H136.861ZM136.861 76.3764V75.7851H137.466V76.3764H136.861ZM137.458 77.5595H136.861V76.9677H137.163V76.9672H137.458V76.9677H137.466V77.2633H137.458V77.5595Z" fill="#F9CF77"/>
<path d="M116.371 63.443C116.371 63.9337 115.965 64.3315 115.465 64.3315C114.964 64.3315 114.558 63.9337 114.558 63.443C114.558 62.9523 114.964 62.5546 115.465 62.5546C115.965 62.5546 116.371 62.9523 116.371 63.443Z" fill="#FF505F"/>
<path d="M138.131 77.0659C138.131 77.5566 137.725 77.9544 137.224 77.9544C136.723 77.9544 136.317 77.5566 136.317 77.0659C136.317 76.5753 136.723 76.1775 137.224 76.1775C137.725 76.1775 138.131 76.5753 138.131 77.0659Z" fill="#FF505F"/>
</g>
<path d="M72.9283 89.353C72.9283 89.353 73.0796 89.9582 72.9283 90.0591C72.777 90.1095 71.9196 89.5043 71.7179 89.5043C71.5161 89.6556 71.4657 89.9582 71.5665 90.1095C72.1213 90.3617 73.9874 91.2191 73.9874 91.2191L72.9283 89.353Z" fill="#FFA96E"/>
<path d="M75.2483 91.1686C75.2483 91.1182 75.2483 91.1182 75.1978 91.0677C74.9457 90.7651 73.4326 88.6974 73.2813 88.5965C73.0796 88.4956 71.3144 88.1426 71.3144 88.1426L69.751 88.4452C69.751 88.4452 70.0031 88.8487 70.4066 88.7982C70.6083 89 70.9614 89.3026 71.5666 89C72.2727 89 72.777 89.353 72.777 89.353C72.777 89.353 73.5839 90.9669 74.0379 91.1686L74.9457 91.5721C74.9961 91.6225 75.097 91.6225 75.1474 91.5721C75.2987 91.5217 75.3996 91.3703 75.3491 91.219L75.2483 91.1686Z" fill="#FFA96E"/>
<path d="M74.8447 90.6643C74.8951 90.6643 74.8951 90.6643 74.9455 90.6643C75.9038 90.9165 77.9716 91.4713 79.8881 91.9756C84.6288 93.186 89.8235 94.7495 91.2861 96.3633C91.6896 96.8172 91.2861 97.372 90.5296 97.4225C88.5122 97.5738 83.6202 97.019 74.3403 91.3199C74.5421 91.1182 74.6934 90.9165 74.8447 90.6643Z" fill="#FFA96E"/>
<path d="M116.1 72.7602C118.369 71.8019 120.942 74.2228 122.253 77.5514C123.564 80.8296 123.867 84.8139 123.917 88.546C123.917 92.2781 123.715 96.0102 124.119 99.7927C124.371 102.113 125.077 104.13 126.489 104.937C127.095 105.29 127.75 105.24 128.355 105.694C129.768 106.702 129.919 110.586 129.011 112.25C128.053 113.914 126.439 114.217 124.976 114.066C123.514 113.864 122.001 113.259 120.538 113.41C117.865 113.662 114.99 116.385 112.67 113.864C111.46 112.603 110.855 110.233 110.754 108.064C110.653 105.845 111.057 103.777 111.46 101.709C112.368 96.7163 113.276 91.7737 114.234 86.7808C115.142 81.7878 116.403 76.2401 119.479 74.4749" fill="#125768"/>
<path d="M110.451 72.6594C108.232 70.8942 105.559 72.5081 104.147 75.4332C102.735 78.3584 102.281 82.3427 102.18 86.1757C102.029 90.0086 102.18 93.9425 101.625 97.6746C101.323 99.9441 100.516 102.365 99.1036 102.718C98.4984 102.869 97.8428 102.617 97.2376 102.869C95.8254 103.474 95.5228 106.753 96.4306 108.82C97.3385 110.838 98.9019 111.746 100.415 112.048C101.877 112.351 103.391 112.25 104.853 112.906C107.526 114.116 110.3 117.848 112.721 116.083C113.982 115.175 114.637 112.956 114.789 110.737C114.94 108.518 114.637 106.198 114.284 103.979C113.528 98.532 112.771 93.0851 112.015 87.6382C111.258 82.1914 112.923 76.1898 109.846 73.315" fill="#3BA5C3"/>
<path d="M109.745 72.9619C107.072 72.0541 105.105 74.4245 104.702 77.6522C104.349 80.88 105.257 84.7634 106.366 88.4451C107.526 92.1268 108.938 95.8084 109.644 99.4901C110.098 101.76 110.199 104.281 108.938 105.088C108.384 105.441 107.677 105.391 107.224 105.845C106.064 106.853 106.921 110.081 108.434 111.746C109.947 113.359 111.763 113.712 113.276 113.511C114.789 113.309 116.15 112.704 117.764 112.855C120.689 113.107 124.522 115.73 126.237 113.259C127.094 111.998 127.044 109.678 126.439 107.56C125.834 105.391 124.775 103.323 123.766 101.356C121.244 96.4641 118.722 91.572 116.201 86.7303C113.679 81.8382 113.225 75.6349 109.443 73.9201" fill="#197693"/>
<path d="M114.083 71.6002C115.797 70.0367 118.924 71.3985 121.143 73.9706C123.413 76.5427 124.926 80.0227 126.136 83.4522C127.347 86.8312 128.355 90.3112 129.919 93.5894C130.877 95.6067 132.34 97.7249 133.853 98.0276C134.508 98.1789 135.416 98.2797 136.122 98.4815C137.686 98.9858 138.593 101.558 138.291 103.374C137.988 105.189 136.626 105.996 135.214 106.299C133.802 106.601 132.289 106.5 130.978 107.106C128.658 108.215 126.943 111.544 124.018 109.98C122.505 109.173 121.194 107.257 120.437 105.29C119.681 103.323 119.328 101.306 119.025 99.2884C118.269 94.4972 117.512 89.6555 116.756 84.8643C115.999 80.0227 115.343 74.6262 117.562 72.0541" fill="#197693"/>
<path d="M115.091 108.366L118.823 102.365C119.933 100.549 119.227 98.1789 117.31 97.2711L112.923 95.2537C112.771 95.2033 112.62 95.1528 112.418 95.1528L107.829 95.405C107.375 95.4554 106.971 95.758 106.871 96.2119L104.954 104.836C104.853 105.34 105.105 105.845 105.61 106.047L113.881 108.82C114.335 108.972 114.839 108.77 115.091 108.366Z" fill="#F49D62"/>
<path d="M111.661 96.3128C107.828 93.7407 97.086 93.7407 90.2775 95.5563C89.7731 95.7076 89.8236 97.271 90.4288 97.3719C95.6235 98.4815 114.385 98.1789 111.661 96.3128Z" fill="#FF505F"/>
<path d="M114.436 98.7842C112.469 101.205 109.997 100.398 110.653 97.7755L111.157 92.4295L115.142 92.3286L114.94 97.4224C114.94 97.9268 114.738 98.3807 114.436 98.7842Z" fill="#F49D62"/>
<path fill-rule="evenodd" clip-rule="evenodd" d="M110.854 95.9094L115.141 92.8834V92.1268L110.905 92.0764L110.854 95.9094C110.804 96.2624 110.854 95.9094 110.854 95.9094Z" fill="#D87939"/>
<path d="M112.065 93.1354C108.636 93.3876 105.963 91.6224 105.811 88.4955L105.257 79.2156C105.055 76.0887 107.677 73.3149 111.157 73.0627C114.587 72.8105 119.731 74.5253 119.933 77.7026L118.823 86.9825C118.168 90.6137 115.495 92.8832 112.065 93.1354Z" fill="#EF843C"/>
<path d="M110.804 93.4381C105.509 93.8416 103.239 89.0504 104.349 85.6208C105.004 83.6539 104.197 80.9305 104.197 80.9305C103.996 77.7532 106.517 73.668 109.846 73.4663C113.174 73.2141 115.999 75.5845 116.201 78.7114C116.201 78.7114 118.722 92.6312 110.804 93.4381Z" fill="#FFBC8F"/>
<path d="M111.057 93.3877C105.761 93.7912 103.491 88.9999 104.601 85.5704C105.257 83.6035 104.45 80.8801 104.45 80.8801C104.248 77.7027 106.77 73.6176 110.098 73.4159C113.427 73.1637 116.251 75.5341 116.453 78.661C116.503 78.7114 118.975 92.5807 111.057 93.3877Z" fill="#FFA96E"/>
<path d="M116.806 81.3844C115.394 81.1322 113.982 80.7792 112.519 80.5775C110.703 80.3757 108.787 80.527 106.971 80.6783C106.164 80.7792 105.307 80.8801 104.5 80.9809C104.5 80.9305 104.5 80.8801 104.5 80.8801C104.298 77.7027 106.82 73.6176 110.149 73.4159C113.477 73.1637 116.302 75.5341 116.503 78.661C116.503 78.7114 116.705 79.7705 116.806 81.3844Z" fill="#E89256"/>
<path opacity="0.38" d="M105.458 75.7358C105.458 75.7358 103.996 80.9305 104.097 82.1409C104.046 82.1409 103.643 76.8454 105.458 75.7358Z" fill="#D38462"/>
<path d="M112.507 83.1063C112.314 83.1365 112.183 83.3172 112.213 83.5098C112.243 83.7025 112.424 83.8341 112.617 83.8038C112.809 83.7736 112.941 83.5929 112.911 83.4003C112.88 83.2076 112.7 83.076 112.507 83.1063Z" fill="black"/>
<path d="M105.835 83.4262C105.643 83.4564 105.511 83.6371 105.541 83.8297C105.571 84.0223 105.752 84.154 105.945 84.1237C106.137 84.0935 106.269 83.9128 106.239 83.7202C106.208 83.5276 106.028 83.396 105.835 83.4262Z" fill="black"/>
<path opacity="0.69" d="M112.83 85.5151C112.106 85.5317 111.531 86.0644 111.546 86.7048C111.561 87.3452 112.159 87.8509 112.883 87.8343C113.607 87.8177 114.182 87.285 114.168 86.6446C114.153 86.0041 113.554 85.4984 112.83 85.5151Z" fill="#F77B28"/>
<path opacity="0.69" d="M105.54 85.4621C104.927 85.4768 104.443 86.008 104.458 86.6484C104.474 87.2888 104.983 87.7961 105.595 87.7814C106.208 87.7667 106.692 87.2356 106.677 86.5951C106.661 85.9547 106.152 85.4474 105.54 85.4621Z" fill="#F77B28"/>
<path d="M114.435 82.1408C114.032 81.8382 113.578 81.6365 113.124 81.6365C112.872 81.6365 112.67 81.7374 112.469 81.7374C112.216 81.7374 112.015 81.7878 111.712 81.7878L111.662 81.7374C111.813 81.4852 112.065 81.3339 112.317 81.233C112.569 81.1322 112.872 81.1826 113.175 81.233C113.477 81.2835 113.729 81.3843 113.931 81.5356C114.183 81.6869 114.335 81.8887 114.435 82.1408Z" fill="#2F0B51"/>
<path d="M105.055 81.5357C105.105 81.3844 105.206 81.2331 105.357 81.1322C105.509 81.0313 105.71 80.9305 105.862 80.9305C106.063 80.9305 106.265 80.88 106.416 80.9809C106.568 81.0818 106.719 81.2331 106.769 81.4348L106.719 81.4852C106.517 81.5357 106.366 81.4852 106.215 81.4852C106.063 81.4852 105.963 81.3844 105.862 81.3339C105.609 81.2835 105.307 81.3844 105.055 81.5357Z" fill="#2F0B51"/>
<path d="M119.681 82.847C119.681 82.847 118.874 82.0904 117.714 80.6279C116.201 78.7114 116.352 78.0557 116.1 77.9549C115.949 77.9044 115.999 80.527 115.797 80.4261C112.973 79.367 108.484 79.7705 104.551 80.3757C103.794 80.4766 103.138 78.0557 103.088 77.6523C102.634 72.7097 108.131 71.1967 111.964 71.0959C115.444 71.0454 122.404 71.4489 119.681 82.847Z" fill="#197693"/>
<path d="M103.138 77.6524C102.785 73.769 106.064 72.0038 109.291 71.3986C108.838 71.7516 108.384 72.1046 107.93 72.4577C107.224 73.0629 106.366 73.769 105.862 74.5759C105.358 75.4837 105.105 76.4924 105.055 77.5011C105.055 78.4089 105.156 79.3671 105.408 80.2245C105.105 80.2749 104.853 80.3254 104.551 80.3758C103.845 80.5271 103.189 78.1063 103.138 77.6524Z" fill="#4CABC1"/>
<path d="M117.916 86.1757C117.563 87.1339 117.764 88.0417 118.42 88.2434C119.076 88.4452 119.882 87.84 120.236 86.8817C120.589 85.9235 120.387 85.0157 119.731 84.8139C119.076 84.6626 118.269 85.2678 117.916 86.1757Z" fill="#EF843C"/>
<path fill-rule="evenodd" clip-rule="evenodd" d="M118.622 85.7722C118.722 85.5705 118.823 85.3687 119.075 85.2679C119.328 85.167 119.731 85.2174 119.832 85.9739C119.933 86.7304 119.529 87.4365 119.126 87.3861C118.975 87.3861 118.924 87.1843 118.823 86.9826C119.075 86.8817 119.176 86.5791 119.075 86.2765C119.025 86.0748 118.823 85.9235 118.672 85.8731C118.622 85.8226 118.622 85.7722 118.622 85.7722Z" fill="#D85B1D"/>
<path d="M119.277 87.9913C119.529 87.9913 119.529 87.5374 119.277 87.5374C119.025 87.5374 118.975 87.9913 119.277 87.9913Z" fill="#FFE966"/>
<path d="M108.938 82.8975L107.577 86.8313L108.989 86.8817L108.938 82.8975Z" fill="#E5803C"/>
<path d="M108.938 82.8975L107.577 86.8313L108.384 86.8817L108.938 82.8975Z" fill="#E88D4F"/>
<path d="M109.846 88.7477C109.039 89.5042 107.778 89.252 107.476 88.1425C107.425 87.9912 107.173 88.0416 107.223 88.1929C107.476 89.4538 109.14 89.9077 109.896 88.7981C109.947 88.7981 109.896 88.7477 109.846 88.7477Z" fill="#C45D08"/>
<path d="M117.714 80.6279C117.714 80.6279 120.79 84.6626 120.437 88.0921C120.437 88.0921 122.807 77.8036 119.983 75.2314C117.159 72.6089 117.714 80.6279 117.714 80.6279Z" fill="#197693"/>
<path d="M106.517 121.227L115.141 111.292C116.755 109.325 118.773 103.323 119.731 99.9945C119.933 99.1875 119.63 98.3806 118.974 97.8763C118.319 97.4224 116.352 96.2119 115.141 96.0102L114.637 97.3719C112.872 99.0867 110.199 97.6241 110.703 95.2033C110.703 95.2033 110.048 95.052 109.795 95.1024C109.039 95.2537 108.635 94.6989 107.475 95.4554C106.971 95.8085 106.719 96.9685 105.962 97.6241C104.601 98.7336 102.785 99.9945 103.239 104.685C103.239 104.685 104.55 110.384 97.54 112.099C97.54 112.149 96.4809 120.622 106.517 121.227Z" fill="#FF505F"/>
<path d="M44.6348 121.076L68.2378 112.099C71.1126 111.241 70.9108 111.292 71.3647 112.3C71.7682 113.309 71.3647 115.326 71.3647 115.326C64.6066 121.53 52.5025 123.698 46.6521 124.405C45.946 123.345 45.24 122.236 44.6348 121.076Z" fill="#232735"/>
<path d="M103.34 120.975C102.382 119.664 100.667 117.697 98.1958 115.881C97.1871 115.175 95.775 115.377 94.968 116.436C93.4046 118.403 91.5385 121.681 94.2115 124.051C94.2115 124.051 97.9436 129.498 103.138 123.95C103.895 123.093 103.996 121.832 103.34 120.975Z" fill="#F49D62"/>
<path d="M99.8599 123.144C100.566 121.177 101.373 116.032 95.2704 113.763C90.6305 112.048 77.316 111.746 71.5665 111.645C69.2465 111.594 68.5405 114.318 71.8187 115.579C72.1717 115.73 86.9488 121.732 93.6061 123.698C97.6913 124.909 99.3556 124.455 99.8599 123.144Z" fill="#232735"/>
<path d="M92.648 125.06C92.648 125.06 90.9837 118.655 89.1177 116.234L89.7229 115.881C92.2446 114.217 96.7836 112.351 96.7836 112.351C96.7836 112.351 99.8601 118.705 106.77 120.219C106.77 120.219 106.568 125.413 101.121 128.691C101.121 128.691 93.5054 130.961 94.968 126.17L93.455 125.918L92.648 125.06Z" fill="#232735"/>
<path d="M37.0194 117.546C37.8263 117.697 39.4402 119.865 39.4402 119.865C39.4402 119.865 41.0036 121.126 42.2645 121.53C43.5253 121.933 45.4418 121.732 45.4418 121.732L46.5514 124.102C46.5514 124.102 46.5009 124.152 45.7949 124.707C45.4923 124.959 45.0384 125.262 44.6853 125.565C44.6853 125.565 42.668 127.38 42.1132 127.078C41.6593 126.876 41.155 125.867 40.8523 125.312C40.5497 124.808 39.2889 124.657 38.5828 123.799C37.8767 122.942 36.0107 119.613 35.7585 118.958C35.5568 118.352 36.2124 117.344 37.0194 117.546Z" fill="#D4DAE6"/>
<path d="M37.0194 117.546C37.7759 117.747 39.7933 119.714 39.7933 119.714C39.7933 119.714 41.3063 121.025 42.5167 121.429C43.7271 121.832 45.4923 121.732 45.4923 121.732L47.1566 124.405C47.1566 124.405 45.8958 124.657 45.2401 125.161C44.9375 125.413 45.2401 125.161 44.9375 125.413C44.9375 125.413 43.1219 127.128 42.5671 126.825C42.1636 126.573 41.6593 125.615 41.3567 125.06C41.0541 124.556 39.8941 124.354 39.188 123.497C38.482 122.639 36.6159 119.311 36.4142 118.655C36.1116 118.05 36.2629 117.293 37.0194 117.546Z" fill="#222A36"/>
<path d="M37.0193 117.546C37.3723 117.646 37.9775 118.1 38.5323 118.605C39.0367 118.655 38.8349 119.412 38.2297 120.219C38.028 120.42 37.2715 120.521 37.2715 120.521C36.8176 119.714 36.4141 118.958 36.3637 118.706C36.1115 118.05 36.2628 117.293 37.0193 117.546Z" fill="#E7EAF1"/>
<path d="M39.6923 120.471C39.6419 119.866 39.7428 119.866 39.5915 119.513C39.3897 119.361 39.3897 119.21 39.188 119.109C39.3897 119.361 39.3393 119.664 39.4402 120.471H39.6923Z" fill="#E7EAF1"/>
<path d="M40.3477 120.975C40.3982 120.521 40.4486 120.42 40.3477 120.118C40.146 119.966 39.9947 119.866 39.793 119.714C39.9947 120.017 39.8938 120.118 39.9947 120.925L40.3477 120.975Z" fill="#E7EAF1"/>
<path d="M41.1044 121.631C41.0539 121.278 41.2052 120.975 41.1548 120.723C40.9531 120.572 40.9531 120.622 40.8018 120.471C40.9531 120.773 40.8018 120.925 40.8522 121.53L41.1044 121.631Z" fill="#E7EAF1"/>
<path d="M41.8107 122.135C41.8107 121.933 42.0629 121.379 42.0124 121.177C41.8611 121.076 41.7098 121.177 41.609 121.026C41.7098 121.278 41.5081 121.58 41.5585 121.933L41.8107 122.135Z" fill="#E7EAF1"/>
<path d="M42.5166 122.387C42.4157 122.034 42.6679 121.782 42.5671 121.53L42.1636 121.278C42.2644 121.48 42.2644 122.085 42.3653 122.387H42.5166Z" fill="#E7EAF1"/>
<path fill-rule="evenodd" clip-rule="evenodd" d="M43.929 122.236C43.9795 122.135 43.8282 120.42 43.7777 120.168C43.6769 119.916 42.9708 120.219 42.8195 120.269C42.6682 120.319 43.7273 122.135 43.7273 122.135L43.929 122.236L43.7273 121.984C43.7273 121.984 43.0212 120.622 43.1725 120.572C43.2734 120.521 43.4247 120.42 43.4751 120.572C43.5256 120.723 43.7777 121.984 43.7777 121.984L43.929 122.236Z" fill="#E7EAF1"/>
<path fill-rule="evenodd" clip-rule="evenodd" d="M43.6265 121.883C43.576 121.984 43.3239 123.749 43.3743 124.001C43.4247 124.253 44.1813 124.152 44.3326 124.102C44.4839 124.102 43.8282 121.984 43.8282 121.984L43.6265 121.883L43.7778 122.186C43.7778 122.186 44.1813 123.699 44.0804 123.749C43.9795 123.799 43.8282 123.85 43.7778 123.699C43.7273 123.547 43.7778 122.236 43.7778 122.236L43.6265 121.883Z" fill="#E7EAF1"/>
<path fill-rule="evenodd" clip-rule="evenodd" d="M44.4839 120.42C44.4839 120.42 44.2822 121.026 44.1309 121.429C43.9291 121.832 43.7778 121.933 43.7778 121.933V122.185C43.7778 122.185 44.1813 121.782 44.4839 121.479C44.8369 121.076 44.9378 120.723 44.9378 120.672C44.8874 120.572 44.4839 120.37 44.4839 120.42Z" fill="#E7EAF1"/>
<path fill-rule="evenodd" clip-rule="evenodd" d="M45.5432 122.892C45.5432 122.892 44.938 122.69 44.5345 122.589C44.131 122.488 43.9293 122.538 43.9293 122.538L43.7275 122.387C43.7275 122.387 44.2823 122.286 44.7362 122.236C45.2406 122.185 45.644 122.337 45.6945 122.337C45.6945 122.438 45.644 122.892 45.5432 122.892Z" fill="#E7EAF1"/>
<path d="M45.7445 124.354C45.694 124.354 45.694 124.354 45.7445 124.354C45.3914 124.505 45.1393 124.052 45.4923 123.85C45.7949 123.698 46.0471 124.203 45.7445 124.354Z" fill="#E7EAF1"/>
<path d="M93.4551 114.066C93.5055 114.066 93.556 114.015 93.556 114.015C93.6064 114.015 93.6064 114.015 93.6064 114.066C94.8168 114.519 96.2794 114.015 96.2794 114.015L96.4307 114.419C96.4307 114.419 94.4133 114.973 93.1021 114.318C93.2534 114.217 93.3542 114.166 93.4551 114.066Z" fill="#2C2C2C"/>
<path d="M107.224 121.429L107.677 119.916C107.677 119.916 104.702 120.168 100.314 116.537C100.314 116.537 98.0446 114.217 97.5907 112.199L95.9264 112.855C95.9264 112.855 95.5229 115.074 98.8011 118.1C98.8011 118.1 103.34 122.438 107.224 121.429Z" fill="#33231C"/>
<path d="M100.011 115.377C100.415 115.982 100.768 116.386 100.768 116.386C100.818 116.436 100.818 116.436 100.869 116.487C100.516 117.142 100.112 117.798 99.7089 118.403C99.3558 118.05 99.1541 117.848 99.1541 117.848C98.8515 117.546 98.5993 117.243 98.3472 116.94C98.9019 116.436 99.4567 115.881 100.011 115.377Z" fill="#1A1310"/>
<path d="M105.61 119.664C105.206 120.622 104.551 121.429 103.744 122.034C103.491 122.236 103.744 122.639 103.996 122.438C104.904 121.782 105.559 120.925 106.013 119.916C106.164 119.613 105.761 119.361 105.61 119.664Z" fill="#62716C"/>
<path d="M101.524 117.596C101.071 118.403 100.516 119.109 99.7592 119.664C99.5071 119.866 99.7592 120.269 100.011 120.067C100.818 119.462 101.474 118.706 101.928 117.848C102.079 117.596 101.676 117.344 101.524 117.596Z" fill="#62716C"/>
<path d="M97.7419 113.259C96.8845 113.914 96.128 114.671 95.5228 115.528C95.321 115.78 95.7245 115.982 95.9262 115.78C96.5314 114.973 97.1871 114.267 97.994 113.712C98.2462 113.511 97.994 113.107 97.7419 113.259Z" fill="#62716C"/>
<path d="M79.9389 105.038C79.9389 105.038 80.4432 104.634 80.3928 104.534C80.3424 104.382 79.2328 104.332 79.0815 104.231C78.9806 103.979 79.1824 103.727 79.3841 103.676C79.9893 103.827 81.9562 104.332 81.9562 104.332L79.9389 105.038Z" fill="#F49D62"/>
<path d="M82.9144 105.138C82.8639 105.138 82.8639 105.189 82.8135 105.189C82.4605 105.289 79.9892 105.895 79.737 105.844C79.4849 105.794 77.9214 104.936 77.9214 104.936L76.8623 103.726C76.8623 103.726 77.3162 103.575 77.6188 103.877C77.871 103.827 78.3753 103.827 78.6779 104.432C79.2327 104.835 79.8379 104.886 79.8379 104.886C79.8379 104.886 81.5022 104.18 81.9561 104.281L82.9144 104.533C82.9648 104.533 83.0657 104.583 83.0657 104.634C83.1665 104.785 83.1161 104.936 82.9648 105.037L82.9144 105.138Z" fill="#F49D62"/>
<path d="M82.2079 104.685H82.2584C83.2671 104.634 85.3853 104.584 87.4026 104.483C92.2947 104.231 97.7416 104.231 99.6076 105.34C100.112 105.643 99.9102 106.299 99.2042 106.551C97.3381 107.257 92.5469 108.165 82.0566 105.492C82.1071 105.24 82.2079 104.987 82.2079 104.685Z" fill="#FFA96E"/>
<path d="M118.924 98.8346C114.486 96.7164 103.794 101.659 96.7836 104.887C96.2792 105.139 97.0862 107.106 97.6914 107.005C103.29 106.551 123.463 100.953 118.924 98.8346Z" fill="#FF505F"/>
<path d="M69.2466 157.741L72.6256 132.726C73.2309 129.801 73.1804 129.952 74.29 130.104C75.3995 130.204 76.963 131.516 76.963 131.516C79.182 140.443 75.2986 152.093 73.13 157.54C71.8691 157.64 70.5579 157.741 69.2466 157.741Z" fill="#232735"/>
<path d="M104.45 124.909C104.097 122.841 102.332 118.705 95.9264 119.714C91.0343 120.471 79.2832 126.724 74.1894 129.397C72.172 130.457 72.8277 133.23 76.358 132.726C76.7615 132.676 92.396 131.566 99.2046 130.053C103.29 129.095 104.651 126.271 104.45 124.909Z" fill="#232735"/>
<path d="M62.4884 162.684C63.0431 162.079 65.7161 161.675 65.7161 161.675C65.7161 161.675 67.5822 160.919 68.5404 159.96C69.4987 159.002 70.2552 157.287 70.2552 157.287L72.8273 157.439C72.8273 157.439 72.8777 157.54 73.029 158.397C73.0795 158.8 73.1803 159.305 73.2308 159.759C73.2308 159.759 73.8864 162.381 73.3316 162.734C72.9282 162.986 71.8186 162.986 71.2134 162.986C70.6082 162.986 69.9021 164.046 68.7926 164.247C67.683 164.449 63.9005 164.499 63.1944 164.399C62.4884 164.348 61.9336 163.289 62.4884 162.684Z" fill="#D4DAE6"/>
<path d="M62.4886 162.684C63.0433 162.129 65.7163 161.322 65.7163 161.322C65.7163 161.322 67.5824 160.616 68.5406 159.759C69.4989 158.901 70.205 157.287 70.205 157.287L73.3319 157.086C73.3319 157.086 72.9284 158.346 73.1301 159.103C73.1806 159.456 73.1301 159.103 73.1806 159.506C73.1806 159.506 73.8362 161.927 73.2814 162.23C72.878 162.482 71.7684 162.482 71.1632 162.482C70.558 162.482 69.8519 163.44 68.7424 163.642C67.6328 163.844 63.8503 163.894 63.1442 163.793C62.4886 163.743 61.9338 163.239 62.4886 162.684Z" fill="#222A36"/>
<path d="M62.4884 162.684C62.7405 162.432 63.4466 162.129 64.1022 161.877C64.3544 161.473 64.9596 161.978 65.3631 162.936C65.5144 163.238 65.2118 163.945 65.2118 163.945C64.2535 163.945 63.4466 163.945 63.1944 163.894C62.4884 163.743 61.9336 163.238 62.4884 162.684Z" fill="#E7EAF1"/>
<path d="M66.3215 161.725C65.7667 161.524 65.8171 161.423 65.4137 161.372C65.2119 161.473 65.0606 161.423 64.8589 161.524C65.1615 161.473 65.4137 161.675 66.1702 161.978L66.3215 161.725Z" fill="#E7EAF1"/>
<path d="M67.1283 161.473C66.7249 161.221 66.7249 161.12 66.4222 161.07C66.1701 161.12 65.9683 161.272 65.7666 161.372C66.1196 161.322 66.1701 161.473 66.9266 161.776L67.1283 161.473Z" fill="#E7EAF1"/>
<path d="M68.0869 161.07C67.7843 160.919 67.5321 160.666 67.2799 160.616C67.0278 160.717 67.0782 160.767 66.8765 160.818C67.2295 160.818 67.2799 161.019 67.8347 161.272L68.0869 161.07Z" fill="#E7EAF1"/>
<path d="M68.7925 160.717C68.5908 160.616 68.2377 160.112 68.036 160.112C67.8847 160.162 67.8847 160.364 67.7334 160.414C67.9856 160.465 68.1873 160.767 68.5403 160.919L68.7925 160.717Z" fill="#E7EAF1"/>
<path d="M69.3978 160.212C69.0447 160.112 68.9439 159.759 68.6413 159.759L68.2378 160.011C68.4395 160.011 68.9943 160.313 69.2969 160.364L69.3978 160.212Z" fill="#E7EAF1"/>
<path fill-rule="evenodd" clip-rule="evenodd" d="M69.953 158.901C69.9025 158.851 68.3391 158.094 68.0869 158.044C67.8348 157.993 67.7339 158.8 67.7339 158.952C67.7339 159.103 69.8017 159.053 69.8017 159.053L69.953 158.901L69.6504 158.952C69.6504 158.952 68.1374 158.901 68.1374 158.8C68.1374 158.7 68.1374 158.498 68.2887 158.548C68.44 158.548 69.6504 158.952 69.6504 158.952L69.953 158.901Z" fill="#E7EAF1"/>
<path fill-rule="evenodd" clip-rule="evenodd" d="M69.4487 158.952C69.4992 159.002 70.9113 160.112 71.1635 160.162C71.4156 160.263 71.6678 159.506 71.7183 159.355C71.7687 159.204 69.6505 158.8 69.6505 158.8L69.4487 158.952H69.8018C69.8018 158.952 71.3148 159.305 71.3148 159.456C71.2643 159.557 71.2643 159.708 71.113 159.708C70.9617 159.658 69.8018 159.002 69.8018 159.002L69.4487 158.952Z" fill="#E7EAF1"/>
<path fill-rule="evenodd" clip-rule="evenodd" d="M68.5913 157.54C68.5913 157.54 69.0452 157.993 69.2974 158.347C69.5496 158.7 69.6 158.901 69.6 158.901L69.8522 159.053C69.8522 159.053 69.7009 158.498 69.5496 158.094C69.3478 157.59 69.0956 157.338 69.0452 157.287C68.9443 157.237 68.5913 157.489 68.5913 157.54Z" fill="#E7EAF1"/>
<path fill-rule="evenodd" clip-rule="evenodd" d="M71.2644 157.741C71.2644 157.741 70.8105 158.145 70.5079 158.498C70.2557 158.851 70.2053 159.002 70.2053 159.002L69.9531 159.103C69.9531 159.103 70.1044 158.548 70.3062 158.195C70.5079 157.741 70.8105 157.439 70.8609 157.439C70.9618 157.439 71.3149 157.691 71.2644 157.741Z" fill="#E7EAF1"/>
<path d="M72.6764 158.347C72.6764 158.75 72.1216 158.7 72.1216 158.347C72.1216 157.943 72.6764 157.993 72.6764 158.347Z" fill="#E7EAF1"/>
<path d="M61.6816 87.5877L74.6936 80.9304L75.2484 81.0817L81.3509 99.591L67.0276 102.819L61.6816 87.5877Z" fill="#D656A2"/>
<path d="M62.6904 88.2433L74.3911 82.2921L80.3423 99.0362L67.5321 101.911L62.6904 88.2433Z" fill="#EADDE9"/>
<path d="M62.6904 88.2434L78.1232 83.3009L82.1579 98.2293L67.5321 101.911L62.6904 88.2434Z" fill="#F7F7F7"/>
<path d="M62.6904 88.2433L76.358 87.7894L81.0988 103.172L67.0277 101.961L62.6904 88.2433Z" fill="#EADDE9"/>
<path d="M61.6816 87.3356L75.0971 91.3703L80.8465 107.61L67.0276 103.071L61.6816 87.3356Z" fill="#C43B93"/>
<path d="M61.6816 87.335L74.6431 80.9803L75.2484 81.0812L62.1355 87.4863L61.6816 87.335Z" fill="#BC4692"/>
<path d="M61.6816 87.3355L62.186 87.0834L75.6518 91.1181L81.0987 107.307L80.8465 107.61L74.9962 91.572L61.6816 87.3355Z" fill="#AD3E8B"/>
<path d="M82.9144 105.139C82.8639 105.139 82.8639 105.189 82.8135 105.189C82.4605 105.29 79.9892 105.895 79.737 105.845C79.4849 105.794 77.9214 104.937 77.9214 104.937L76.8623 103.727C76.8623 103.727 77.3162 103.575 77.6188 103.878C77.871 103.827 78.3753 103.827 78.6779 104.433C79.2327 104.836 79.8379 104.887 79.8379 104.887C79.8379 104.887 81.5022 104.18 81.9561 104.281L82.9144 104.533C82.9648 104.533 83.0657 104.584 83.0657 104.634C83.1665 104.786 83.1161 104.937 82.9648 105.038L82.9144 105.139Z" fill="#F49D62"/>
<defs>
<filter id="filter0_i" x="14.98" y="13.7178" width="163.351" height="158.195" filterUnits="userSpaceOnUse" color-interpolation-filters="sRGB">
<feFlood flood-opacity="0" result="BackgroundImageFix"/>
<feBlend mode="normal" in="SourceGraphic" in2="BackgroundImageFix" result="shape"/>
<feColorMatrix in="SourceAlpha" type="matrix" values="0 0 0 0 0 0 0 0 0 0 0 0 0 0 0 0 0 0 127 0" result="hardAlpha"/>
<feOffset dx="6" dy="4"/>
<feGaussianBlur stdDeviation="10"/>
<feComposite in2="hardAlpha" operator="arithmetic" k2="-1" k3="1"/>
<feColorMatrix type="matrix" values="0 0 0 0 0 0 0 0 0 0 0 0 0 0 0 0 0 0 0.08 0"/>
<feBlend mode="normal" in2="shape" result="effect1_innerShadow"/>
</filter>
<filter id="filter1_i" x="22.3535" y="28.7308" width="148.725" height="145.943" filterUnits="userSpaceOnUse" color-interpolation-filters="sRGB">
<feFlood flood-opacity="0" result="BackgroundImageFix"/>
<feBlend mode="normal" in="SourceGraphic" in2="BackgroundImageFix" result="shape"/>
<feColorMatrix in="SourceAlpha" type="matrix" values="0 0 0 0 0 0 0 0 0 0 0 0 0 0 0 0 0 0 127 0" result="hardAlpha"/>
<feOffset dx="10" dy="10"/>
<feGaussianBlur stdDeviation="17.5"/>
<feComposite in2="hardAlpha" operator="arithmetic" k2="-1" k3="1"/>
<feColorMatrix type="matrix" values="0 0 0 0 0 0 0 0 0 0 0 0 0 0 0 0 0 0 0.4 0"/>
<feBlend mode="normal" in2="shape" result="effect1_innerShadow"/>
</filter>
<filter id="filter2_i" x="33.1128" y="33.2637" width="129.129" height="122.747" filterUnits="userSpaceOnUse" color-interpolation-filters="sRGB">
<feFlood flood-opacity="0" result="BackgroundImageFix"/>
<feBlend mode="normal" in="SourceGraphic" in2="BackgroundImageFix" result="shape"/>
<feColorMatrix in="SourceAlpha" type="matrix" values="0 0 0 0 0 0 0 0 0 0 0 0 0 0 0 0 0 0 127 0" result="hardAlpha"/>
<feOffset dx="10" dy="10"/>
<feGaussianBlur stdDeviation="17.5"/>
<feComposite in2="hardAlpha" operator="arithmetic" k2="-1" k3="1"/>
<feColorMatrix type="matrix" values="0 0 0 0 0 0 0 0 0 0 0 0 0 0 0 0 0 0 0.4 0"/>
<feBlend mode="normal" in2="shape" result="effect1_innerShadow"/>
</filter>
<filter id="filter3_d" x="55.0596" y="70.9626" width="99.1872" height="97.6901" filterUnits="userSpaceOnUse" color-interpolation-filters="sRGB">
<feFlood flood-opacity="0" result="BackgroundImageFix"/>
<feColorMatrix in="SourceAlpha" type="matrix" values="0 0 0 0 0 0 0 0 0 0 0 0 0 0 0 0 0 0 127 0"/>
<feOffset/>
<feGaussianBlur stdDeviation="10"/>
<feColorMatrix type="matrix" values="0 0 0 0 0.478431 0 0 0 0 0.831373 0 0 0 0 0.984314 0 0 0 0.2 0"/>
<feBlend mode="normal" in2="BackgroundImageFix" result="effect1_dropShadow"/>
<feBlend mode="normal" in="SourceGraphic" in2="effect1_dropShadow" result="shape"/>
</filter>
<linearGradient id="paint0_linear" x1="93.6553" y1="13.7178" x2="93.6553" y2="167.913" gradientUnits="userSpaceOnUse">
<stop stop-color="white"/>
<stop offset="1" stop-color="#F0F4FD"/>
</linearGradient>
<linearGradient id="paint1_linear" x1="114.649" y1="146.935" x2="92.1198" y2="76.5767" gradientUnits="userSpaceOnUse">
<stop stop-color="#74A6F2"/>
<stop offset="1" stop-color="#7BD5FB"/>
</linearGradient>
<radialGradient id="paint2_radial" cx="0" cy="0" r="1" gradientUnits="userSpaceOnUse" gradientTransform="translate(104.878 118.505) rotate(-133.463) scale(29.6733 27.2789)">
<stop stop-color="#8BD9FA" stop-opacity="0.42"/>
<stop offset="1" stop-color="#8BD9FA" stop-opacity="0"/>
</radialGradient>
<radialGradient id="paint3_angular" cx="0" cy="0" r="1" gradientUnits="userSpaceOnUse" gradientTransform="translate(50.9431 66.9261) rotate(90) scale(3.06021 3.12284)">
<stop stop-color="#EBC87E"/>
<stop offset="1" stop-color="#EBC87E" stop-opacity="0"/>
</radialGradient>
<linearGradient id="paint4_linear" x1="100.273" y1="102.067" x2="148.737" y2="137.953" gradientUnits="userSpaceOnUse">
<stop offset="0.0149197" stop-color="white"/>
<stop offset="0.996816" stop-color="white" stop-opacity="0"/>
</linearGradient>
<linearGradient id="paint5_linear" x1="104.101" y1="103.449" x2="103.705" y2="127.635" gradientUnits="userSpaceOnUse">
<stop stop-color="white"/>
<stop offset="1" stop-color="white" stop-opacity="0"/>
</linearGradient>
<linearGradient id="paint6_linear" x1="101.281" y1="105.029" x2="73.2775" y2="104.001" gradientUnits="userSpaceOnUse">
<stop stop-color="white"/>
<stop offset="1" stop-color="white" stop-opacity="0"/>
</linearGradient>
<linearGradient id="paint7_linear" x1="101.281" y1="103.449" x2="69.6863" y2="66.4876" gradientUnits="userSpaceOnUse">
<stop stop-color="white"/>
<stop offset="1" stop-color="white" stop-opacity="0"/>
</linearGradient>
<linearGradient id="paint8_linear" x1="101.281" y1="105.819" x2="139.257" y2="104.482" gradientUnits="userSpaceOnUse">
<stop stop-color="white"/>
<stop offset="1" stop-color="#F9F9F9" stop-opacity="0"/>
</linearGradient>
<linearGradient id="paint9_linear" x1="70.7678" y1="45.1879" x2="70.7678" y2="69.6696" gradientUnits="userSpaceOnUse">
<stop stop-color="white" stop-opacity="0.58"/>
<stop offset="1" stop-color="white" stop-opacity="0.26"/>
</linearGradient>
<linearGradient id="paint10_linear" x1="70.7678" y1="45.1879" x2="70.7678" y2="69.6696" gradientUnits="userSpaceOnUse">
<stop stop-color="white" stop-opacity="0.58"/>
<stop offset="1" stop-color="white" stop-opacity="0.26"/>
</linearGradient>
<linearGradient id="paint11_linear" x1="39.3278" y1="90.9626" x2="39.3278" y2="115.444" gradientUnits="userSpaceOnUse">
<stop stop-color="white" stop-opacity="0.58"/>
<stop offset="1" stop-color="white" stop-opacity="0.26"/>
</linearGradient>
<linearGradient id="paint12_linear" x1="39.3278" y1="90.9626" x2="39.3278" y2="115.444" gradientUnits="userSpaceOnUse">
<stop stop-color="white" stop-opacity="0.58"/>
<stop offset="1" stop-color="white" stop-opacity="0.26"/>
</linearGradient>
<linearGradient id="paint13_linear" x1="130.878" y1="56.6316" x2="130.878" y2="81.1133" gradientUnits="userSpaceOnUse">
<stop stop-color="white" stop-opacity="0.58"/>
<stop offset="1" stop-color="white" stop-opacity="0.26"/>
</linearGradient>
<linearGradient id="paint14_linear" x1="130.878" y1="56.6316" x2="130.878" y2="81.1133" gradientUnits="userSpaceOnUse">
<stop stop-color="white" stop-opacity="0.58"/>
<stop offset="1" stop-color="white" stop-opacity="0.26"/>
</linearGradient>
</defs>
</svg>
