<svg width="192" height="189" viewBox="0 0 192 189" fill="none" xmlns="http://www.w3.org/2000/svg">
<g filter="url(#filter0_d)">
<path d="M138.659 155.905L157.768 144.596V84.4805L138.659 95.7295V155.905Z" fill="#629FF9"/>
<path d="M83.2916 123.187L138.659 155.724V95.7295L82.9949 63.1317L83.2916 123.187Z" fill="#3F2EA9"/>
<path d="M102.103 51.8827L157.768 84.4805L138.659 95.7295L82.9946 63.1317L102.103 51.8827Z" fill="#BDDEFF"/>
<path d="M139.846 102.745L156.581 92.9474V95.7294L139.846 105.587V102.745Z" fill="#306DC6"/>
<path d="M139.846 107.099L156.581 97.2414V100.084L139.846 109.942V107.099Z" fill="#306DC6"/>
<path d="M139.846 142.358L156.581 132.5V135.343L139.846 145.201V142.358Z" fill="#306DC6"/>
<path d="M139.846 146.713L156.581 136.855V139.637L139.846 149.495V146.713Z" fill="#306DC6"/>
</g>
<g filter="url(#filter1_d)">
<path d="M71.6599 130.988V128.025L73.737 129.113L77.3569 126.997C78.5438 126.271 80.4428 126.271 81.6297 126.997L118.245 148.527L120.322 147.499V150.402C120.381 150.886 120.084 151.369 119.432 151.793L114.625 154.635C113.438 155.361 111.539 155.361 110.352 154.635L72.5501 132.379C71.9567 132.016 71.6599 131.472 71.6599 130.988Z" fill="#55C3FE"/>
<path d="M118.304 148.527L120.381 147.499V150.402C120.441 150.886 120.144 151.369 119.491 151.793L114.684 154.635C114.091 154.998 113.379 155.119 112.607 155.18V145.14L118.304 148.527Z" fill="#179ECC"/>
<path d="M114.684 151.49C113.497 152.216 111.598 152.216 110.411 151.49L72.6092 129.234C71.4224 128.509 71.4224 127.42 72.6092 126.694L77.4161 123.852C78.603 123.126 80.5019 123.126 81.6888 123.852L119.491 146.108C120.678 146.834 120.678 147.922 119.491 148.648L114.684 151.49Z" fill="#97DFFF"/>
<path d="M59.4945 58.3539L61.9869 56.9024C62.0463 56.8419 62.1056 56.8419 62.165 56.7815C62.4023 56.6605 62.6991 56.721 63.0551 56.9024L134.149 98.8743C134.92 99.2977 135.514 100.386 135.514 101.293V156.994C135.514 157.417 135.336 157.78 135.098 157.901C135.039 157.901 135.039 157.962 134.98 157.962L132.546 159.413L132.012 156.692L132.725 156.994L62.9364 115.929C62.165 115.506 61.5715 114.417 61.5715 113.51V59.9263L59.4945 58.3539Z" fill="#35AFE5"/>
<path d="M61.9277 56.9629C61.9871 56.9025 62.0464 56.9025 62.1058 56.842C62.3431 56.721 62.6399 56.7815 62.9959 56.9629L134.149 98.8744C134.505 99.0558 134.802 99.4187 135.039 99.7816L87.5048 130.384L63.0553 115.99C62.2838 115.566 61.6904 114.478 61.6904 113.571V59.9264L59.554 58.4144L61.9277 56.9629Z" fill="#97DFFF"/>
<path d="M59.0791 114.962C59.0791 115.869 59.6726 116.957 60.4441 117.381L131.597 159.292C132.368 159.715 132.962 159.353 132.962 158.506V102.805C132.962 101.898 132.368 100.81 131.597 100.386L60.4441 58.4748C59.6726 58.0515 59.0791 58.4144 59.0791 59.2611V114.962Z" fill="#55C3FE"/>
<path d="M60.3846 110.91L131.656 152.821V102.684L60.3846 60.773V110.91Z" fill="#F0FBFF"/>
<path d="M61.0967 61.1964V110.365L131.656 151.853V152.821L60.3846 110.91V60.773L61.0967 61.1964Z" fill="white"/>
</g>
<g filter="url(#filter2_d)">
<path d="M68.6928 137.58L73.6777 134.738V113.752H68.6928V137.58Z" fill="#FF505F"/>
<path d="M68.6929 137.58L65.785 135.827V113.752H68.6929V137.58Z" fill="#FF505F"/>
<path d="M67.3278 96.8786C68.752 96.0319 70.7697 96.1528 73.0248 97.4833C77.4755 100.084 81.0361 106.434 81.0361 111.635C81.0361 114.175 80.2053 115.99 78.7811 116.897C78.6624 116.957 78.5437 117.018 78.425 117.078L66.3783 123.489L53.9161 103.41L67.3278 96.8786Z" fill="#CC6870"/>
<path d="M55.637 102.624C57.714 102.08 59.6723 101.898 61.7494 103.168C66.1408 105.89 69.7607 112.119 69.7607 117.32C69.7607 119.679 68.9893 121.433 67.7431 122.34C56.3491 130.625 44.7177 147.499 44.7177 147.499C44.7177 147.499 34.6293 128.69 19.7934 107.281C38.0119 107.281 55.637 102.624 55.637 102.624Z" fill="#FF505F"/>
<path d="M45.7266 141.209C45.7266 152.761 37.7745 157.478 27.9235 151.672C18.0725 145.866 10.1204 131.775 10.1204 120.223C10.1204 108.672 18.0725 103.954 27.9235 109.76C37.7745 115.566 45.7266 129.658 45.7266 141.209Z" fill="#FF505F"/>
<path d="M43.7681 130.504L31.3059 136.976L24.1253 124.819L36.5281 117.441C39.614 121.251 42.1064 125.848 43.7681 130.504Z" fill="#D1D2D3"/>
<path d="M32.8486 133.649C32.8486 136.855 30.6529 138.125 27.9231 136.552C25.1933 134.919 22.9976 131.049 22.9976 127.843C22.9976 124.638 25.1933 123.368 27.9231 124.94C30.6529 126.513 32.8486 130.444 32.8486 133.649Z" fill="white"/>
<path opacity="0.3" d="M29.8818 123.912C20.8616 118.651 13.4436 122.098 12.2568 131.593C10.8919 127.783 10.1204 123.912 10.1204 120.284C10.1204 108.732 18.0725 104.015 27.9235 109.821C37.7745 115.627 45.7266 129.718 45.7266 141.27C45.7266 142.237 45.6672 143.205 45.5485 144.112C42.522 135.766 36.647 127.843 29.8818 123.912Z" fill="#F4DCBD"/>
</g>
<path d="M102.638 133.166L99.6705 131.412V106.918L102.638 108.672V133.166Z" fill="#39E5D4"/>
<path d="M105.664 131.412L102.638 133.166V108.672L105.664 106.918V131.412Z" fill="#24C1D1"/>
<path d="M102.638 108.672L99.6704 106.918L102.638 105.104L105.664 106.918L102.638 108.672Z" fill="#62F9E6"/>
<path d="M109.581 137.218L106.554 135.464V105.95L109.581 107.704V137.218Z" fill="#49A3DB"/>
<path d="M112.548 135.464L109.581 137.218V107.704L112.548 105.95V135.464Z" fill="#2F96C9"/>
<path d="M109.581 107.704L106.554 105.95L109.581 104.136L112.548 105.95L109.581 107.704Z" fill="#7DD6F9"/>
<path d="M116.464 141.27L113.497 139.516V104.741L116.464 106.495V141.27Z" fill="#B26ABF"/>
<path d="M119.432 139.516L116.464 141.27V106.495L119.432 104.741V139.516Z" fill="#CC75DB"/>
<path d="M116.464 106.495L113.497 104.741L116.464 102.987L119.432 104.741L116.464 106.495Z" fill="#DA8CE5"/>
<path d="M116.464 141.33L113.438 139.576V104.801L116.464 106.555V141.33Z" fill="#3E82E5"/>
<path d="M119.432 139.576L116.464 141.33V106.555L119.432 104.801V139.576Z" fill="#2760C4"/>
<path d="M116.464 106.555L113.438 104.801L116.464 103.047L119.432 104.801L116.464 106.555Z" fill="#57A0F7"/>
<path d="M123.348 145.382L120.381 143.628V103.592L123.348 105.345V145.382Z" fill="#6E76F1"/>
<path d="M126.315 143.628L123.348 145.382V105.345L126.315 103.592V143.628Z" fill="#3F2EA9"/>
<path d="M123.348 105.345L120.381 103.592L123.348 101.838L126.315 103.592L123.348 105.345Z" fill="#7A5DF4"/>
<path d="M77.7722 81.8799L77.4162 81.3356L79.2558 79.7631C81.9856 78.1302 84.4187 78.5536 87.8606 80.6098C91.4806 82.7266 94.6258 86.4157 96.5841 90.3468C97.8304 92.8869 98.5425 95.4875 98.5425 97.7857C98.5425 100.568 98.1271 101.898 96.6435 103.168L94.5071 104.438L92.9642 104.015C91.4213 103.954 89.7003 103.41 87.8606 102.322C86.0803 101.293 84.3594 99.8419 82.8758 98.1485C79.4932 94.3384 77.1195 89.3187 77.1195 85.1457C77.1788 83.8757 77.3568 82.7871 77.7722 81.8799Z" fill="#8ABFFF"/>
<path d="M84.5372 87.9882C84.5372 90.7097 86.7329 94.2779 89.4034 95.8503C92.0738 97.4228 94.2695 96.5156 94.2695 93.7336C94.2695 91.0121 92.0738 87.4439 89.4034 85.8714C86.7329 84.299 84.5372 85.2667 84.5372 87.9882Z" fill="#2E4759"/>
<path d="M87.4451 89.6816C87.4451 90.7702 88.3353 92.2217 89.4035 92.8869C90.4717 93.5522 91.3618 93.1288 91.3618 92.0402C91.3618 90.9516 90.4717 89.5002 89.4035 88.8349C88.3353 88.2301 87.4451 88.593 87.4451 89.6816Z" fill="#40B5B5"/>
<path d="M75.5767 86.3553C75.5767 92.4031 80.3836 100.084 86.2586 103.531C92.1929 106.978 96.9404 104.922 96.9404 98.9348C96.9404 92.8869 92.1336 85.2062 86.2586 81.7589C80.3836 78.3117 75.5767 80.3679 75.5767 86.3553Z" fill="#306DC6"/>
<path d="M78.4251 88.0487C78.4251 92.4636 81.9264 98.0881 86.2584 100.628C90.5905 103.168 94.0918 101.656 94.0918 97.2414C94.0918 92.8265 90.5905 87.202 86.2584 84.6619C81.9264 82.1219 78.4251 83.6338 78.4251 88.0487Z" fill="#F6F5FB"/>
<path d="M81.3921 89.8025C81.3921 92.524 83.5879 96.0923 86.2583 97.6647C88.9288 99.2371 91.1245 98.33 91.1245 95.548C91.1245 92.8264 88.9288 89.2582 86.2583 87.6858C83.5879 86.1133 81.3921 87.0205 81.3921 89.8025Z" fill="#306DC6"/>
<path d="M84.3001 91.496C84.3001 92.5846 85.1903 94.036 86.2585 94.7013C87.3266 95.3666 88.2168 94.9432 88.2168 93.8546C88.2168 92.766 87.3266 91.3145 86.2585 90.6493C85.1903 89.984 84.3001 90.4074 84.3001 91.496Z" fill="#F6F5FB"/>
<path d="M72.1346 98.0276L66.9717 101.052L69.1674 102.019L74.3896 98.9348L72.1346 98.0276Z" fill="#39E5D4"/>
<path d="M72.1346 104.075L66.9717 107.099L69.1674 103.592L74.3896 100.507L72.1346 104.075Z" fill="#39E5D4"/>
<path d="M74.0338 99.1767L86.1992 91.9798C86.2586 91.9193 86.3773 91.9798 86.496 92.0402C86.7333 92.2217 86.9707 92.5845 86.9707 92.8869C86.9707 93.0684 86.9114 93.1893 86.7927 93.1893L69.0489 103.592L68.3961 102.442L74.0338 99.1767Z" fill="#235999"/>
<path d="M68.3366 102.745C68.3366 103.047 68.574 103.41 68.8114 103.592C69.0488 103.773 69.2861 103.592 69.2861 103.289C69.2861 102.987 69.0488 102.624 68.8114 102.443C68.574 102.322 68.3366 102.443 68.3366 102.745Z" fill="#2F6FAF"/>
<path d="M138.184 79.2792C138.184 79.2792 138.481 80.7307 138.422 81.1541C138.362 81.5774 138.125 82.3636 136.345 82.0612C134.565 81.7588 131.894 80.9726 131.479 80.1864C131.063 79.4002 132.369 79.0373 134.09 79.5816C135.158 79.884 135.989 79.2188 135.989 79.2188L138.184 79.2792Z" fill="#2B2B2B"/>
<path d="M145.543 66.5183C142.042 64.4016 136.345 61.3777 135.573 63.4944C134.505 66.5788 135.573 79.3397 135.573 79.3397C135.573 79.3397 137.116 80.3074 138.6 79.5212C138.837 74.441 139.015 68.4536 139.015 68.4536C139.015 68.4536 142.042 72.1428 145.543 73.4733V66.5183Z" fill="#04467C"/>
<path d="M134.386 73.1104V86.8995L136.048 90.5282L142.219 91.4958L146.729 88.8348V75.0457L134.386 73.1104Z" fill="#55C3FE"/>
<path d="M139.371 73.8967L134.386 73.1104V86.8995L136.048 90.5282L139.371 91.012V73.8967Z" fill="#098EB2"/>
<path d="M136.047 76.7392V90.5282L142.219 91.4959V77.7068L136.047 76.7392Z" fill="#179ECC"/>
<path d="M138.896 70.4494L145.068 71.4171L146.729 75.0458L142.219 77.7068L136.048 76.7392L134.386 73.1105L138.896 70.4494Z" fill="#97DFFF"/>
<path d="M147.501 45.8349C147.323 42.69 147.264 38.1541 147.264 36.8236C147.264 36.4003 147.798 35.0697 147.916 34.5859C147.976 34.344 146.433 33.6183 146.433 33.6183C146.433 33.6183 146.136 31.441 146.077 31.0782C146.017 30.7153 145.661 30.7758 145.602 31.7434C145.543 32.7111 145.661 34.1021 145.721 34.4045C145.721 34.7069 145.602 34.8883 145.602 34.8883C145.602 34.8883 145.483 34.1021 145.543 33.7392C145.661 33.3763 145.187 33.3763 145.009 34.0416C144.831 34.7069 144.949 35.0697 145.127 35.7955C145.187 36.0979 145.305 36.5212 145.365 36.8841C145.424 37.247 145.483 37.9727 145.483 38.4565C145.602 39.787 145.602 39.6661 145.424 43.2343C145.424 43.7181 145.721 47.4073 145.839 48.1935L145.127 46.5001C145.899 52.306 147.679 56.479 147.679 56.479L149.815 55.7533C149.756 55.7533 148.213 48.7378 147.501 45.8349Z" fill="#FCAF90"/>
<path d="M145.899 51.2174C146.492 54.4227 147.026 56.5395 147.026 56.5395L149.756 55.8137C149.756 55.8137 149.34 53.2132 148.806 50.4312C147.857 50.7941 146.848 50.915 145.899 51.2174Z" fill="white"/>
<path d="M122.696 63.1316L134.683 68.0909L139.549 62.4059L128.749 57.5071L122.696 63.1316Z" fill="#DFECF2"/>
<path d="M136.938 71.5986C136.938 71.5986 136.76 72.9896 136.641 73.3525C136.463 73.7153 136.107 74.3201 134.742 73.4734C133.437 72.6267 131.538 71.0543 131.478 70.2076C131.419 69.3609 132.487 69.4214 133.674 70.51C134.386 71.1148 135.276 70.8124 135.276 70.8124L136.938 71.5986Z" fill="#2B2B2B"/>
<path d="M132.784 83.3313C132.784 83.3313 133.199 84.7223 133.199 85.1456C133.14 85.569 133.021 86.3552 131.182 86.2342C129.342 86.1133 126.612 85.5085 126.197 84.7827C125.722 84.057 126.968 83.5127 128.748 83.936C129.817 84.178 130.588 83.3917 130.588 83.3917L132.784 83.3313Z" fill="#2B2B2B"/>
<path d="M141.923 71.4171C141.923 71.4171 129.817 64.5831 128.927 67.7884C128.096 70.9333 130.173 83.5733 130.173 83.5733C130.173 83.5733 131.834 84.42 133.199 83.5128C133.021 78.4326 132.725 72.4453 132.725 72.4453C132.725 72.4453 137.531 77.4045 141.864 77.223C146.136 77.0416 151.477 73.0501 148.451 67.9699C144.771 67.6675 141.923 71.4171 141.923 71.4171Z" fill="#3F2EA9"/>
<path d="M144.712 54.6646C144.712 54.6646 142.101 55.5718 141.151 58.1119C140.202 60.652 139.074 65.9136 139.074 65.9136L138.718 67.728C138.718 67.728 137.65 75.832 147.383 73.7153C151.299 72.8686 149.934 70.8123 149.994 70.1471C150.112 69.4818 149.638 67.3651 149.994 64.5831C150.35 61.8011 151.299 52.3665 146.255 53.1527C143.822 53.9389 144.712 54.6646 144.712 54.6646Z" fill="white"/>
<path d="M140.558 48.3749C140.558 48.3749 140.558 48.3749 140.499 48.4354C140.38 48.6773 140.083 49.4031 140.261 50.1288C140.439 50.915 139.609 51.2779 139.609 51.2779C139.609 51.2779 139.371 51.5198 139.787 51.6407C140.143 51.7617 140.38 51.8827 140.38 51.8827C140.38 51.8827 140.677 53.4551 140.855 53.697C140.973 53.9389 141.686 53.9389 142.279 53.9389C142.872 53.9389 143.347 54.9066 143.407 55.4509C145.128 55.0275 146.433 53.576 146.433 53.576L145.899 52.1851C145.84 52.1851 143.763 46.0767 140.558 48.3749Z" fill="#FCAF90"/>
<path d="M142.338 51.7012C142.338 51.7012 141.27 49.9473 141.567 49.0402C141.864 48.0725 140.38 48.6773 140.38 48.6773C140.38 48.6773 139.075 47.5282 139.431 46.3791C139.668 46.621 140.083 46.5606 140.083 46.5606L139.846 46.0163C139.846 46.0163 141.211 46.1977 141.567 46.0767C141.211 45.8953 141.033 45.472 141.033 45.472C141.033 45.472 142.457 45.7139 143.229 45.7139C143.941 45.7139 145.662 45.5929 146.136 47.0444C147.027 48.254 147.501 51.7012 146.018 52.6689C145.128 53.3341 144.593 53.0317 144.593 53.0317C144.593 53.0317 143.941 51.4593 143.881 50.794C143.763 50.1893 142.398 49.8869 142.635 51.036C142.754 51.6407 142.754 51.9431 142.754 51.9431L142.338 51.7012Z" fill="#333333"/>
<path d="M140.558 63.4946C140.558 63.4946 138.659 67.97 138.541 68.5748C137.235 68.0909 131.775 66.7604 130.47 66.5185C130.47 66.5185 129.995 65.7323 129.52 65.3694C129.105 65.0065 129.046 64.5832 129.046 64.3413C129.046 64.0994 128.511 63.8575 128.452 64.4622C128.393 65.1275 128.749 65.6113 128.749 65.6113L126.612 64.7646C126.612 64.7646 127.147 66.8209 129.876 67.9095C129.876 67.9095 133.556 69.7238 136.167 70.5705C138.778 71.4777 140.558 72.143 141.508 70.5101C142.457 68.8771 144.416 63.3736 144.416 63.3736L140.558 63.4946Z" fill="#FCAF90"/>
<path d="M139.549 65.3089C139.549 65.3089 140.855 58.7167 141.448 57.7491C142.042 56.721 144.594 56.479 145.424 58.5958C146.314 60.7125 144.119 66.6394 144.119 66.6394L139.549 65.3089Z" fill="white"/>
<path d="M43.6498 35.2512L72.3721 46.6816L59.9692 48.1935L43.6498 35.2512Z" fill="#F0FBFF"/>
<path d="M60.1475 48.1331L58.2485 53.6366L43.6499 35.2512L60.1475 48.1331Z" fill="#97DFFF"/>
<path d="M56.0523 49.4031L58.248 53.6366L43.6495 35.2512L56.0523 49.4031Z" fill="#55C3FE"/>
<path d="M43.6499 35.2512L47.5072 54.5438L56.0527 49.4031L43.6499 35.2512Z" fill="#F0FBFF"/>
<path d="M54.4506 15.6562L83.1729 27.0866L70.8294 28.5985L54.4506 15.6562Z" fill="#FB6C78"/>
<path d="M71.0073 28.5985L69.1083 34.0416L54.4504 15.6562L71.0073 28.5985Z" fill="#FF9FA8"/>
<path d="M66.9127 29.8686L69.1084 34.0416L54.4505 15.6562L66.9127 29.8686Z" fill="#CC6870"/>
<path d="M54.4505 15.6562L58.3078 34.9487L66.9126 29.8686L54.4505 15.6562Z" fill="#FB6C78"/>
<g filter="url(#filter3_d)">
<path d="M70.829 148.708H72.4313C73.1434 147.862 74.0929 147.076 75.2798 146.41C81.2141 142.963 90.7685 142.963 96.7028 146.41C97.8303 147.076 98.7205 147.801 99.3733 148.587H101.094V152.7C101.094 154.998 99.6106 157.236 96.6435 158.99C90.7091 162.437 81.1548 162.437 75.2204 158.99C72.2533 157.236 70.7697 154.998 70.7697 152.7L70.829 148.708Z" fill="#7A8389"/>
<path d="M100.323 148.527H101.094V152.639C101.094 154.938 99.6107 157.175 96.6435 158.929C96.6435 158.929 96.6435 158.929 96.5841 158.929V154.514C98.6612 153.547 99.492 150.765 100.323 148.527Z" fill="#F2C555"/>
<path d="M96.4655 154.635C96.5249 154.635 96.5842 154.575 96.6436 154.575V158.99C93.3203 160.925 88.8695 161.772 84.5375 161.53V157.175C88.5728 157.296 92.8456 156.268 96.4655 154.635Z" fill="#6DAAE2"/>
<path d="M70.8292 148.708H72.4315C73.1436 147.862 74.0931 147.076 75.28 146.41C81.2143 142.963 90.7687 142.963 96.703 146.41C97.8306 147.076 98.7207 147.801 99.3735 148.587H100.382C99.4922 150.825 98.7207 153.607 96.6437 154.635V154.031V154.635C96.5843 154.635 96.525 154.696 96.4656 154.696C92.8457 156.329 88.5729 157.357 84.5376 157.175V156.933V157.175C81.155 157.054 77.8911 156.147 75.3393 154.091V153.728V154.091C73.9744 153.002 72.7875 151.611 71.838 149.797C72.7875 151.551 73.9744 153.002 75.3393 154.091V159.05C75.3393 159.05 75.28 159.05 75.28 158.99C72.3128 157.236 70.8292 154.998 70.8292 152.7V148.708Z" fill="#CC6870"/>
<path d="M84.5376 157.175V161.53C81.155 161.348 77.8911 160.502 75.3394 158.99V154.031C77.8911 156.087 81.155 157.054 84.5376 157.175Z" fill="#02D1AF"/>
<path d="M75.28 154.998C81.2143 158.445 90.7687 158.445 96.703 154.998C102.637 151.551 102.637 145.866 96.703 142.419C90.7687 138.971 81.2143 138.971 75.28 142.419C69.3456 145.866 69.3456 151.551 75.28 154.998Z" fill="#6E777F"/>
<path d="M75.2796 142.419C81.2139 138.971 90.7683 138.971 96.7026 142.419C102.578 145.866 102.578 151.551 96.7026 154.998C96.7026 154.998 96.7026 154.998 96.6433 154.998L85.9614 148.708L75.2796 142.419C75.2202 142.419 75.2796 142.419 75.2796 142.419Z" fill="#F79800"/>
<path d="M99.4921 144.717C102.281 148.043 101.332 152.216 96.6436 154.998C96.6436 154.998 96.6436 154.998 96.5843 154.998L85.9024 148.708L99.4921 144.717Z" fill="#FEDC78"/>
<path d="M75.2801 154.998C69.405 151.551 69.3457 145.926 75.2207 142.419L85.9619 148.769L75.2801 154.998Z" fill="#FF505F"/>
<path d="M85.9617 148.769L96.6436 155.059C90.7092 158.506 81.2142 158.506 75.2799 155.059L85.9617 148.769Z" fill="#03F4D1"/>
<path d="M85.9617 148.769L96.6436 155.059C93.3203 156.994 88.8695 157.841 84.5968 157.599L85.9617 148.769Z" fill="#8EC2FC"/>
</g>
<path d="M51.9582 117.441C51.9582 117.441 51.8988 117.985 51.7208 118.348C51.5428 118.772 51.4834 119.558 51.4834 119.558C51.4834 119.558 52.8483 120.405 53.7385 121.433C54.7473 122.582 55.5781 122.703 56.3496 122.521C56.7057 122.461 56.8243 121.675 56.5276 121.372C56.2309 121.07 53.5605 119.135 53.6791 118.227C53.2637 117.744 51.9582 117.441 51.9582 117.441Z" fill="#353535"/>
<path d="M56.3496 122.098C55.5781 122.28 54.9847 122.159 53.7385 121.009C52.8483 120.102 51.6614 119.437 51.4834 119.256C51.4834 119.437 51.424 119.618 51.424 119.618C51.424 119.618 52.4922 120.223 53.4417 121.251C54.6879 122.521 55.5188 122.642 56.2902 122.461C56.5869 122.401 56.7056 121.977 56.6463 121.675C56.6463 121.917 56.5276 122.098 56.3496 122.098Z" fill="#5B5B5B"/>
<path d="M47.6852 105.527C47.6852 105.527 50.4744 107.462 53.9163 109.337C52.1953 112.18 52.0173 116.776 52.136 117.623C53.2042 118.651 53.9756 118.106 53.9756 118.106C53.9756 118.106 57.5363 110.123 58.011 108.853C58.4858 107.583 51.1865 101.777 51.1865 101.777L47.6852 105.527Z" fill="#3F2EA9"/>
<path d="M50.7713 125.061C50.7713 125.061 50.5339 126.513 50.3559 127.904C50.1778 129.234 50.4746 130.505 51.4241 130.988C52.3142 130.988 53.2637 130.202 52.9076 128.63C52.6109 127.057 52.7296 125.727 52.7296 125.001C52.789 124.215 50.7713 125.061 50.7713 125.061Z" fill="#353535"/>
<path d="M42.7598 108.611C42.7598 108.611 44.4808 109.579 48.3381 112.361C49.4657 113.208 49.525 120.102 50.6525 124.94C51.4834 126.452 52.8483 124.82 52.8483 124.82C52.8483 124.82 53.0263 114.054 52.1361 110.668C51.7801 109.337 46.6765 106.071 46.6765 106.071L42.7598 108.611Z" fill="#3F2EA9"/>
<path d="M54.0348 100.931C54.1535 100.87 54.2722 100.749 54.3315 100.628L53.6788 100.991C53.9162 100.931 54.0348 100.931 54.0348 100.931Z" fill="#E2E2E2"/>
<path d="M55.3406 99.0558C53.2636 99.7815 49.9403 94.8223 49.2876 94.3385C48.9908 94.0966 48.8722 93.6127 48.8722 93.0684H47.3292C47.7446 94.7618 48.3381 96.3947 48.5161 96.6971C48.9315 97.2414 53.5603 101.838 54.6285 100.084C54.035 99.6606 55.4593 99.842 55.3406 99.0558Z" fill="#EDF4F4"/>
<path d="M47.1512 107.341C47.0325 105.769 46.8545 104.257 47.2105 103.531C47.5073 102.926 47.0325 100.81 47.0325 100.81L39.7926 101.112C39.7926 101.112 38.7838 103.229 39.9113 106.253C40.5641 107.946 41.5136 108.43 45.9643 110.728C45.727 109.337 45.4303 106.978 47.1512 107.341Z" fill="#3F2EA9"/>
<path d="M49.2282 100.447C49.2282 100.447 50.2371 88.714 47.0919 87.444C43.9466 86.2344 41.0388 89.1373 39.7926 91.9798C38.5464 94.8223 39.0211 100.991 38.9618 102.261C43.2939 105.345 49.3469 101.898 49.2282 100.447Z" fill="#F7FFFF"/>
<path d="M47.9821 82.7267C47.9821 82.7267 48.7536 83.9967 48.0414 86.7788C47.448 89.0164 47.3887 89.6817 46.4985 89.7422C45.549 89.8631 43.5907 89.1979 43.294 87.3835C42.9972 87.3231 42.2258 86.2344 42.7005 85.3877C43.1753 84.5411 43.472 85.4482 43.472 85.4482C43.472 85.4482 43.472 83.5734 44.7775 82.9081C46.0238 82.3638 47.9821 82.7267 47.9821 82.7267Z" fill="#FCAF90"/>
<path d="M44.9554 84.9643C44.9554 84.8433 45.9643 86.2948 47.5072 85.811C46.9731 85.6296 46.8544 85.2667 46.8544 85.2667C46.8544 85.2667 47.3885 85.9924 48.2787 85.7505C47.8633 85.5691 47.6852 85.3876 47.6852 85.3876C47.6852 85.3876 48.2787 85.69 48.8721 85.4481C48.5161 85.2667 48.5754 85.0248 48.5754 85.0248C48.5754 85.0248 48.8721 85.3272 49.5249 84.7829C49.2875 84.7224 49.2875 83.5733 48.3974 82.7266C47.5072 81.8799 46.4984 81.0332 45.3115 81.2146C45.6082 80.9122 45.5489 80.7913 46.0236 80.9122C45.5489 80.6098 44.4807 80.8518 44.1246 81.3356C43.1751 80.9727 41.9882 82.4242 42.5817 85.9924C42.5817 85.9319 42.7004 85.3272 42.9971 85.2062C43.3532 85.0852 43.5905 85.7505 43.5312 85.9319C43.4718 86.1134 43.4125 87.1415 43.4125 87.1415L43.8279 87.3834C43.8279 87.3834 43.7092 86.4762 44.0059 86.2343C44.3027 85.9924 44.8961 86.3553 44.9554 84.9643Z" fill="#70380F"/>
<path d="M48.338 109.095L58.7231 102.987V102.503L41.9883 104.862V105.345L48.338 109.095Z" fill="#A0A0A0"/>
<path d="M48.338 108.611L58.7231 102.503L52.3734 98.7534L41.9883 104.862L48.338 108.611Z" fill="#D6D6D6"/>
<path d="M51.127 103.047C50.7116 102.987 50.1775 103.108 49.406 103.108C48.6346 103.108 48.6346 102.684 48.6346 102.019C48.3972 102.201 48.2192 102.684 47.8631 102.987C47.4477 103.289 47.2697 102.987 47.2697 102.987L47.2103 103.047C44.4212 102.563 41.8694 100.326 41.454 99.6C40.9792 98.8742 41.632 96.0317 41.7507 94.1569C41.7507 94.1569 41.3353 92.4635 39.8517 93.3102C38.3681 94.1569 39.1396 100.326 39.1396 101.051C39.1396 101.717 44.7179 104.257 47.329 104.499C47.7444 104.741 48.3378 104.983 48.8126 105.043C51.0676 105.104 51.5424 103.108 51.127 103.047Z" fill="url(#paint0_linear)"/>
<path d="M51.127 103.047C50.7116 102.987 50.1775 103.108 49.406 103.108C48.6346 103.108 48.6346 102.684 48.6346 102.019C48.3972 102.201 48.2192 102.684 47.8631 102.987C47.4477 103.289 47.2697 102.987 47.2697 102.987L47.2103 103.047C44.4212 102.564 41.8694 100.326 41.454 99.6001C41.1573 99.1767 41.3353 97.7857 41.5133 96.3947C41.6914 95.1247 42.5222 93.5522 42.3442 91.5564C42.3442 91.5564 42.2255 89.3792 40.7419 90.2259C39.9704 90.6493 39.3176 93.4313 38.9022 95.7295C38.5462 98.6324 38.7242 100.507 38.7242 100.991C38.7242 101.656 44.7179 104.257 47.329 104.499C47.7444 104.741 48.3378 104.983 48.8126 105.043C51.0676 105.104 51.5424 103.108 51.127 103.047Z" fill="#FCAF90"/>
<path d="M46.3203 102.503C44.0059 101.717 41.8102 100.265 41.4541 99.721C41.1574 99.2976 41.3355 97.9066 41.5135 96.5156C41.6915 95.2456 42.5223 93.6732 42.3443 91.6774C42.3443 91.6774 42.2256 89.5001 40.742 90.3468C39.9706 90.7702 39.3178 93.5522 38.9024 95.8504C38.5463 98.7533 38.7243 100.628 38.7243 101.112C38.7243 101.656 42.7597 103.833 45.6675 104.62C45.5489 104.136 45.8456 102.987 46.3203 102.503Z" fill="#EDF4F4"/>
<path d="M58.7231 95.0036L48.338 108.611L47.982 108.43V100.931L58.3671 94.8222L58.7231 95.0036Z" fill="white"/>
<path d="M58.7231 102.503L48.338 108.611V101.112L58.7231 95.0037V102.503Z" fill="#EFEFEF"/>
<path d="M115.396 56.479V54.6647L114.15 55.3299L111.895 53.9994C111.183 53.5761 109.996 53.5761 109.284 53.9994L86.7926 67.2442L85.487 66.5789V68.3933C85.487 68.6957 85.6651 68.9981 86.0211 69.24L88.9883 70.9938C89.7004 71.4172 90.8873 71.4172 91.5994 70.9938L114.803 57.3257C115.278 57.0838 115.456 56.7814 115.396 56.479Z" fill="#55C3FE"/>
<path d="M86.7927 67.2441L85.4871 66.5789V68.3932C85.4871 68.6956 85.6651 68.998 86.0212 69.2399L88.9884 70.9938C89.3444 71.1752 89.8192 71.2962 90.2939 71.2962V65.1274L86.7927 67.2441Z" fill="#179ECC"/>
<path d="M88.9879 69.0584C89.7 69.4818 90.8869 69.4818 91.599 69.0584L114.802 55.3903C115.514 54.967 115.514 54.2413 114.802 53.8179L111.835 52.064C111.123 51.6407 109.936 51.6407 109.224 52.064L86.0207 65.7321C85.3086 66.1555 85.3086 66.8812 86.0207 67.3046L88.9879 69.0584Z" fill="#97DFFF"/>
<path d="M122.933 11.8461L121.39 10.9389C121.331 10.9389 121.331 10.8784 121.271 10.8784C121.153 10.8179 120.915 10.8179 120.737 10.9389L77.0605 36.7026C76.5857 37.005 76.2297 37.6703 76.2297 38.2146V72.3848C76.2297 72.6872 76.3484 72.8686 76.4671 72.9291C76.4671 72.9291 76.5264 72.9291 76.5264 72.9896L78.01 73.8968L78.3067 72.2034L77.832 72.3848L120.737 47.1654C121.212 46.863 121.568 46.1977 121.568 45.6534V12.8137L122.933 11.8461Z" fill="#35AFE5"/>
<path d="M121.39 10.9389C121.331 10.9389 121.331 10.8784 121.271 10.8784C121.153 10.8179 120.915 10.8179 120.737 10.9389L77.0603 36.7026C76.8823 36.8236 76.6449 37.005 76.5262 37.2469L105.723 56.0557L120.737 47.1654C121.212 46.863 121.568 46.1977 121.568 45.6534V12.8137L122.874 11.9065L121.39 10.9389Z" fill="#97DFFF"/>
<path d="M123.17 46.6211C123.17 47.1654 122.814 47.8307 122.34 48.1331L78.6627 73.8364C78.188 74.1387 77.8319 73.8968 77.8319 73.3525V39.1218C77.8319 38.5775 78.188 37.9123 78.6627 37.6099L122.34 11.9066C122.814 11.6042 123.17 11.8461 123.17 12.3904V46.6211Z" fill="#55C3FE"/>
<path d="M122.34 44.0809L78.6036 69.8447V39.0612L122.34 13.2975V44.0809Z" fill="#F0FBFF"/>
<path d="M121.924 13.5999V43.7785L78.6036 69.2399V69.8447L122.34 44.0809V13.2975L121.924 13.5999Z" fill="white"/>
<path d="M78.4842 144.293C78.4842 144.293 76.9412 143.87 76.6445 143.87C76.3478 143.87 75.6357 143.87 75.517 144.112C75.3983 144.354 75.2203 148.224 75.4576 149.011C75.695 149.797 78.3061 150.039 78.8402 149.736C79.1963 149.011 77.9501 148.164 77.4753 147.862C76.9412 147.62 77.594 146.108 78.3061 146.108C79.0183 146.108 78.4842 144.293 78.4842 144.293Z" fill="#2D2D2D"/>
<path d="M75.5169 144.052C75.5169 143.991 75.5763 143.991 75.6356 143.931C76.1697 143.87 76.5851 144.173 76.4665 144.414C76.3478 144.656 75.8137 148.285 76.7038 149.253C77.1786 149.737 78.3655 149.737 78.4248 149.797C75.9917 149.797 75.6356 149.313 75.5169 148.95C75.2202 148.164 75.3983 144.293 75.5169 144.052Z" fill="#444444"/>
<path d="M83.5881 122.279C83.5881 122.279 81.8671 124.154 81.6298 130.504C81.9858 131.714 84.953 131.049 85.309 130.504C85.6651 129.96 85.309 128.871 85.309 128.871H83.8255L84.3002 125.787L83.5881 122.279Z" fill="#EDF4F4"/>
<path d="M77.7721 143.81L86.1988 145.201C86.6736 144.535 85.2494 141.209 84.7746 140.12C83.2317 137.217 85.6054 134.496 85.6054 134.496L89.4034 133.347C89.4034 133.347 91.4804 143.507 92.1926 145.684C93.4388 149.616 81.2733 147.438 77.6534 146.773C77.7127 146.35 78.4248 144.535 77.7721 143.81Z" fill="#3F2EA9"/>
<path d="M83.1727 147.741C83.1727 147.741 81.6297 147.317 81.333 147.317C81.0363 147.317 80.3242 147.317 80.2055 147.559C80.0868 147.801 79.9088 151.672 80.1462 152.458C80.3835 153.244 82.9946 153.486 83.5287 153.184C83.8848 152.458 82.6386 151.611 82.1638 151.309C81.6297 151.067 82.2825 149.555 82.9946 149.555C83.7067 149.555 83.1727 147.741 83.1727 147.741Z" fill="#2D2D2D"/>
<path d="M80.2054 147.499C80.2054 147.438 80.2648 147.438 80.3241 147.378C80.8582 147.317 81.2736 147.62 81.1549 147.862C81.0362 148.104 80.5022 151.732 81.3923 152.7C81.8671 153.184 83.0539 153.184 83.1133 153.244C80.6802 153.244 80.3241 152.76 80.2054 152.398C79.9087 151.611 80.1461 147.801 80.2054 147.499Z" fill="#444444"/>
<path d="M82.3417 147.317L90.7091 146.834C91.1839 146.168 88.5728 143.326 88.098 142.237C85.843 137.883 86.199 135.887 86.199 135.887L93.2609 135.585C93.2609 135.585 95.3973 144.354 95.9907 147.559C96.7028 151.672 89.1662 148.89 82.5791 150.402C82.6384 149.857 83.0538 147.922 82.3417 147.317Z" fill="#4545C9"/>
<path d="M90.2936 114.538C90.2936 114.538 91.4211 114.478 91.8959 115.748C91.9552 115.929 92.0146 116.111 91.9552 116.353C91.8959 116.715 92.0146 117.26 92.1926 117.683C92.4893 118.409 92.0146 119.739 91.5398 120.405C90.9464 120.646 90.4716 120.163 90.4716 120.163L90.1156 121.554L87.089 120.888C87.089 120.888 87.4451 119.8 87.0297 118.106C86.6143 116.413 86.733 115.566 87.8012 114.962C88.8694 114.357 90.2936 114.538 90.2936 114.538Z" fill="#FCAF90"/>
<path d="M91.3619 112.482C91.3619 112.482 90.5904 113.026 88.1573 113.268C85.7243 113.51 85.7243 115.203 86.0803 116.111C85.3682 116.413 86.9705 119.014 87.0298 120.102C88.3947 120.586 89.4629 119.86 89.4629 119.86C89.4629 119.86 89.9377 119.014 89.5816 118.106C89.2255 117.199 89.819 116.292 90.175 116.534C90.2344 116.594 90.4124 118.046 90.4718 118.046C90.5311 118.046 90.6498 118.046 90.6498 118.046C90.7685 118.046 90.5904 117.623 90.7091 117.018C90.7685 116.715 91.1245 116.05 91.1245 115.869C91.0652 115.627 90.8278 114.962 90.8278 114.962L91.3026 114.901C91.3026 114.901 91.896 114.962 91.8366 114.357C91.8366 113.329 91.3619 112.482 91.3619 112.482Z" fill="#1C0687"/>
<path d="M94.2103 124.094C94.2103 124.094 92.9048 122.521 90.1156 121.433C88.81 120.949 87.3265 120.767 87.3265 120.767C87.3265 120.767 85.0714 120.405 83.4691 122.521C82.9944 123.126 82.4009 124.759 83.2911 127.057C84.1812 129.355 83.9439 132.198 84.1219 133.347C84.2999 134.798 83.9439 138.79 83.9439 138.79C83.9439 138.79 84.0032 139.092 86.0802 139.516L87.1484 139.697C89.2254 139.939 91.6585 140.06 94.6851 138.548C94.3883 136.855 93.6762 133.105 93.3795 131.533C92.9641 130.021 94.2103 124.094 94.2103 124.094Z" fill="#F7FFFF"/>
<path d="M102.756 116.776C102.756 116.776 103.171 115.929 103.29 115.264C103.409 114.599 103.587 114.054 104.002 113.631C104.358 113.208 105.426 112.421 105.545 112.361C105.664 112.301 106.02 112.421 105.664 112.724C105.308 113.026 104.833 113.51 104.833 113.752C104.833 113.933 105.664 114.841 105.308 115.566C104.952 116.292 105.07 115.748 104.002 117.441C102.993 118.53 102.756 116.776 102.756 116.776Z" fill="#FCAF90"/>
<path d="M90.9465 123.61C90.9465 123.61 91.6586 122.461 94.151 123.549C96.6435 124.638 99.1952 123.61 99.1952 123.61C99.1952 123.61 101.866 117.199 102.34 116.715C104.121 117.502 104.417 117.623 104.417 117.623C104.417 117.623 102.578 124.154 101.569 125.848C100.56 127.541 96.4061 127.722 94.151 127.541C92.0147 127.36 90.3531 125.303 90.9465 123.61Z" fill="#EDF4F4"/>
<g opacity="0.4">
<g opacity="0.4">
<g opacity="0.4">
<g opacity="0.4">
<path opacity="0.4" d="M84.4189 63.4944L110.233 48.3144V48.133L84.4189 63.313V63.4944Z" fill="#A3A3A3"/>
</g>
<g opacity="0.4">
<path opacity="0.4" d="M84.4189 61.1358L110.233 45.8953V45.7139L84.4189 60.8939V61.1358Z" fill="#A3A3A3"/>
</g>
<g opacity="0.4">
<path opacity="0.4" d="M84.4189 58.7168L110.233 43.4762V43.2948L84.4189 58.4748V58.7168Z" fill="#A3A3A3"/>
</g>
<g opacity="0.4">
<path opacity="0.4" d="M84.4189 56.2976L110.233 41.1176V40.8756L84.4189 56.0557V56.2976Z" fill="#A3A3A3"/>
</g>
<g opacity="0.4">
<path opacity="0.4" d="M84.4189 53.8785L110.233 38.6985V38.4565L84.4189 53.6366V53.8785Z" fill="#A3A3A3"/>
</g>
<g opacity="0.4">
<path opacity="0.4" d="M84.4189 51.4593L110.233 36.2793V36.0374L84.4189 51.2174V51.4593Z" fill="#A3A3A3"/>
</g>
<g opacity="0.4">
<path opacity="0.4" d="M84.4189 49.0401L110.233 33.8601V33.6182L84.4189 48.8587V49.0401Z" fill="#A3A3A3"/>
</g>
<g opacity="0.4">
<path opacity="0.4" d="M84.4189 46.5001L110.233 31.3201V31.0782L84.4189 46.2582V46.5001Z" fill="#A3A3A3"/>
</g>
<g opacity="0.4">
<path opacity="0.4" d="M84.4189 44.081L110.233 28.9009V28.659L84.4189 43.8391V44.081Z" fill="#A3A3A3"/>
</g>
<g opacity="0.4">
<path opacity="0.4" d="M84.4189 41.6619L110.233 26.4818V26.2399L84.4189 41.42V41.6619Z" fill="#A3A3A3"/>
</g>
</g>
</g>
</g>
<path d="M84.5378 63.5549L88.2171 45.0486L91.3623 49.282L94.3295 42.5085L97.1779 40.5732L100.086 35.5535L102.816 46.1372L106.198 39.6055L109.462 48.7377L109.759 48.6168L106.258 38.7588L102.934 45.23L100.204 34.6463L96.9406 40.3313L94.0921 42.2666L91.3029 48.6168L88.039 44.2624L84.2411 63.4944L84.5378 63.5549Z" fill="url(#paint1_linear)"/>
<path d="M84.5378 63.555L88.1577 46.4396L91.3623 51.7617L94.3295 45.2301L97.1779 45.593L100.145 40.6942L102.816 46.0163L106.198 40.8152L109.462 48.7378L109.759 48.6169L106.258 40.0894L102.875 45.351L100.204 39.9685L96.9999 45.2301L94.0921 44.8672L91.3029 51.036L88.039 45.5325L84.2411 63.4945L84.5378 63.555Z" fill="#F2E941"/>
<path d="M84.5378 63.555L88.2171 53.5156L91.481 53.6971L94.2701 46.984L97.0593 50.1288L100.204 46.1373L102.875 47.3468L106.198 43.8996L109.462 48.7983L109.759 48.6169L106.258 43.3553L102.816 46.984L100.086 45.7744L97.0593 49.5845L94.1514 46.3792L91.2436 53.3342L87.9797 53.1527L84.2411 63.4341L84.5378 63.555Z" fill="#6B79FC"/>
<path d="M84.5375 63.6154L88.2168 56.9023L91.4807 56.5395L94.3292 49.9473L97.1184 50.7335L100.145 47.7096L102.875 49.9473L106.257 46.5605L109.521 48.7982L109.699 48.5563L106.257 46.0767L102.875 49.524L100.145 47.2863L97.059 50.3707L94.0918 49.524L91.2433 56.2371L88.0388 56.5999L84.2408 63.434L84.5375 63.6154Z" fill="#FF505F"/>
<path d="M109.699 49.1006C109.502 49.1006 109.343 48.884 109.343 48.6168C109.343 48.3496 109.502 48.133 109.699 48.133C109.896 48.133 110.055 48.3496 110.055 48.6168C110.055 48.884 109.896 49.1006 109.699 49.1006Z" fill="#24C1D1"/>
<path d="M106.257 46.9839C106.061 46.9839 105.901 46.7673 105.901 46.5001C105.901 46.2329 106.061 46.0162 106.257 46.0162C106.454 46.0162 106.613 46.2329 106.613 46.5001C106.613 46.7673 106.454 46.9839 106.257 46.9839Z" fill="#24C1D1"/>
<path d="M106.257 44.081C106.061 44.081 105.901 43.8643 105.901 43.5971C105.901 43.3299 106.061 43.1133 106.257 43.1133C106.454 43.1133 106.613 43.3299 106.613 43.5971C106.613 43.8643 106.454 44.081 106.257 44.081Z" fill="#24C1D1"/>
<path d="M106.257 40.9361C106.061 40.9361 105.901 40.7195 105.901 40.4523C105.901 40.1851 106.061 39.9685 106.257 39.9685C106.454 39.9685 106.613 40.1851 106.613 40.4523C106.613 40.7195 106.454 40.9361 106.257 40.9361Z" fill="#24C1D1"/>
<path d="M106.257 39.6661C106.061 39.6661 105.901 39.4495 105.901 39.1823C105.901 38.9151 106.061 38.6985 106.257 38.6985C106.454 38.6985 106.613 38.9151 106.613 39.1823C106.613 39.4495 106.454 39.6661 106.257 39.6661Z" fill="#24C1D1"/>
<path d="M100.204 35.614C100.008 35.614 99.8484 35.3973 99.8484 35.1301C99.8484 34.8629 100.008 34.6463 100.204 34.6463C100.401 34.6463 100.561 34.8629 100.561 35.1301C100.561 35.3973 100.401 35.614 100.204 35.614Z" fill="#24C1D1"/>
<path d="M100.086 40.8152C99.8892 40.8152 99.7298 40.5986 99.7298 40.3314C99.7298 40.0641 99.8892 39.8475 100.086 39.8475C100.282 39.8475 100.442 40.0641 100.442 40.3314C100.442 40.5986 100.282 40.8152 100.086 40.8152Z" fill="#24C1D1"/>
<path d="M100.204 46.5001C100.008 46.5001 99.8484 46.2834 99.8484 46.0162C99.8484 45.749 100.008 45.5324 100.204 45.5324C100.401 45.5324 100.561 45.749 100.561 46.0162C100.561 46.2834 100.401 46.5001 100.204 46.5001Z" fill="#24C1D1"/>
<path d="M100.204 48.133C100.008 48.133 99.8484 47.9164 99.8484 47.6492C99.8484 47.382 100.008 47.1654 100.204 47.1654C100.401 47.1654 100.561 47.382 100.561 47.6492C100.561 47.9164 100.401 48.133 100.204 48.133Z" fill="#24C1D1"/>
<path d="M97.1186 51.0965C96.9219 51.0965 96.7625 50.8799 96.7625 50.6127C96.7625 50.3455 96.9219 50.1288 97.1186 50.1288C97.3152 50.1288 97.4746 50.3455 97.4746 50.6127C97.4746 50.8799 97.3152 51.0965 97.1186 51.0965Z" fill="#24C1D1"/>
<path d="M97.1186 50.1893C96.9219 50.1893 96.7625 49.9727 96.7625 49.7055C96.7625 49.4383 96.9219 49.2216 97.1186 49.2216C97.3152 49.2216 97.4746 49.4383 97.4746 49.7055C97.4746 49.9727 97.3152 50.1893 97.1186 50.1893Z" fill="#24C1D1"/>
<path d="M97.1186 45.8348C96.9219 45.8348 96.7625 45.6182 96.7625 45.351C96.7625 45.0838 96.9219 44.8672 97.1186 44.8672C97.3152 44.8672 97.4746 45.0838 97.4746 45.351C97.4746 45.6182 97.3152 45.8348 97.1186 45.8348Z" fill="#24C1D1"/>
<path d="M97.1186 40.9361C96.9219 40.9361 96.7625 40.7195 96.7625 40.4523C96.7625 40.1851 96.9219 39.9685 97.1186 39.9685C97.3152 39.9685 97.4746 40.1851 97.4746 40.4523C97.4746 40.7195 97.3152 40.9361 97.1186 40.9361Z" fill="#24C1D1"/>
<path d="M94.2103 42.9319C94.0137 42.9319 93.8543 42.7153 93.8543 42.4481C93.8543 42.1809 94.0137 41.9643 94.2103 41.9643C94.407 41.9643 94.5664 42.1809 94.5664 42.4481C94.5664 42.7153 94.407 42.9319 94.2103 42.9319Z" fill="#24C1D1"/>
<path d="M94.2103 45.472C94.0137 45.472 93.8543 45.2553 93.8543 44.9881C93.8543 44.7209 94.0137 44.5043 94.2103 44.5043C94.407 44.5043 94.5664 44.7209 94.5664 44.9881C94.5664 45.2553 94.407 45.472 94.2103 45.472Z" fill="#24C1D1"/>
<path d="M94.2103 47.2259C94.0137 47.2259 93.8543 47.0093 93.8543 46.7421C93.8543 46.4749 94.0137 46.2582 94.2103 46.2582C94.407 46.2582 94.5664 46.4749 94.5664 46.7421C94.5664 47.0093 94.407 47.2259 94.2103 47.2259Z" fill="#24C1D1"/>
<path d="M94.2103 50.3708C94.0137 50.3708 93.8543 50.1541 93.8543 49.8869C93.8543 49.6197 94.0137 49.4031 94.2103 49.4031C94.407 49.4031 94.5664 49.6197 94.5664 49.8869C94.5664 50.1541 94.407 50.3708 94.2103 50.3708Z" fill="#24C1D1"/>
<path d="M91.3026 56.9628C91.106 56.9628 90.9466 56.7462 90.9466 56.479C90.9466 56.2118 91.106 55.9952 91.3026 55.9952C91.4993 55.9952 91.6587 56.2118 91.6587 56.479C91.6587 56.7462 91.4993 56.9628 91.3026 56.9628Z" fill="#24C1D1"/>
<path d="M91.3026 53.9389C91.106 53.9389 90.9466 53.7223 90.9466 53.4551C90.9466 53.1879 91.106 52.9713 91.3026 52.9713C91.4993 52.9713 91.6587 53.1879 91.6587 53.4551C91.6587 53.7223 91.4993 53.9389 91.3026 53.9389Z" fill="#24C1D1"/>
<path d="M91.3026 51.7618C91.106 51.7618 90.9466 51.5452 90.9466 51.278C90.9466 51.0108 91.106 50.7942 91.3026 50.7942C91.4993 50.7942 91.6587 51.0108 91.6587 51.278C91.6587 51.5452 91.4993 51.7618 91.3026 51.7618Z" fill="#24C1D1"/>
<path d="M91.3026 49.403C91.106 49.403 90.9466 49.1864 90.9466 48.9192C90.9466 48.652 91.106 48.4353 91.3026 48.4353C91.4993 48.4353 91.6587 48.652 91.6587 48.9192C91.6587 49.1864 91.4993 49.403 91.3026 49.403Z" fill="#24C1D1"/>
<path d="M88.098 45.0486C87.9014 45.0486 87.742 44.832 87.742 44.5648C87.742 44.2976 87.9014 44.081 88.098 44.081C88.2947 44.081 88.4541 44.2976 88.4541 44.5648C88.4541 44.832 88.2947 45.0486 88.098 45.0486Z" fill="#24C1D1"/>
<path d="M88.098 46.3187C87.9014 46.3187 87.742 46.1021 87.742 45.8349C87.742 45.5677 87.9014 45.3511 88.098 45.3511C88.2947 45.3511 88.4541 45.5677 88.4541 45.8349C88.4541 46.1021 88.2947 46.3187 88.098 46.3187Z" fill="#24C1D1"/>
<path d="M88.098 53.8785C87.9014 53.8785 87.742 53.6619 87.742 53.3947C87.742 53.1274 87.9014 52.9108 88.098 52.9108C88.2947 52.9108 88.4541 53.1274 88.4541 53.3947C88.4541 53.6619 88.2947 53.8785 88.098 53.8785Z" fill="#24C1D1"/>
<path d="M88.098 57.2652C87.9014 57.2652 87.742 57.0486 87.742 56.7814C87.742 56.5142 87.9014 56.2975 88.098 56.2975C88.2947 56.2975 88.4541 56.5142 88.4541 56.7814C88.4541 57.0486 88.2947 57.2652 88.098 57.2652Z" fill="#24C1D1"/>
<path d="M84.4188 63.9179C84.2222 63.9179 84.0628 63.7012 84.0628 63.434C84.0628 63.1668 84.2222 62.9502 84.4188 62.9502C84.6155 62.9502 84.7749 63.1668 84.7749 63.434C84.7749 63.7012 84.6155 63.9179 84.4188 63.9179Z" fill="#24C1D1"/>
<path d="M102.815 47.5283C102.619 47.5283 102.459 47.3116 102.459 47.0444C102.459 46.7772 102.619 46.5606 102.815 46.5606C103.012 46.5606 103.171 46.7772 103.171 47.0444C103.171 47.3116 103.012 47.5283 102.815 47.5283Z" fill="#24C1D1"/>
<path d="M102.934 46.2582C102.737 46.2582 102.578 46.0416 102.578 45.7744C102.578 45.5072 102.737 45.2906 102.934 45.2906C103.131 45.2906 103.29 45.5072 103.29 45.7744C103.29 46.0416 103.131 46.2582 102.934 46.2582Z" fill="#24C1D1"/>
<path d="M102.934 50.0683C102.737 50.0683 102.578 49.8517 102.578 49.5845C102.578 49.3173 102.737 49.1006 102.934 49.1006C103.131 49.1006 103.29 49.3173 103.29 49.5845C103.29 49.8517 103.131 50.0683 102.934 50.0683Z" fill="#24C1D1"/>
<path d="M103.824 32.1063C103.824 32.1063 103.112 31.8039 102.934 31.3805C102.756 31.0177 102.815 30.9572 102.637 30.7153C102.459 30.4734 102.163 29.9895 101.866 29.8081C101.569 29.6871 101.629 30.171 101.747 30.2919C101.866 30.4129 101.985 30.7758 101.985 30.7758C101.985 30.7758 100.501 29.9291 100.145 29.9291C99.7889 29.9291 100.086 30.2919 100.145 30.3524C99.7295 30.171 99.6108 30.2919 99.6108 30.2919C99.5515 30.2919 99.5515 30.5338 99.8482 30.6548C99.7295 30.5338 99.3735 30.7153 100.026 31.1991C99.6702 31.0177 99.6702 31.3201 99.9075 31.5015C100.086 31.6829 100.976 32.5296 101.866 32.5901C102.756 32.6506 103.349 33.0739 103.349 33.0739L103.824 32.1063Z" fill="#FCAF90"/>
<path d="M103.705 31.5016C103.705 31.5016 110.352 33.6183 110.886 34.3441C111.42 34.9488 115.099 27.0867 115.99 26.7238C116.82 26.3609 118.185 28.2357 117.295 30.6549C115.456 35.4327 111.539 38.0332 110.708 37.5494C109.877 37.1261 102.815 33.4974 102.815 33.4974C102.815 33.4974 102.934 32.4087 103.705 31.5016Z" fill="#2C4370"/>
<path d="M115.752 67.4256C115.752 67.4256 115.515 67.849 115.218 68.3328C114.921 68.8166 114.031 68.8166 113.853 69.0585C113.675 69.3004 113.675 70.1471 113.675 70.1471C113.675 70.1471 114.803 70.389 115.811 69.7843C116.82 69.1795 117.71 68.7561 117.71 68.7561C117.71 68.7561 117.71 67.607 117.651 67.4256C117.532 67.2442 115.752 67.4256 115.752 67.4256Z" fill="#282828"/>
<path d="M115.811 69.5424C116.82 68.9376 117.651 68.5143 117.71 68.5143C117.71 68.6957 117.71 68.8167 117.71 68.8167C117.71 68.8167 116.82 69.24 115.811 69.8448C114.803 70.4496 113.675 70.2077 113.675 70.2077C113.675 70.2077 113.675 70.0867 113.675 69.9053C113.675 69.9053 114.803 70.0867 115.811 69.5424Z" fill="#1C1C1C"/>
<path d="M120.618 45.0487C120.618 45.0487 118.422 52.548 118.244 54.4833C118.007 56.4186 118.66 62.8293 117.71 67.4256C116.405 68.0909 115.871 67.7885 115.871 67.7885L115.633 67.1837C115.633 67.1837 114.743 56.8419 114.743 54.4228C114.802 52.0037 115.218 45.1696 115.218 45.1696L120.618 45.0487Z" fill="#17253D"/>
<path d="M119.432 68.8166C119.432 68.8166 119.194 69.2399 118.898 69.7238C118.601 70.2076 117.711 70.5705 117.533 70.8124C117.355 71.0543 117.355 71.901 117.355 71.901C117.355 71.901 118.72 72.0824 119.729 71.4776C120.737 70.8729 121.39 70.0866 121.39 70.0866C121.39 70.0866 121.39 68.9376 121.271 68.7561C121.212 68.6352 119.432 68.8166 119.432 68.8166Z" fill="#282828"/>
<path d="M117.414 71.5986C117.414 71.5986 118.779 71.78 119.788 71.1752C120.737 70.5704 121.39 69.9052 121.449 69.7842C121.449 69.9656 121.449 70.1471 121.449 70.1471C121.449 70.1471 120.796 70.8728 119.788 71.5381C118.779 72.1429 117.414 71.9614 117.414 71.9614C117.414 71.9614 117.355 71.78 117.414 71.5986Z" fill="#1C1C1C"/>
<path d="M123.882 46.3792C123.882 46.3792 121.865 53.939 121.687 55.8743C121.509 57.8096 122.458 64.3412 121.568 68.9376C120.262 69.6633 119.728 69.4819 119.728 69.4819L119.254 68.9376C119.254 68.9376 118.245 58.2329 118.245 55.8138C118.245 53.3947 118.482 46.5606 118.482 46.5606L123.882 46.3792Z" fill="#1B2A49"/>
<path d="M120.203 25.3328C120.203 25.3328 124.12 26.5424 125.485 29.3848C126.79 32.2273 125.069 35.9165 125.129 36.8237C125.129 37.7308 124.951 47.1654 124.951 47.1654L117.889 47.2864L117.117 45.5325L116.168 46.8026L114.625 45.3511C114.625 45.3511 115.218 36.8841 115.1 35.0698C114.981 33.3159 114.209 28.6591 115.752 26.4214C116.999 25.7561 119.847 25.2118 120.203 25.3328Z" fill="#27365B"/>
<path d="M121.687 25.756C121.687 25.756 123.23 27.0261 123.052 27.8728C122.874 28.7195 117.829 33.1344 117.651 34.344C116.761 32.5901 117.889 27.3285 118.423 26.3003C118.957 25.3327 121.687 25.756 121.687 25.756Z" fill="#EFEFEF"/>
<path d="M121.805 23.4579L122.042 26.4214L119.55 28.1147L119.075 27.4495L118.897 25.7561L121.805 23.4579Z" fill="#EA977A"/>
<path d="M117.236 20.9178C117.236 20.9178 116.523 25.4537 118.778 26.5423C119.728 26.7238 121.686 25.3932 121.686 23.9418C122.458 23.7603 122.458 22.2484 122.102 21.946C121.686 21.6436 121.568 22.4903 121.568 22.4903C121.568 22.4903 121.924 20.434 120.737 20.434C119.491 20.3735 117.236 20.9178 117.236 20.9178Z" fill="#FCAF90"/>
<path d="M120.855 21.0992C120.855 21.0992 119.016 22.1274 118.007 21.9459C116.998 21.7645 116.701 21.2807 116.583 20.7364C116.405 20.1921 119.669 15.8981 122.339 19.1035C123.526 19.5268 123.17 23.6393 121.924 24.3046C121.924 24.1836 121.864 23.9417 121.864 23.9417C121.864 23.9417 122.28 23.4579 122.22 22.8531C122.161 22.3088 122.042 22.1274 121.924 22.1274C121.805 22.1274 121.568 22.5507 121.508 22.7322C121.449 22.9741 121.508 23.216 121.508 23.216L121.212 23.2765C121.212 23.2765 121.212 22.7322 121.152 22.5507C121.034 22.3088 120.499 21.4621 120.855 21.0992Z" fill="#BC610F"/>
<path d="M119.55 28.1148L119.965 29.022L119.431 29.3848L118.838 32.5902L117.592 34.4045C117.592 34.4045 117.117 33.7393 117.236 32.2273C118.126 30.7153 118.778 29.3243 118.778 29.3243L118.66 28.5986L119.55 28.1148Z" fill="#CC6870"/>
<path d="M121.331 47.1048L122.874 47.6491C122.874 47.6491 122.102 48.6168 122.221 49.0401C122.339 49.403 122.221 49.8263 122.043 50.1287L120.5 48.0725C121.093 47.5887 121.331 47.1048 121.331 47.1048Z" fill="#FCAF90"/>
<path d="M120.796 47.4678C120.796 47.4678 123.526 40.15 124.357 39.5452C125.069 39.0009 123.407 33.1345 123.051 32.1668C122.695 31.1992 123.942 27.51 125.603 29.8082C127.265 32.0459 128.036 39.7266 127.561 40.6943C127.087 41.6619 122.636 48.8588 122.636 48.8588C122.636 48.8588 121.805 48.375 120.796 47.4678Z" fill="#2C4370"/>
<g filter="url(#filter4_d)">
<path d="M115.515 170.238C115.278 170.118 115.04 169.997 114.862 169.876C114.625 169.755 114.447 169.634 114.269 169.513C114.269 169.513 114.269 168.847 114.269 168.787C114.803 168.243 115.515 168.303 115.278 168.061C115.04 167.819 113.794 167.759 112.726 167.698C112.548 167.336 112.488 167.033 112.488 166.67V165.945C113.497 165.703 114.684 166.126 114.743 165.824C114.803 165.582 113.853 165.098 113.022 164.675V163.949C114.091 164.07 116.108 164.07 116.464 163.888C116.82 163.707 116.464 162.981 116.227 162.316V161.59C116.999 162.074 119.313 162.86 119.788 162.86C120.262 162.8 120.678 162.134 121.153 161.53C121.746 161.53 122.28 161.59 122.874 161.711C122.992 162.376 123.052 163.102 123.467 163.223C123.882 163.344 124.891 162.921 125.9 162.618C126.137 162.739 126.968 162.558 127.146 162.679V163.404C126.612 163.949 125.9 164.614 126.137 164.856C126.375 165.098 127.799 165.219 128.867 165.279C129.045 165.582 128.927 165.884 128.927 166.247C127.918 166.489 126.731 166.791 126.672 167.033C126.612 167.275 127.621 167.094 128.392 167.517V168.243C128.214 168.545 127.918 168.847 127.621 169.15C126.553 169.029 125.307 168.847 125.01 169.029C124.713 169.21 125.01 169.271 125.247 169.876C125.247 169.936 125.247 170.541 125.247 170.601C124.773 170.783 124.238 170.964 123.704 171.085C122.933 170.601 122.161 170.057 121.746 170.057C121.271 170.118 120.856 170.783 120.381 171.388C119.788 171.388 119.194 171.327 118.66 171.206C118.541 170.541 118.482 169.815 118.067 169.694C117.533 169.513 116.464 169.876 115.515 170.238ZM123.526 168.122C125.129 167.215 125.129 165.703 123.526 164.735C121.924 163.828 119.372 163.828 117.77 164.735C116.168 165.642 116.168 167.154 117.77 168.122C119.372 169.089 121.924 169.089 123.526 168.122Z" fill="#CC6870"/>
<path d="M115.515 169.513C115.278 169.392 115.041 169.271 114.863 169.15C114.625 169.029 114.447 168.908 114.269 168.787C114.803 168.243 115.515 167.577 115.278 167.396C115.041 167.154 113.794 167.094 112.726 167.033C112.548 166.67 112.489 166.368 112.489 166.005C113.498 165.763 114.685 165.461 114.744 165.219C114.803 164.977 113.854 164.493 113.023 164.07C113.201 163.767 113.498 163.465 113.794 163.163C114.863 163.284 116.109 163.465 116.406 163.284C116.762 163.102 116.406 162.376 116.168 161.711C116.643 161.53 117.177 161.348 117.711 161.227C118.483 161.711 119.254 162.255 119.669 162.255C120.144 162.195 120.56 161.53 121.034 160.925C121.628 160.925 122.162 160.985 122.755 161.106C122.874 161.772 122.933 162.497 123.349 162.618C123.764 162.739 124.773 162.316 125.782 162.013C126.019 162.134 126.257 162.255 126.435 162.376C126.672 162.497 126.85 162.618 127.028 162.739C126.494 163.284 125.782 163.949 126.019 164.191C126.257 164.433 127.443 164.493 128.571 164.554C128.749 164.916 128.808 165.219 128.868 165.582C127.859 165.824 126.672 166.126 126.613 166.368C126.553 166.61 127.503 167.094 128.334 167.517C128.156 167.819 127.859 168.122 127.562 168.424C126.494 168.303 125.248 168.122 124.951 168.303C124.595 168.485 124.951 169.21 125.188 169.876C124.714 170.057 124.18 170.239 123.645 170.359C122.874 169.876 122.103 169.331 121.687 169.331C121.212 169.392 120.797 170.057 120.322 170.662C119.729 170.662 119.135 170.601 118.601 170.48C118.483 169.815 118.423 169.089 118.008 168.968C117.533 168.787 116.465 169.21 115.515 169.513ZM123.527 167.457C125.129 166.549 125.129 165.037 123.527 164.07C121.924 163.163 119.373 163.163 117.77 164.07C116.168 164.977 116.168 166.489 117.77 167.457C119.373 168.364 121.924 168.364 123.527 167.457Z" fill="#FF505F"/>
<path d="M106.969 163.284C106.851 163.223 106.673 163.163 106.554 163.042C106.435 162.981 106.317 162.86 106.198 162.8C106.198 162.8 106.198 162.195 106.198 162.134C106.554 161.772 106.969 162.013 106.851 161.893C106.732 161.711 105.961 161.711 105.249 161.651C105.13 161.469 105.07 161.227 105.07 160.985V160.32C105.723 160.139 106.435 160.622 106.495 160.441C106.554 160.26 105.961 159.957 105.427 159.715V159.05C106.139 159.111 107.385 159.352 107.563 159.231C107.8 159.111 107.563 158.687 107.444 158.264V157.599C107.919 157.901 109.403 158.627 109.64 158.566C109.937 158.566 110.233 158.082 110.471 157.72C110.827 157.72 111.183 157.78 111.539 157.84C111.598 158.264 111.658 158.687 111.895 158.808C112.132 158.869 112.785 158.627 113.438 158.445C113.557 158.506 114.091 158.203 114.209 158.264V158.929C113.853 159.292 113.438 159.655 113.557 159.836C113.675 160.018 114.625 160.018 115.337 160.078C115.337 160.078 115.337 160.502 115.337 160.743C114.684 160.925 113.972 161.106 113.913 161.227C113.853 161.409 114.506 161.046 114.981 161.288V161.953C114.862 162.134 114.684 162.316 114.506 162.497C113.794 162.437 113.082 162.316 112.844 162.437C112.785 162.437 112.844 162.376 112.963 162.739C112.963 162.8 112.963 163.344 112.963 163.404C112.666 163.525 112.31 163.646 112.014 163.707C111.539 163.404 111.064 163.042 110.767 163.042C110.471 163.042 110.174 163.525 109.937 163.888C109.581 163.888 109.225 163.828 108.868 163.767C108.809 163.344 108.75 162.921 108.512 162.8C108.275 162.86 107.563 163.102 106.969 163.284ZM112.014 162.013C113.023 161.409 113.023 160.502 112.014 159.897C111.005 159.292 109.403 159.292 108.394 159.897C107.385 160.502 107.385 161.409 108.394 162.013C109.403 162.558 111.005 162.558 112.014 162.013Z" fill="#CC6870"/>
<path d="M106.969 162.679C106.851 162.618 106.673 162.558 106.554 162.437C106.435 162.376 106.317 162.255 106.198 162.195C106.554 161.832 106.969 161.469 106.851 161.288C106.732 161.106 105.961 161.106 105.249 161.046C105.13 160.864 105.07 160.623 105.07 160.441C105.723 160.26 106.435 160.078 106.495 159.957C106.554 159.776 105.961 159.473 105.427 159.232C105.545 159.05 105.723 158.869 105.901 158.687C106.613 158.748 107.326 158.869 107.563 158.748C107.8 158.627 107.563 158.203 107.444 157.78C107.741 157.659 108.097 157.538 108.394 157.478C108.868 157.78 109.343 158.143 109.64 158.143C109.937 158.143 110.233 157.659 110.471 157.296C110.827 157.296 111.183 157.357 111.539 157.417C111.598 157.841 111.658 158.264 111.895 158.385C112.132 158.445 112.785 158.203 113.438 158.022C113.557 158.082 113.735 158.143 113.853 158.264C113.972 158.324 114.091 158.445 114.209 158.506C113.853 158.869 113.438 159.232 113.557 159.413C113.675 159.594 114.447 159.594 115.159 159.655C115.278 159.836 115.337 160.078 115.337 160.32C114.684 160.502 113.972 160.683 113.913 160.804C113.853 160.985 114.447 161.288 114.981 161.53C114.862 161.711 114.684 161.893 114.506 162.074C113.794 162.014 113.082 161.893 112.844 162.014C112.666 162.135 112.844 162.558 112.963 162.981C112.666 163.102 112.31 163.223 112.014 163.284C111.539 162.981 111.064 162.618 110.767 162.618C110.471 162.618 110.174 163.102 109.937 163.465C109.581 163.465 109.225 163.405 108.868 163.344C108.809 162.921 108.75 162.497 108.512 162.376C108.275 162.195 107.563 162.437 106.969 162.679ZM112.014 161.348C113.023 160.744 113.023 159.836 112.014 159.232C111.005 158.627 109.403 158.627 108.394 159.232C107.385 159.836 107.385 160.744 108.394 161.348C109.403 161.953 111.005 161.953 112.014 161.348Z" fill="#FF505F"/>
</g>
<g filter="url(#filter5_d)">
<path d="M154.326 156.208V154.151H155.216C155.513 153.789 155.928 153.486 156.462 153.184C159.311 151.49 163.939 151.49 166.788 153.184C167.263 153.486 167.678 153.789 168.034 154.151H168.924V156.208C168.924 157.296 168.212 158.385 166.788 159.232C163.939 160.925 159.311 160.925 156.462 159.232C155.038 158.385 154.326 157.296 154.326 156.208Z" fill="#86E5FF"/>
<path d="M156.462 157.175C159.311 158.869 163.939 158.869 166.788 157.175C169.636 155.482 169.636 152.76 166.788 151.127C163.939 149.434 159.311 149.434 156.462 151.127C153.614 152.76 153.614 155.482 156.462 157.175Z" fill="#F3FDFF"/>
<path d="M154.919 120.042C155.75 115.264 161.625 101.838 161.625 101.838C161.625 101.838 167.441 115.264 168.331 120.042C169.814 128.267 168.331 153.486 168.331 153.486C168.331 154.514 167.678 155.482 166.373 156.268C163.761 157.78 159.548 157.78 156.878 156.268C155.572 155.482 154.919 154.454 154.919 153.486C154.919 153.002 153.495 128.146 154.919 120.042Z" fill="#97DFFF"/>
<path d="M154.682 120.828C154.741 120.526 154.741 120.284 154.801 120.042C155.631 115.264 161.507 101.838 161.507 101.838C161.507 101.838 167.322 115.264 168.212 120.042C168.272 120.284 168.272 120.586 168.331 120.828C168.39 121.07 168.39 121.372 168.45 121.614C168.39 122.642 167.738 123.61 166.432 124.396C163.702 125.969 159.37 125.969 156.64 124.396C155.335 123.61 154.682 122.642 154.623 121.614C154.623 121.312 154.682 121.07 154.682 120.828Z" fill="#FF505F"/>
<path d="M148.926 164.554L156.818 140.06L156.166 139.576L149.341 146.713L148.214 164.13L148.926 164.554Z" fill="#FF9FA8"/>
<path d="M156.818 156.147V140.06L150.053 147.136L148.926 164.554L156.818 156.147Z" fill="#FF505F"/>
<path d="M174.681 164.554L166.729 140.06L167.441 139.576L174.206 146.713L175.333 164.13L174.681 164.554Z" fill="#FF9FA8"/>
<path d="M166.729 156.147V140.06L173.553 147.136L174.681 164.554L166.729 156.147Z" fill="#FF505F"/>
<path d="M160.082 144.414H163.583V155.603H160.082V144.414Z" fill="#F3FDFF"/>
<path d="M160.082 129.597H163.583V141.814H160.082V129.597Z" fill="#F3FDFF"/>
</g>
<defs>
<filter id="filter0_d" x="72.9946" y="51.8827" width="94.7732" height="126.023" filterUnits="userSpaceOnUse" color-interpolation-filters="sRGB">
<feFlood flood-opacity="0" result="BackgroundImageFix"/>
<feColorMatrix in="SourceAlpha" type="matrix" values="0 0 0 0 0 0 0 0 0 0 0 0 0 0 0 0 0 0 127 0"/>
<feOffset dy="12"/>
<feGaussianBlur stdDeviation="5"/>
<feColorMatrix type="matrix" values="0 0 0 0 0 0 0 0 0 0 0 0 0 0 0 0 0 0 0.2 0"/>
<feBlend mode="normal" in2="BackgroundImageFix" result="effect1_dropShadow"/>
<feBlend mode="normal" in="SourceGraphic" in2="effect1_dropShadow" result="shape"/>
</filter>
<filter id="filter1_d" x="49.0791" y="56.7185" width="96.4347" height="124.751" filterUnits="userSpaceOnUse" color-interpolation-filters="sRGB">
<feFlood flood-opacity="0" result="BackgroundImageFix"/>
<feColorMatrix in="SourceAlpha" type="matrix" values="0 0 0 0 0 0 0 0 0 0 0 0 0 0 0 0 0 0 127 0"/>
<feOffset dy="12"/>
<feGaussianBlur stdDeviation="5"/>
<feColorMatrix type="matrix" values="0 0 0 0 0 0 0 0 0 0 0 0 0 0 0 0 0 0 0.2 0"/>
<feBlend mode="normal" in2="BackgroundImageFix" result="effect1_dropShadow"/>
<feBlend mode="normal" in="SourceGraphic" in2="effect1_dropShadow" result="shape"/>
</filter>
<filter id="filter2_d" x="0.120605" y="96.3417" width="90.9154" height="79.8163" filterUnits="userSpaceOnUse" color-interpolation-filters="sRGB">
<feFlood flood-opacity="0" result="BackgroundImageFix"/>
<feColorMatrix in="SourceAlpha" type="matrix" values="0 0 0 0 0 0 0 0 0 0 0 0 0 0 0 0 0 0 127 0"/>
<feOffset dy="12"/>
<feGaussianBlur stdDeviation="5"/>
<feColorMatrix type="matrix" values="0 0 0 0 0 0 0 0 0 0 0 0 0 0 0 0 0 0 0.2 0"/>
<feBlend mode="normal" in2="BackgroundImageFix" result="effect1_dropShadow"/>
<feBlend mode="normal" in="SourceGraphic" in2="effect1_dropShadow" result="shape"/>
</filter>
<filter id="filter3_d" x="60.7695" y="139.833" width="50.3842" height="43.7419" filterUnits="userSpaceOnUse" color-interpolation-filters="sRGB">
<feFlood flood-opacity="0" result="BackgroundImageFix"/>
<feColorMatrix in="SourceAlpha" type="matrix" values="0 0 0 0 0 0 0 0 0 0 0 0 0 0 0 0 0 0 127 0"/>
<feOffset dy="12"/>
<feGaussianBlur stdDeviation="5"/>
<feColorMatrix type="matrix" values="0 0 0 0 0 0 0 0 0 0 0 0 0 0 0 0 0 0 0.2 0"/>
<feBlend mode="normal" in2="BackgroundImageFix" result="effect1_dropShadow"/>
<feBlend mode="normal" in="SourceGraphic" in2="effect1_dropShadow" result="shape"/>
</filter>
<filter id="filter4_d" x="95.0703" y="157.296" width="43.8949" height="36.0913" filterUnits="userSpaceOnUse" color-interpolation-filters="sRGB">
<feFlood flood-opacity="0" result="BackgroundImageFix"/>
<feColorMatrix in="SourceAlpha" type="matrix" values="0 0 0 0 0 0 0 0 0 0 0 0 0 0 0 0 0 0 127 0"/>
<feOffset dy="12"/>
<feGaussianBlur stdDeviation="5"/>
<feColorMatrix type="matrix" values="0 0 0 0 0 0 0 0 0 0 0 0 0 0 0 0 0 0 0.2 0"/>
<feBlend mode="normal" in2="BackgroundImageFix" result="effect1_dropShadow"/>
<feBlend mode="normal" in="SourceGraphic" in2="effect1_dropShadow" result="shape"/>
</filter>
<filter id="filter5_d" x="138.213" y="101.838" width="47.12" height="84.716" filterUnits="userSpaceOnUse" color-interpolation-filters="sRGB">
<feFlood flood-opacity="0" result="BackgroundImageFix"/>
<feColorMatrix in="SourceAlpha" type="matrix" values="0 0 0 0 0 0 0 0 0 0 0 0 0 0 0 0 0 0 127 0"/>
<feOffset dy="12"/>
<feGaussianBlur stdDeviation="5"/>
<feColorMatrix type="matrix" values="0 0 0 0 0 0 0 0 0 0 0 0 0 0 0 0 0 0 0.2 0"/>
<feBlend mode="normal" in2="BackgroundImageFix" result="effect1_dropShadow"/>
<feBlend mode="normal" in="SourceGraphic" in2="effect1_dropShadow" result="shape"/>
</filter>
<linearGradient id="paint0_linear" x1="51.2655" y1="99.1449" x2="38.8838" y2="99.1449" gradientUnits="userSpaceOnUse">
<stop stop-color="#FFE2C4"/>
<stop offset="1" stop-color="#FFB870"/>
</linearGradient>
<linearGradient id="paint1_linear" x1="84.2411" y1="49.1109" x2="109.766" y2="49.1109" gradientUnits="userSpaceOnUse">
<stop stop-color="#4CC194"/>
<stop offset="0.2836" stop-color="#4CD08B"/>
<stop offset="0.6803" stop-color="#4CE083"/>
<stop offset="1" stop-color="#4CE580"/>
</linearGradient>
</defs>
</svg>
